<?xml version="1.0" encoding="UTF-8"?>
<svg id="accueil-tel" xmlns="http://www.w3.org/2000/svg" xmlns:xlink="http://www.w3.org/1999/xlink" viewBox="0 0 262.32 78.02">
  <defs>
    <style>
      .cls-1, .cls-2 {
        stroke-linecap: round;
        stroke-linejoin: round;
      }

      .cls-1, .cls-2, .cls-3 {
        stroke: #252422;
      }

      .cls-1, .cls-3 {
        stroke-width: 4px;
      }

      .cls-1, .cls-4 {
        fill: #eeebe9;
      }

      .cls-2 {
        fill: none;
      }

      .cls-3 {
        fill: url(#Dégradé_sans_nom_2);
        stroke-miterlimit: 10;
      }

      .cls-5 {
        fill: #252422;
      }

      .cls-5, .cls-4 {
        stroke-width: 0px;
      }
    </style>
    <radialGradient id="Dégradé_sans_nom_2" data-name="Dégradé sans nom 2" cx="385.75" cy="1016.37" fx="385.75" fy="1016.37" r="63.04" gradientTransform="translate(-412.58 -657.95) scale(1.41 .69)" gradientUnits="userSpaceOnUse">
      <stop offset="0" stop-color="#7f7fc9"/>
      <stop offset="1" stop-color="#5e548b"/>
    </radialGradient>
  </defs>
  <g id="contenu-milieu-2" data-name="contenu-milieu">
    <g id="btn-se_connecter" data-name="btn-se connecter">
      <rect class="cls-1" x="3.54" y="2" width="258.32" height="74.02" rx="25.78" ry="25.78"/>
      <ellipse class="cls-5" cx="37.33" cy="18.22" rx="11.78" ry="5.87"/>
      <path class="cls-3" d="M239.48,62.55c-12.37,0-25.14,0-36.8-.01H46.32c-9.98-1.03-29.94,2.09-29.14-2.07,3.19-13.53,10.38-24.98-.8-39.03-4.79-6.77,19.96-2.6,29.94-4.24h156.37c13.25.6,26.82-.96,41.19.6,3.19.52,3.19,3.64,1.6,5.2-21.55,10.93-19.16,23.42,3.19,33.83,3.19,1.56-2.39,3.64-4.22,5.08-1.46.42-3.14.65-4.97.65Z"/>
      <path class="cls-2" d="M237.35,47.7l-.17-14.9s1.07-1.91,1.12-1.26-1.28,3.43.91,5.01c.45.32,4.23,1.81,6.71-.3,3.64-3.09-.28-9.99-3.72-10.59"/>
      <g>
        <g>
          <path class="cls-5" d="M36.87,51.93c-1.2,0-2.43-.16-3.64-.46-1.23-.31-2.37-.78-3.4-1.39-1.06-.63-1.94-1.43-2.62-2.38-.71-1-1.08-2.19-1.08-3.52,0-1.09.21-2.04.63-2.81.41-.76.93-1.37,1.55-1.81.63-.45,1.33-.72,2.08-.83.25-.03.48-.05.71-.05.48,0,.94.07,1.38.21.74.23,1.33.68,1.76,1.34.4.61.63,1.29.67,2.01.04.73-.13,1.46-.5,2.16-.39.74-1.05,1.33-1.96,1.74-.28.13-.65.37-.71.66-.04.18-.04.43.28.81.32.4.89.76,1.67,1.08.82.33,1.89.5,3.16.5,1.12,0,2.02-.21,2.67-.62.65-.41,1.11-.92,1.4-1.56.3-.67.42-1.43.37-2.27-.06-.89-.28-1.78-.66-2.65-.39-.87-.95-1.71-1.67-2.49-.71-.77-1.57-1.39-2.57-1.84-1.32-.61-2.59-1.24-3.77-1.88-1.23-.66-2.32-1.43-3.24-2.29-.95-.88-1.72-1.91-2.27-3.04-.56-1.16-.85-2.54-.85-4.1,0-1.47.25-2.85.74-4.1.49-1.25,1.21-2.37,2.11-3.31.91-.94,2.01-1.69,3.27-2.23,1.26-.53,2.68-.8,4.22-.8,1.62,0,3.11.25,4.42.74,1.31.49,2.44,1.14,3.36,1.94.93.81,1.67,1.75,2.17,2.8.51,1.07.77,2.15.77,3.23s-.16,1.97-.46,2.7c-.31.75-.74,1.36-1.25,1.81-.52.46-1.12.77-1.76.92-.33.08-.66.12-.98.12-.28,0-.56-.03-.83-.09-.68-.18-1.28-.53-1.82-1.05-.55-.53-.92-1.15-1.11-1.86-.2-.72-.17-1.48.09-2.26.26-.8.83-1.52,1.71-2.16.41-.3.67-.67.77-1.11.1-.42.04-.81-.2-1.21-.26-.45-.78-.86-1.54-1.22-.81-.38-1.94-.58-3.35-.58-1.11,0-2.02.23-2.7.68-.69.46-1.18,1.02-1.49,1.71-.32.72-.47,1.56-.44,2.48.03.94.25,1.88.66,2.8.42.93,1.02,1.82,1.81,2.63.76.79,1.71,1.4,2.82,1.83,1.51.62,2.89,1.24,4.12,1.84,1.3.63,2.42,1.36,3.35,2.17.97.84,1.72,1.83,2.25,2.93.53,1.11.8,2.45.8,3.97,0,1.23-.21,2.46-.64,3.66-.43,1.21-1.1,2.32-1.99,3.28-.9.97-2.05,1.76-3.43,2.34-1.37.58-3.01.87-4.87.87Z"/>
          <path class="cls-4" d="M36.62,17.03c1.51,0,2.87.22,4.07.67,1.2.45,2.22,1.04,3.06,1.76.83.72,1.48,1.55,1.93,2.48.45.93.67,1.86.67,2.79s-.13,1.7-.39,2.31c-.26.61-.59,1.09-.99,1.44-.4.35-.84.59-1.32.7-.26.06-.51.09-.75.09-.21,0-.41-.02-.6-.07-.48-.13-.93-.39-1.35-.79-.42-.4-.7-.87-.84-1.4-.14-.53-.12-1.09.07-1.69.19-.59.64-1.15,1.35-1.66.61-.45,1-1.01,1.16-1.69.16-.67.06-1.32-.31-1.95-.37-.63-1.03-1.16-1.98-1.61-.95-.45-2.21-.67-3.78-.67-1.32,0-2.4.28-3.25.84-.85.56-1.47,1.28-1.85,2.14s-.56,1.84-.53,2.91c.03,1.08.28,2.14.75,3.18.46,1.04,1.13,2.02,2,2.91.87.9,1.93,1.59,3.18,2.07,1.48.61,2.83,1.21,4.05,1.81,1.22.59,2.26,1.27,3.13,2.02.87.75,1.53,1.62,2,2.6.46.98.7,2.16.7,3.54,0,1.12-.19,2.23-.58,3.32-.39,1.09-.98,2.07-1.78,2.94-.8.87-1.83,1.57-3.08,2.09-1.25.53-2.75.79-4.48.79-1.12,0-2.26-.14-3.4-.43-1.14-.29-2.18-.71-3.13-1.28-.95-.56-1.72-1.26-2.31-2.09-.59-.83-.89-1.81-.89-2.94,0-.93.17-1.71.51-2.34.34-.63.75-1.12,1.25-1.47.5-.35,1.04-.57,1.64-.65.2-.03.39-.04.58-.04.38,0,.74.05,1.08.16.51.16.92.47,1.23.94.3.47.47.97.51,1.52.03.55-.1,1.09-.39,1.64s-.79.98-1.49,1.3c-.74.35-1.16.81-1.28,1.37-.11.56.05,1.11.48,1.64.43.53,1.12.99,2.07,1.37.95.39,2.13.58,3.54.58,1.32,0,2.38-.26,3.2-.77s1.41-1.18,1.78-2c.37-.82.52-1.73.46-2.75-.06-1.01-.31-2.01-.75-2.99-.43-.98-1.05-1.9-1.85-2.77-.8-.87-1.77-1.56-2.89-2.07-1.32-.61-2.55-1.23-3.71-1.85s-2.17-1.34-3.03-2.14c-.87-.8-1.55-1.72-2.05-2.75-.5-1.03-.75-2.25-.75-3.66s.22-2.59.67-3.73c.45-1.14,1.08-2.13,1.9-2.99.82-.85,1.8-1.52,2.94-2,1.14-.48,2.42-.72,3.83-.72M36.62,15.03c-1.68,0-3.23.3-4.61.88-1.39.59-2.6,1.41-3.6,2.45-1,1.04-1.78,2.26-2.32,3.64-.54,1.37-.81,2.87-.81,4.47,0,1.71.32,3.24.95,4.53.6,1.25,1.44,2.37,2.49,3.34.98.91,2.14,1.73,3.44,2.43,1.2.65,2.49,1.29,3.82,1.91.9.41,1.63.94,2.26,1.61.65.7,1.15,1.45,1.49,2.22.34.77.53,1.52.58,2.3.04.69-.05,1.27-.29,1.8-.21.46-.54.82-1.02,1.13-.49.31-1.21.46-2.14.46-1.15,0-2.08-.14-2.79-.43-.7-.28-1.04-.54-1.21-.71.01,0,.03-.01.04-.02,1.08-.49,1.9-1.22,2.4-2.17.46-.87.67-1.78.61-2.69-.05-.9-.33-1.74-.83-2.5-.56-.85-1.35-1.45-2.3-1.75-.53-.17-1.1-.25-1.68-.25-.28,0-.56.02-.84.06-.92.13-1.77.46-2.53,1-.75.53-1.37,1.26-1.86,2.15-.49.92-.74,2.02-.74,3.28,0,1.54.42,2.92,1.26,4.1.75,1.06,1.74,1.95,2.92,2.65,1.1.66,2.34,1.16,3.66,1.49,1.29.33,2.6.49,3.89.49,2,0,3.76-.32,5.26-.95,1.51-.64,2.77-1.5,3.77-2.58.99-1.07,1.73-2.29,2.2-3.63.46-1.3.69-2.64.69-3.99,0-1.67-.3-3.15-.89-4.4-.58-1.23-1.42-2.32-2.49-3.25-.99-.86-2.19-1.64-3.57-2.31-1.26-.61-2.66-1.24-4.16-1.86-1.03-.4-1.84-.92-2.5-1.61-.7-.73-1.24-1.51-1.61-2.34-.36-.81-.55-1.6-.57-2.42-.02-.78.09-1.45.36-2.04.23-.52.6-.94,1.13-1.29.52-.34,1.24-.51,2.15-.51,1.25,0,2.26.17,2.92.48.75.36,1.02.67,1.11.82.12.2.12.33.09.47-.04.15-.11.33-.4.54-1.04.76-1.74,1.65-2.06,2.66-.31.97-.35,1.92-.1,2.83.24.88.71,1.66,1.39,2.31.66.64,1.41,1.07,2.22,1.28.02,0,.04.01.06.02.34.08.69.12,1.05.12.39,0,.8-.05,1.2-.14.81-.19,1.54-.57,2.19-1.15.63-.55,1.13-1.28,1.51-2.17.36-.87.54-1.88.54-3.09s-.29-2.46-.87-3.66c-.57-1.18-1.38-2.23-2.42-3.12-1.01-.87-2.24-1.59-3.67-2.12-1.42-.53-3.03-.8-4.77-.8h0Z"/>
        </g>
        <g>
          <path class="cls-5" d="M58.45,51.89c-1.73,0-3.25-.35-4.49-1.04-1.29-.72-2.36-1.7-3.17-2.92-.78-1.18-1.37-2.57-1.75-4.12-.37-1.51-.57-3.14-.61-4.84-.03-1.68.19-3.27.68-4.74.49-1.48,1.2-2.78,2.11-3.87.92-1.1,2.02-1.97,3.29-2.59,1.27-.63,2.66-.95,4.13-.95,2.64,0,4.7.61,6.13,1.8,1.48,1.24,2.24,2.84,2.24,4.75,0,1.42-.27,2.63-.79,3.61-.52.97-1.21,1.76-2.04,2.35-.8.57-1.71.99-2.7,1.26-.93.25-1.86.43-2.78.54-.78.09-1.53.13-2.23.13,0,0-.94-.02-1.19-.02.03.61.07,1.25.14,1.9.1.99.31,1.93.62,2.78.29.8.68,1.46,1.16,1.97.39.41.88.6,1.54.6,1.11,0,2.01-.16,2.69-.46.68-.31,1.22-.69,1.6-1.14.39-.46.67-.96.84-1.48.18-.56.27-1.09.27-1.6,0-.77.58-1.34,1.39-1.34s1.34.56,1.34,1.34c0,1.26-.22,2.4-.66,3.41-.44,1-1.03,1.86-1.77,2.56-.74.7-1.62,1.23-2.61,1.59-.97.35-2.03.52-3.13.52h-.23ZM58.63,29.35c-.53,0-.93.15-1.28.46-.42.38-.77.88-1.03,1.49-.29.67-.51,1.41-.66,2.21-.15.85-.26,1.67-.32,2.45-.06.79-.09,1.5-.09,2.11v.23c.18-.02.38-.04.61-.07.65-.08,1.33-.3,2.02-.67.67-.35,1.26-.86,1.76-1.52.46-.61.69-1.51.69-2.7,0-1.26-.19-2.33-.56-3.15-.34-.75-.75-.85-1.14-.85Z"/>
          <path class="cls-4" d="M58.63,27.81c2.41,0,4.24.52,5.49,1.57,1.25,1.05,1.88,2.37,1.88,3.98,0,1.25-.22,2.3-.67,3.14s-1.03,1.5-1.73,2c-.71.5-1.5.87-2.38,1.11-.88.24-1.76.41-2.62.51-.74.08-1.45.12-2.12.12-.11,0-.23,0-.34,0-.77-.02-1.4-.02-1.88-.02,0,.93.06,1.94.17,3.02.11,1.08.34,2.08.67,3.02.34.93.79,1.71,1.37,2.32.58.61,1.33.92,2.26.92,1.25,0,2.29-.18,3.11-.55.82-.37,1.47-.83,1.95-1.4.48-.56.83-1.17,1.04-1.83.21-.66.31-1.29.31-1.9,0-.22.13-.34.39-.34.22,0,.34.11.34.34,0,1.12-.19,2.13-.58,3.01-.39.88-.9,1.63-1.54,2.23-.64.6-1.4,1.06-2.26,1.37-.87.31-1.8.47-2.79.47-.08,0-.15,0-.23,0-1.57,0-2.9-.31-4.01-.92-1.16-.64-2.1-1.51-2.82-2.6-.72-1.09-1.26-2.36-1.61-3.8-.35-1.44-.55-2.99-.58-4.62-.03-1.57.18-3.04.63-4.41.45-1.36,1.09-2.54,1.93-3.54.83-1,1.82-1.77,2.96-2.34,1.14-.56,2.37-.84,3.68-.84M54.25,39.37c.39,0,.96-.05,1.73-.14.77-.1,1.56-.35,2.36-.77.8-.42,1.5-1.02,2.1-1.81.59-.79.89-1.89.89-3.3s-.22-2.6-.65-3.56-1.12-1.44-2.05-1.44c-.77,0-1.42.24-1.95.72s-.96,1.09-1.28,1.83c-.32.74-.56,1.55-.72,2.43-.16.88-.27,1.73-.34,2.55-.06.82-.1,1.55-.1,2.19v1.3M58.63,25.81c-1.62,0-3.16.35-4.57,1.05-1.39.68-2.6,1.64-3.61,2.84-.99,1.19-1.77,2.6-2.29,4.2-.52,1.57-.76,3.28-.73,5.07.03,1.77.25,3.48.64,5.06.41,1.66,1.04,3.15,1.89,4.43.9,1.36,2.08,2.45,3.52,3.25,1.4.78,3.07,1.17,4.98,1.17.09,0,.18,0,.27,0h0c1.18,0,2.34-.2,3.43-.58,1.12-.4,2.12-1.01,2.96-1.8.84-.79,1.51-1.76,2-2.89.49-1.13.74-2.41.74-3.81s-1-2.34-2.34-2.34-2.39,1-2.39,2.34c0,.4-.07.84-.22,1.3-.13.4-.34.77-.65,1.13-.29.34-.71.63-1.25.87-.56.25-1.32.38-2.29.38-.47,0-.67-.14-.81-.29-.38-.41-.7-.95-.94-1.62-.28-.78-.47-1.63-.57-2.54-.03-.26-.05-.53-.07-.78.04,0,.09,0,.13,0,.74,0,1.52-.05,2.34-.14.97-.11,1.96-.3,2.93-.57,1.1-.3,2.11-.77,3.01-1.4.96-.68,1.75-1.58,2.34-2.69.61-1.13.91-2.5.91-4.08,0-2.19-.9-4.1-2.6-5.52-1.62-1.35-3.9-2.03-6.77-2.03h0ZM56.27,37.14c.02-.35.04-.71.07-1.1.06-.75.16-1.54.31-2.35.13-.73.33-1.4.59-1.99.21-.48.47-.86.79-1.15.12-.1.27-.2.61-.2.06,0,.08,0,.08,0,0,0,.06.08.14.26.31.7.47,1.62.47,2.74,0,.95-.17,1.67-.49,2.09-.42.55-.88.96-1.42,1.24-.39.21-.78.36-1.15.46h0Z"/>
        </g>
        <g>
          <path class="cls-5" d="M91.19,51.84c-1.75,0-3.3-.32-4.6-.94-1.32-.63-2.42-1.54-3.26-2.69-.83-1.13-1.45-2.52-1.83-4.14-.37-1.56-.56-3.31-.56-5.21,0-1.69.27-3.27.81-4.71.54-1.44,1.27-2.7,2.18-3.75.92-1.06,2-1.9,3.23-2.5,1.24-.61,2.58-.92,3.98-.92s2.69.2,3.76.59c1.08.4,2,.93,2.73,1.59.75.67,1.32,1.45,1.69,2.32.38.86.56,1.76.56,2.66,0,1.06-.25,1.98-.74,2.74-.58.89-1.57,1.35-2.96,1.35-.44,0-.92-.1-1.4-.29-.55-.22-1.01-.58-1.36-1.07-.36-.5-.55-1.13-.57-1.88-.02-.71.19-1.53.65-2.52.15-.32.25-.69.3-1.1.04-.31,0-.58-.12-.83-.11-.22-.35-.43-.71-.62-.27-.14-.82-.32-1.84-.32-.85,0-1.46.23-1.86.7-.49.58-.84,1.33-1.04,2.23-.22.99-.35,2.08-.36,3.26-.02,1.25-.02,2.4-.02,3.45,0,.96.03,2.02.09,3.17.06,1.11.23,2.18.5,3.16.25.92.63,1.7,1.12,2.31.39.48.9.71,1.63.71,1.06,0,1.97-.18,2.7-.53.74-.36,1.36-.81,1.83-1.33.47-.53.83-1.11,1.06-1.73.23-.62.35-1.19.35-1.68,0-.82.57-1.39,1.39-1.39s1.39.58,1.39,1.39c0,.86-.19,1.8-.57,2.79-.38.98-.93,1.91-1.64,2.75-.73.85-1.64,1.56-2.71,2.12-1.1.57-2.38.86-3.78.86Z"/>
          <path class="cls-4" d="M91.14,27.96c1.32,0,2.46.18,3.42.53.96.35,1.77.82,2.41,1.4.64.58,1.12,1.24,1.44,1.97.32.74.48,1.49.48,2.26,0,.87-.19,1.6-.58,2.19s-1.09.89-2.12.89c-.32,0-.67-.07-1.04-.22s-.67-.38-.92-.72c-.24-.34-.37-.78-.39-1.32-.02-.55.17-1.24.55-2.07.19-.42.32-.88.39-1.4.06-.51,0-.98-.22-1.4-.21-.42-.59-.77-1.13-1.06-.55-.29-1.32-.43-2.31-.43-1.16,0-2.03.35-2.62,1.06-.59.71-1.01,1.59-1.25,2.65s-.37,2.21-.39,3.47c-.02,1.25-.02,2.41-.02,3.47,0,.96.03,2.04.1,3.23.06,1.19.24,2.31.53,3.37s.72,1.95,1.3,2.67c.58.72,1.38,1.08,2.41,1.08,1.22,0,2.26-.21,3.13-.63.87-.42,1.58-.94,2.14-1.57.56-.63.98-1.31,1.25-2.05.27-.74.41-1.41.41-2.02,0-.26.13-.39.39-.39s.39.13.39.39c0,.74-.17,1.55-.51,2.43-.34.88-.83,1.7-1.47,2.46-.64.75-1.44,1.38-2.41,1.88-.96.5-2.07.75-3.32.75-1.61,0-2.99-.28-4.17-.84-1.17-.56-2.14-1.36-2.89-2.38-.75-1.03-1.31-2.29-1.66-3.78-.35-1.49-.53-3.15-.53-4.98,0-1.57.25-3.03.75-4.36.5-1.33,1.16-2.48,2-3.44.83-.96,1.81-1.72,2.91-2.26,1.11-.54,2.29-.82,3.54-.82M91.14,25.96c-1.55,0-3.04.34-4.42,1.02-1.35.67-2.54,1.59-3.54,2.75-.99,1.14-1.78,2.5-2.36,4.05-.58,1.55-.87,3.25-.87,5.06,0,1.98.2,3.81.58,5.45.41,1.75,1.08,3.26,2,4.5.95,1.29,2.17,2.3,3.64,3,1.44.69,3.13,1.04,5.03,1.04,1.57,0,2.99-.33,4.24-.97,1.19-.62,2.2-1.41,3.01-2.36.79-.93,1.4-1.95,1.82-3.04.42-1.11.64-2.16.64-3.14,0-1.36-1.03-2.39-2.39-2.39s-2.39,1.03-2.39,2.39c0,.37-.1.82-.29,1.33-.19.5-.47.96-.87,1.4-.38.43-.9.8-1.52,1.1-.59.28-1.35.43-2.26.43-.53,0-.72-.17-.85-.33-.4-.5-.72-1.16-.93-1.95-.25-.92-.41-1.91-.46-2.95-.06-1.13-.09-2.18-.09-3.12,0-1.05,0-2.2.02-3.44.01-1.11.13-2.13.34-3.05.17-.75.44-1.34.83-1.81.08-.09.29-.35,1.09-.35.92,0,1.29.15,1.38.2.23.12.29.2.29.2,0,0,.03.07.01.24-.04.31-.11.58-.22.8-.52,1.13-.76,2.11-.74,2.97.03.95.28,1.76.76,2.43.47.66,1.08,1.13,1.81,1.42.6.24,1.19.35,1.76.35,2.17,0,3.26-.98,3.8-1.8.6-.92.9-2.02.9-3.28,0-1.04-.22-2.07-.65-3.06-.44-1-1.09-1.9-1.94-2.66-.83-.75-1.86-1.35-3.06-1.79-1.18-.43-2.57-.65-4.11-.65h0Z"/>
        </g>
        <g>
          <path class="cls-5" d="M108.82,51.84c-.73,0-1.59-.13-2.63-.39-1.1-.28-2.16-.88-3.15-1.77-.97-.88-1.81-2.14-2.49-3.75-.68-1.59-1.02-3.72-1.02-6.31s.34-4.88,1.02-6.5c.68-1.63,1.51-2.93,2.47-3.85.98-.94,2.04-1.58,3.14-1.9,1.05-.3,1.92-.45,2.66-.45s1.61.15,2.66.45c1.1.32,2.16.96,3.14,1.9.96.93,1.79,2.23,2.47,3.85.67,1.62,1.02,3.78,1.02,6.4s-.34,4.82-1.02,6.41c-.68,1.6-1.52,2.87-2.49,3.75-.98.89-2.04,1.49-3.15,1.77-1.04.26-1.9.39-2.63.39ZM108.82,29.54c-.55,0-.92.18-1.22.58-.4.54-.71,1.28-.92,2.19-.23.98-.36,2.1-.41,3.33-.05,1.28-.07,2.59-.07,3.89,0,1.4.02,2.69.07,3.94.04,1.2.18,2.27.41,3.2.21.85.51,1.53.9,2.02.29.37.67.54,1.24.54s.95-.17,1.24-.53c.39-.49.69-1.17.9-2.02.22-.93.36-2,.41-3.2.05-1.25.07-2.54.07-3.84s-.02-2.67-.07-3.96c-.04-1.25-.18-2.37-.41-3.35-.21-.91-.52-1.64-.92-2.19-.29-.4-.67-.58-1.22-.58Z"/>
          <path class="cls-4" d="M108.82,27.91c.64,0,1.44.14,2.38.41.95.27,1.85.83,2.72,1.66.87.84,1.61,2.01,2.24,3.52.63,1.51.94,3.52.94,6.02v.1c0,2.47-.31,4.45-.94,5.92-.63,1.48-1.37,2.61-2.24,3.4-.87.79-1.77,1.3-2.72,1.54-.95.24-1.74.36-2.38.36s-1.44-.12-2.38-.36c-.95-.24-1.85-.75-2.72-1.54-.87-.79-1.61-1.92-2.24-3.4-.63-1.48-.94-3.45-.94-5.92v-.1c0-2.5.31-4.51.94-6.02.63-1.51,1.37-2.68,2.24-3.52.87-.83,1.77-1.39,2.72-1.66.95-.27,1.74-.41,2.38-.41M108.82,50.21c.87,0,1.54-.3,2.02-.92.48-.61.84-1.41,1.08-2.41.24-1,.39-2.13.43-3.4.05-1.27.07-2.56.07-3.88s-.02-2.68-.07-4c-.05-1.32-.19-2.5-.43-3.54-.24-1.04-.6-1.89-1.08-2.55-.48-.66-1.16-.99-2.02-.99s-1.54.33-2.02.99c-.48.66-.84,1.51-1.08,2.55-.24,1.04-.39,2.21-.43,3.52-.05,1.3-.07,2.61-.07,3.92v.1c0,1.32.02,2.61.07,3.88.05,1.27.19,2.4.43,3.4.24,1,.6,1.8,1.08,2.41.48.61,1.16.92,2.02.92M108.82,25.91c-.84,0-1.8.16-2.94.49-1.26.36-2.46,1.08-3.55,2.14-1.06,1.02-1.97,2.43-2.7,4.19-.73,1.77-1.09,3.99-1.09,6.79v.1c0,2.77.36,4.96,1.1,6.7.74,1.74,1.66,3.12,2.74,4.1,1.11,1,2.31,1.68,3.57,2,1.12.28,2.06.42,2.88.42s1.76-.14,2.88-.42c1.26-.32,2.46-.99,3.57-2,1.08-.98,2-2.36,2.74-4.1.74-1.74,1.1-3.94,1.1-6.7v-.1c0-2.8-.36-5.02-1.09-6.79-.73-1.76-1.64-3.17-2.7-4.19-1.1-1.06-2.3-1.78-3.55-2.14-1.14-.33-2.1-.49-2.94-.49h0ZM108.82,48.21c-.33,0-.4-.09-.45-.15-.3-.38-.54-.93-.71-1.64-.21-.86-.34-1.87-.38-3-.05-1.23-.07-2.51-.07-3.8v-.1c0-1.29.02-2.58.07-3.85.04-1.17.17-2.22.38-3.14.18-.77.43-1.39.75-1.82.07-.1.12-.17.41-.17s.34.07.41.17c.32.44.57,1.05.75,1.82.21.92.34,1.98.38,3.16.05,1.28.07,2.6.07,3.92s-.02,2.57-.07,3.8c-.04,1.13-.17,2.14-.38,3-.17.71-.41,1.26-.71,1.64-.06.07-.12.16-.45.16h0Z"/>
        </g>
        <g>
          <path class="cls-5" d="M131.16,51.5c-.69,0-1.1-.3-1.33-.55-.29-.33-.44-.72-.44-1.14s.15-.82.44-1.15c.19-.21.52-.47,1.04-.54.02-.06.05-.15.07-.26.06-.27.1-.57.13-.91.03-.36.04-.7.04-1.02v-13.25c0-.35-.02-.69-.04-1.02-.02-.23-.07-.44-.15-.61-.01-.03-.06-.12-.25-.23-.08-.05-.29-.13-.73-.13-.48,0-.89.07-1.23.21-.37.16-.7.35-.98.57-.29.24-.53.49-.73.74-.15.2-.28.39-.4.56v13.14c0,.34,0,.69.02,1.06.01.31.05.59.11.82.03.13.07.23.1.31.53.07.86.32,1.05.54.29.33.45.73.45,1.15,0,.44-.18.86-.51,1.19-.33.33-.77.51-1.26.51h-6.55c-.69,0-1.1-.3-1.33-.55-.29-.33-.44-.72-.44-1.14s.15-.82.44-1.15c.19-.21.5-.45,1.01-.53.03-.08.07-.18.1-.31.06-.23.1-.51.11-.82.02-.37.02-.72.02-1.06v-13.15c-.06-.1-.12-.19-.19-.26-.06-.06-.12-.11-.2-.16-.41-.19-.72-.42-.94-.69-.03-.03-.05-.07-.07-.11-.24-.4-.3-.86-.17-1.29.17-.58.71-.91,1.16-1.14.51-.24.99-.46,1.46-.67.49-.22.95-.41,1.37-.56.41-.15.76-.27,1.06-.37l.51-.17c.87-.31,1.2-.36,1.45-.36,1,0,1.19.99,1.23,1.68.19-.16.4-.32.61-.48.6-.44,1.32-.81,2.13-1.1.83-.29,1.76-.44,2.77-.44,1.14,0,2.05.19,2.77.58.71.39,1.27.9,1.67,1.52.38.6.62,1.28.72,2.01.09.64.13,1.28.13,1.89v13.25c0,.34,0,.69.02,1.06.01.33.05.62.1.87.02.11.05.2.07.26.52.07.85.32,1.04.54.29.33.45.73.45,1.15,0,.44-.18.86-.51,1.19-.33.33-.77.51-1.26.51h-6.17Z"/>
          <path class="cls-4" d="M132.13,27.67c.96,0,1.73.15,2.29.46.56.3,1,.7,1.3,1.18.3.48.5,1.02.58,1.61.08.59.12,1.18.12,1.76v13.25c0,.35,0,.72.02,1.11.02.39.06.73.12,1.04.06.31.16.55.29.75.13.19.29.29.48.29.26,0,.45.07.58.22.13.14.19.31.19.48s-.07.34-.22.48-.33.22-.55.22h-6.17c-.26,0-.45-.07-.58-.22-.13-.14-.19-.3-.19-.48s.06-.34.19-.48c.13-.14.32-.22.58-.22.19,0,.35-.1.48-.29.13-.19.22-.44.29-.75.06-.3.11-.65.14-1.04.03-.38.05-.75.05-1.11v-13.25c0-.38-.02-.75-.05-1.11-.03-.35-.11-.67-.24-.94-.13-.27-.35-.5-.65-.67s-.71-.27-1.23-.27c-.61,0-1.15.1-1.61.29-.47.19-.88.43-1.23.72-.35.29-.65.59-.89.92-.24.32-.44.61-.6.87v13.44c0,.35,0,.72.02,1.11.02.39.06.73.14,1.04.08.31.18.55.31.75.13.19.29.29.48.29.26,0,.45.07.58.22.13.14.19.31.19.48s-.07.34-.22.48-.33.22-.55.22h-6.55c-.26,0-.45-.07-.58-.22-.13-.14-.19-.3-.19-.48s.06-.34.19-.48c.13-.14.32-.22.58-.22.19,0,.34-.1.46-.29.11-.19.21-.44.29-.75.08-.3.13-.65.14-1.04.02-.38.02-.75.02-1.11v-13.15c0-.19-.05-.37-.14-.53-.1-.16-.21-.3-.34-.43-.13-.13-.27-.24-.43-.34-.29-.13-.5-.27-.63-.43-.1-.16-.12-.32-.07-.48.05-.16.26-.34.65-.53.48-.22.96-.44,1.42-.65.47-.21.9-.39,1.3-.53.4-.14.75-.26,1.04-.36.29-.1.48-.16.58-.19.55-.19.9-.29,1.06-.29s.24.37.24,1.11v2.12c.19-.29.47-.63.84-1.04.37-.4.82-.79,1.35-1.18s1.16-.71,1.88-.96c.72-.26,1.53-.39,2.43-.39M132.13,25.67c-1.12,0-2.17.17-3.1.5-.67.24-1.28.53-1.83.86-.48-.86-1.26-1.03-1.81-1.03-.42,0-.89.11-1.72.4h-.04s-.5.18-.5.18c-.31.1-.67.23-1.08.38-.45.16-.93.36-1.44.59-.47.21-.96.43-1.45.66-.02,0-.03.02-.05.02-.58.29-1.39.79-1.67,1.75-.21.7-.11,1.44.28,2.09.04.07.09.14.15.21.28.35.65.65,1.11.89v12.75c0,.33,0,.67-.02,1.03,0,.14-.02.26-.03.38-.36.15-.68.38-.93.67-.45.51-.69,1.14-.69,1.81s.24,1.3.7,1.81c.51.57,1.24.89,2.07.89h6.55c.75,0,1.45-.29,1.97-.8.12-.12.22-.24.31-.37.07.1.14.19.22.28.51.57,1.24.89,2.07.89h6.17c.75,0,1.45-.29,1.97-.8.52-.52.8-1.19.8-1.9,0-.67-.24-1.29-.7-1.81-.26-.29-.58-.52-.94-.67-.01-.12-.02-.24-.03-.37-.02-.36-.02-.7-.02-1.03v-13.25c0-.66-.05-1.34-.14-2.02-.12-.88-.41-1.69-.87-2.42-.49-.77-1.17-1.4-2.04-1.87-.87-.47-1.93-.7-3.24-.7h0ZM127.63,33.1c.06-.09.13-.18.2-.28.14-.19.33-.38.56-.57.2-.16.45-.31.73-.42.22-.09.5-.14.85-.14.05,0,.09,0,.12,0,0,.02,0,.04,0,.06.03.3.04.61.04.93v13.25c0,.29-.01.61-.04.94-.01.16-.03.31-.05.45-.36.15-.69.38-.95.67-.08.09-.15.18-.21.27-.06-.09-.14-.18-.21-.27-.27-.31-.61-.54-.99-.69-.02-.11-.03-.23-.03-.36-.02-.36-.02-.7-.02-1.02v-12.83h0Z"/>
        </g>
        <g>
          <path class="cls-5" d="M152.21,51.5c-.69,0-1.1-.3-1.33-.55-.29-.33-.44-.72-.44-1.14s.15-.82.44-1.15c.19-.21.52-.47,1.04-.54.02-.06.05-.15.07-.26.06-.27.1-.57.13-.91.03-.36.04-.7.04-1.02v-13.25c0-.35-.02-.69-.04-1.02-.02-.23-.07-.44-.15-.61-.01-.03-.06-.12-.25-.23-.08-.05-.29-.13-.73-.13-.48,0-.89.07-1.23.21-.37.16-.7.35-.98.57-.29.24-.53.49-.73.74-.15.2-.28.39-.4.56v13.14c0,.34,0,.69.02,1.06.01.31.05.59.11.82.03.13.07.23.1.31.53.07.86.32,1.05.54.29.33.45.73.45,1.15,0,.44-.18.86-.51,1.19-.33.33-.77.51-1.26.51h-6.55c-.69,0-1.1-.3-1.33-.55-.29-.33-.44-.72-.44-1.14s.15-.82.44-1.15c.19-.21.5-.45,1.01-.53.03-.08.07-.18.1-.31.06-.23.1-.51.11-.82.02-.37.02-.72.02-1.06v-13.15c-.06-.1-.12-.19-.19-.26-.06-.06-.12-.11-.2-.16-.41-.19-.72-.42-.94-.69-.03-.03-.05-.07-.07-.11-.24-.4-.3-.86-.17-1.29.17-.58.71-.91,1.16-1.14.51-.24.99-.46,1.46-.67.49-.22.95-.41,1.37-.56.41-.15.76-.27,1.06-.37l.51-.17c.87-.31,1.2-.36,1.45-.36,1,0,1.19.99,1.23,1.68.19-.16.4-.32.61-.48.6-.44,1.32-.81,2.13-1.1.83-.29,1.76-.44,2.77-.44,1.14,0,2.05.19,2.77.58.71.39,1.27.9,1.67,1.52.38.6.62,1.28.72,2.01.09.64.13,1.28.13,1.89v13.25c0,.34,0,.69.02,1.06.01.33.05.62.1.87.02.11.05.2.07.26.52.07.85.32,1.04.54.29.33.45.73.45,1.15,0,.44-.18.86-.51,1.19-.33.33-.77.51-1.26.51h-6.17Z"/>
          <path class="cls-4" d="M153.17,27.67c.96,0,1.73.15,2.29.46.56.3,1,.7,1.3,1.18.3.48.5,1.02.58,1.61.08.59.12,1.18.12,1.76v13.25c0,.35,0,.72.02,1.11.02.39.06.73.12,1.04.06.31.16.55.29.75.13.19.29.29.48.29.26,0,.45.07.58.22.13.14.19.31.19.48s-.07.34-.22.48-.33.22-.55.22h-6.17c-.26,0-.45-.07-.58-.22-.13-.14-.19-.3-.19-.48s.06-.34.19-.48c.13-.14.32-.22.58-.22.19,0,.35-.1.48-.29.13-.19.22-.44.29-.75.06-.3.11-.65.14-1.04.03-.38.05-.75.05-1.11v-13.25c0-.38-.02-.75-.05-1.11-.03-.35-.11-.67-.24-.94-.13-.27-.35-.5-.65-.67s-.71-.27-1.23-.27c-.61,0-1.15.1-1.61.29-.47.19-.88.43-1.23.72-.35.29-.65.59-.89.92-.24.32-.44.61-.6.87v13.44c0,.35,0,.72.02,1.11.02.39.06.73.14,1.04.08.31.18.55.31.75.13.19.29.29.48.29.26,0,.45.07.58.22.13.14.19.31.19.48s-.07.34-.22.48-.33.22-.55.22h-6.55c-.26,0-.45-.07-.58-.22-.13-.14-.19-.3-.19-.48s.06-.34.19-.48c.13-.14.32-.22.58-.22.19,0,.34-.1.46-.29.11-.19.21-.44.29-.75.08-.3.13-.65.14-1.04.02-.38.02-.75.02-1.11v-13.15c0-.19-.05-.37-.14-.53-.1-.16-.21-.3-.34-.43-.13-.13-.27-.24-.43-.34-.29-.13-.5-.27-.63-.43-.1-.16-.12-.32-.07-.48.05-.16.26-.34.65-.53.48-.22.96-.44,1.42-.65.47-.21.9-.39,1.3-.53.4-.14.75-.26,1.04-.36.29-.1.48-.16.58-.19.55-.19.9-.29,1.06-.29s.24.37.24,1.11v2.12c.19-.29.47-.63.84-1.04.37-.4.82-.79,1.35-1.18s1.16-.71,1.88-.96c.72-.26,1.53-.39,2.43-.39M153.17,25.67c-1.12,0-2.17.17-3.1.5-.67.24-1.28.53-1.83.86-.48-.86-1.26-1.03-1.81-1.03-.42,0-.89.11-1.72.4h-.04s-.5.18-.5.18c-.31.1-.67.23-1.08.38-.45.16-.93.36-1.44.59-.47.21-.96.43-1.45.66-.02,0-.03.02-.05.02-.58.29-1.39.79-1.67,1.75-.21.7-.11,1.44.28,2.09.04.07.09.14.15.21.28.35.65.65,1.11.89v12.75c0,.33,0,.67-.02,1.03,0,.14-.02.26-.03.38-.36.15-.68.38-.93.67-.45.51-.69,1.14-.69,1.81s.24,1.3.7,1.81c.51.57,1.24.89,2.07.89h6.55c.75,0,1.45-.29,1.97-.8.12-.12.22-.24.31-.37.07.1.14.19.22.28.51.57,1.24.89,2.07.89h6.17c.75,0,1.45-.29,1.97-.8.52-.52.8-1.19.8-1.9,0-.67-.24-1.29-.7-1.81-.26-.29-.58-.52-.94-.67-.01-.12-.02-.24-.03-.37-.02-.36-.02-.7-.02-1.03v-13.25c0-.66-.05-1.34-.14-2.02-.12-.88-.41-1.69-.87-2.42-.49-.77-1.17-1.4-2.04-1.87-.87-.47-1.93-.7-3.24-.7h0ZM148.67,33.1c.06-.09.13-.18.2-.28.14-.19.33-.38.56-.57.2-.16.45-.31.73-.42.22-.09.5-.14.85-.14.05,0,.09,0,.12,0,0,.02,0,.04,0,.06.03.3.04.61.04.93v13.25c0,.29-.01.61-.04.94-.01.16-.03.31-.05.45-.36.15-.69.38-.95.67-.08.09-.15.18-.21.27-.06-.09-.14-.18-.21-.27-.27-.31-.61-.54-.99-.69-.02-.11-.03-.23-.03-.36-.02-.36-.02-.7-.02-1.02v-12.83h0Z"/>
        </g>
        <g>
          <path class="cls-5" d="M169.22,51.89c-1.73,0-3.25-.35-4.49-1.04-1.29-.72-2.36-1.7-3.17-2.92-.78-1.18-1.37-2.57-1.75-4.12-.37-1.51-.57-3.14-.61-4.84-.03-1.68.19-3.27.68-4.74.49-1.48,1.2-2.78,2.11-3.87.92-1.1,2.02-1.97,3.29-2.59,1.27-.63,2.66-.95,4.13-.95,2.64,0,4.7.61,6.13,1.8,1.48,1.24,2.24,2.84,2.24,4.75,0,1.42-.27,2.63-.79,3.61-.52.97-1.21,1.76-2.04,2.35-.8.57-1.71.99-2.7,1.26-.93.25-1.86.43-2.78.54-.78.09-1.53.13-2.23.13,0,0-.94-.02-1.19-.02.03.61.07,1.25.14,1.9.1.99.31,1.93.62,2.78.29.8.68,1.46,1.16,1.97.39.41.88.6,1.54.6,1.11,0,2.01-.16,2.69-.46.68-.31,1.22-.69,1.6-1.14.39-.46.67-.96.84-1.48.18-.56.27-1.09.27-1.6,0-.77.58-1.34,1.39-1.34s1.34.56,1.34,1.34c0,1.26-.22,2.4-.66,3.41-.44,1-1.03,1.86-1.77,2.56-.74.7-1.62,1.23-2.61,1.59-.97.35-2.03.52-3.13.52h-.23ZM169.41,29.35c-.53,0-.93.15-1.28.46-.42.38-.77.88-1.03,1.49-.29.67-.51,1.41-.66,2.21-.15.85-.26,1.67-.32,2.45-.06.79-.09,1.5-.09,2.11v.23c.18-.02.38-.04.61-.07.65-.08,1.33-.3,2.02-.67.67-.35,1.26-.86,1.76-1.52.46-.61.69-1.51.69-2.7,0-1.26-.19-2.33-.56-3.15-.34-.75-.75-.85-1.14-.85Z"/>
          <path class="cls-4" d="M169.41,27.81c2.41,0,4.24.52,5.49,1.57,1.25,1.05,1.88,2.37,1.88,3.98,0,1.25-.22,2.3-.67,3.14s-1.03,1.5-1.73,2c-.71.5-1.5.87-2.38,1.11-.88.24-1.76.41-2.62.51-.74.08-1.45.12-2.12.12-.11,0-.23,0-.34,0-.77-.02-1.4-.02-1.88-.02,0,.93.06,1.94.17,3.02.11,1.08.34,2.08.67,3.02.34.93.79,1.71,1.37,2.32.58.61,1.33.92,2.26.92,1.25,0,2.29-.18,3.11-.55.82-.37,1.47-.83,1.95-1.4.48-.56.83-1.17,1.04-1.83.21-.66.31-1.29.31-1.9,0-.22.13-.34.39-.34.22,0,.34.11.34.34,0,1.12-.19,2.13-.58,3.01-.39.88-.9,1.63-1.54,2.23-.64.6-1.4,1.06-2.26,1.37-.87.31-1.8.47-2.79.47-.08,0-.15,0-.23,0-1.57,0-2.9-.31-4.01-.92-1.16-.64-2.1-1.51-2.82-2.6-.72-1.09-1.26-2.36-1.61-3.8-.35-1.44-.55-2.99-.58-4.62-.03-1.57.18-3.04.63-4.41.45-1.36,1.09-2.54,1.93-3.54.83-1,1.82-1.77,2.96-2.34,1.14-.56,2.37-.84,3.68-.84M165.02,39.37c.39,0,.96-.05,1.73-.14.77-.1,1.56-.35,2.36-.77.8-.42,1.5-1.02,2.1-1.81.59-.79.89-1.89.89-3.3s-.22-2.6-.65-3.56-1.12-1.44-2.05-1.44c-.77,0-1.42.24-1.95.72s-.96,1.09-1.28,1.83c-.32.74-.56,1.55-.72,2.43-.16.88-.27,1.73-.34,2.55-.06.82-.1,1.55-.1,2.19v1.3M169.41,25.81c-1.62,0-3.16.35-4.57,1.05-1.39.68-2.6,1.64-3.61,2.84-.99,1.19-1.77,2.6-2.29,4.2-.52,1.57-.76,3.28-.73,5.07.03,1.77.25,3.48.64,5.06.41,1.66,1.04,3.15,1.89,4.43.9,1.36,2.08,2.45,3.52,3.25,1.4.78,3.07,1.17,4.98,1.17.09,0,.18,0,.27,0h0c1.18,0,2.34-.2,3.43-.58,1.12-.4,2.12-1.01,2.96-1.8.84-.79,1.51-1.76,2-2.89.49-1.13.74-2.41.74-3.81s-1-2.34-2.34-2.34-2.39,1-2.39,2.34c0,.4-.07.84-.22,1.3-.13.4-.34.77-.65,1.13-.29.34-.71.63-1.25.87-.56.25-1.32.38-2.29.38-.47,0-.67-.14-.81-.29-.38-.41-.7-.95-.94-1.62-.28-.78-.47-1.63-.57-2.54-.03-.26-.05-.53-.07-.78.04,0,.09,0,.13,0,.74,0,1.52-.05,2.34-.14.97-.11,1.96-.3,2.93-.57,1.1-.3,2.11-.77,3.01-1.4.96-.68,1.75-1.58,2.34-2.69.61-1.13.91-2.5.91-4.08,0-2.19-.9-4.1-2.6-5.52-1.62-1.35-3.9-2.03-6.77-2.03h0ZM167.04,37.14c.02-.35.04-.71.07-1.1.06-.75.16-1.54.31-2.35.13-.73.33-1.4.59-1.99.21-.48.47-.86.79-1.15.12-.1.27-.2.61-.2.06,0,.08,0,.08,0,0,0,.06.08.14.26.31.7.47,1.62.47,2.74,0,.95-.17,1.67-.49,2.09-.42.55-.88.96-1.42,1.24-.39.21-.78.36-1.15.46h0Z"/>
        </g>
        <g>
          <path class="cls-5" d="M188.09,51.84c-1.75,0-3.3-.32-4.6-.94-1.32-.63-2.42-1.54-3.26-2.69-.83-1.13-1.45-2.52-1.83-4.14-.37-1.56-.56-3.31-.56-5.21,0-1.69.27-3.27.81-4.71.54-1.44,1.27-2.7,2.18-3.75.92-1.06,2-1.9,3.23-2.5,1.24-.61,2.58-.92,3.98-.92s2.69.2,3.76.59c1.08.4,2,.93,2.73,1.59.75.67,1.32,1.45,1.69,2.32.38.86.56,1.76.56,2.66,0,1.06-.25,1.98-.74,2.74-.58.89-1.57,1.35-2.96,1.35-.44,0-.92-.1-1.4-.29-.55-.22-1.01-.58-1.36-1.07-.36-.5-.55-1.13-.57-1.88-.02-.71.19-1.53.65-2.52.15-.32.25-.69.3-1.1.04-.31,0-.58-.12-.83-.11-.22-.35-.43-.71-.62-.27-.14-.82-.32-1.84-.32-.85,0-1.46.23-1.86.7-.49.58-.84,1.33-1.04,2.23-.22.99-.35,2.08-.36,3.26-.02,1.25-.02,2.4-.02,3.45,0,.96.03,2.02.09,3.17.06,1.11.23,2.18.5,3.16.25.92.63,1.7,1.12,2.31.39.48.9.71,1.63.71,1.06,0,1.97-.18,2.7-.53.74-.36,1.36-.81,1.83-1.33.47-.53.83-1.11,1.06-1.73.23-.62.35-1.19.35-1.68,0-.82.57-1.39,1.39-1.39s1.39.58,1.39,1.39c0,.86-.19,1.8-.57,2.79-.38.98-.93,1.91-1.64,2.75-.73.85-1.64,1.56-2.71,2.12-1.1.57-2.38.86-3.78.86Z"/>
          <path class="cls-4" d="M188.04,27.96c1.32,0,2.46.18,3.42.53.96.35,1.77.82,2.41,1.4.64.58,1.12,1.24,1.44,1.97.32.74.48,1.49.48,2.26,0,.87-.19,1.6-.58,2.19s-1.09.89-2.12.89c-.32,0-.67-.07-1.04-.22s-.67-.38-.92-.72c-.24-.34-.37-.78-.39-1.32-.02-.55.17-1.24.55-2.07.19-.42.32-.88.39-1.4.06-.51,0-.98-.22-1.4-.21-.42-.59-.77-1.13-1.06-.55-.29-1.32-.43-2.31-.43-1.16,0-2.03.35-2.62,1.06-.59.71-1.01,1.59-1.25,2.65s-.37,2.21-.39,3.47c-.02,1.25-.02,2.41-.02,3.47,0,.96.03,2.04.1,3.23.06,1.19.24,2.31.53,3.37s.72,1.95,1.3,2.67c.58.72,1.38,1.08,2.41,1.08,1.22,0,2.26-.21,3.13-.63.87-.42,1.58-.94,2.14-1.57.56-.63.98-1.31,1.25-2.05.27-.74.41-1.41.41-2.02,0-.26.13-.39.39-.39s.39.13.39.39c0,.74-.17,1.55-.51,2.43-.34.88-.83,1.7-1.47,2.46-.64.75-1.44,1.38-2.41,1.88-.96.5-2.07.75-3.32.75-1.61,0-2.99-.28-4.17-.84-1.17-.56-2.14-1.36-2.89-2.38-.75-1.03-1.31-2.29-1.66-3.78-.35-1.49-.53-3.15-.53-4.98,0-1.57.25-3.03.75-4.36.5-1.33,1.16-2.48,2-3.44.83-.96,1.81-1.72,2.91-2.26,1.11-.54,2.29-.82,3.54-.82M188.04,25.96c-1.55,0-3.04.34-4.42,1.02-1.35.67-2.54,1.59-3.54,2.75-.99,1.14-1.78,2.5-2.36,4.05-.58,1.55-.87,3.25-.87,5.06,0,1.98.2,3.81.58,5.45.41,1.75,1.08,3.26,2,4.5.95,1.29,2.17,2.3,3.64,3,1.44.69,3.13,1.04,5.03,1.04,1.57,0,2.99-.33,4.24-.97,1.19-.62,2.2-1.41,3.01-2.36.79-.93,1.4-1.95,1.82-3.04.42-1.11.64-2.16.64-3.14,0-1.36-1.03-2.39-2.39-2.39s-2.39,1.03-2.39,2.39c0,.37-.1.82-.29,1.33-.19.5-.47.96-.87,1.4-.38.43-.9.8-1.52,1.1-.59.28-1.35.43-2.26.43-.53,0-.72-.17-.85-.33-.4-.5-.72-1.16-.93-1.95-.25-.92-.41-1.91-.46-2.95-.06-1.13-.09-2.18-.09-3.12,0-1.05,0-2.2.02-3.44.01-1.11.13-2.13.34-3.05.17-.75.44-1.34.83-1.81.08-.09.29-.35,1.09-.35.92,0,1.29.15,1.38.2.23.12.29.2.29.2,0,0,.03.07.01.24-.04.31-.11.58-.22.8-.52,1.13-.76,2.11-.74,2.97.03.95.28,1.76.76,2.43.47.66,1.08,1.13,1.81,1.42.6.24,1.19.35,1.76.35,2.17,0,3.26-.98,3.8-1.8.6-.92.9-2.02.9-3.28,0-1.04-.22-2.07-.65-3.06-.44-1-1.09-1.9-1.94-2.66-.83-.75-1.86-1.35-3.06-1.79-1.18-.43-2.57-.65-4.11-.65h0Z"/>
        </g>
        <g>
          <path class="cls-5" d="M205.24,51.5c-1.59,0-2.94-.55-4.03-1.64-1.09-1.09-1.64-2.44-1.64-4.03v-15.33h-1.94c-.44,0-.84-.15-1.17-.45-.35-.31-.55-.75-.55-1.23s.18-.88.51-1.21c.33-.33.75-.51,1.21-.51.08,0,.42-.03,1.19-.39.62-.29,1.25-.68,1.89-1.16.6-.46,1.13-1.02,1.57-1.65.38-.56.57-1.1.57-1.67,0-.44.15-.84.45-1.17.31-.35.75-.55,1.23-.55s.88.18,1.21.51c.33.33.51.75.51,1.21v4.14c0,.46.06.61.06.62.12.01.37.08.89.09.51.02,1.17.02,1.99.02.46,0,.88.18,1.21.51.33.33.51.75.51,1.21s-.2.91-.55,1.23c-.32.29-.73.44-1.17.44h-2.95v15.18c0,.7.11,1.1.2,1.3.14.31.3.55.47.71.17.16.32.26.49.31.27.08.43.1.49.1.69,0,1.1.3,1.33.55.29.33.45.73.45,1.15,0,.44-.18.86-.51,1.19-.33.33-.77.51-1.26.51h-2.65Z"/>
          <path class="cls-4" d="M204.52,21.51c.19,0,.36.07.51.22s.22.31.22.51v4.14c0,.45.05.79.14,1.01.1.23.29.39.58.51.29.11.69.18,1.2.19.51.02,1.19.02,2.02.02.19,0,.36.07.51.22s.22.31.22.51-.07.35-.22.48c-.14.13-.31.19-.51.19h-3.95v16.18c0,.71.1,1.28.29,1.71.19.43.42.78.7,1.04.27.26.56.43.87.53.3.1.57.14.79.14.26,0,.45.07.58.22.13.14.19.31.19.48s-.07.34-.22.48-.33.22-.55.22h-2.65c-1.32,0-2.42-.45-3.32-1.35-.9-.9-1.35-2.01-1.35-3.32v-16.33h-2.94c-.19,0-.36-.06-.51-.19-.14-.13-.22-.29-.22-.48s.07-.36.22-.51c.14-.14.31-.22.51-.22.39,0,.92-.16,1.61-.48s1.38-.75,2.07-1.28c.69-.53,1.28-1.16,1.78-1.88.5-.72.75-1.47.75-2.24,0-.19.06-.36.19-.51.13-.14.29-.22.48-.22M204.52,19.51c-.77,0-1.47.32-1.98.89-.45.51-.7,1.14-.7,1.83,0,.36-.13.72-.39,1.1-.38.55-.83,1.03-1.35,1.43-.57.44-1.14.79-1.7,1.05-.57.27-.8.3-.81.3h0c-.68,0-1.36.28-1.88.8-.52.52-.8,1.2-.8,1.92,0,.77.32,1.47.89,1.98.51.46,1.15.7,1.83.7h.94v14.33c0,1.86.65,3.46,1.94,4.74,1.26,1.26,2.9,1.93,4.74,1.93h2.65c.75,0,1.45-.28,1.97-.8s.8-1.19.8-1.9c0-.67-.24-1.29-.7-1.81-.51-.57-1.25-.89-2.07-.89,0,0-.06,0-.2-.05h0s-.03-.02-.09-.08c-.03-.03-.13-.13-.24-.39-.03-.06-.12-.31-.12-.9v-14.18h1.95c.69,0,1.32-.24,1.84-.7.57-.5.89-1.21.89-1.97,0-.72-.28-1.4-.8-1.92-.52-.52-1.2-.8-1.92-.8-.8,0-1.45,0-1.95-.02v-3.85c0-.72-.29-1.4-.8-1.92-.52-.52-1.2-.8-1.92-.8h0Z"/>
        </g>
        <g>
          <path class="cls-5" d="M218.93,51.89c-1.73,0-3.25-.35-4.49-1.04-1.29-.72-2.36-1.7-3.17-2.92-.78-1.18-1.37-2.57-1.75-4.12-.37-1.51-.57-3.14-.61-4.84-.03-1.68.19-3.27.68-4.74.49-1.48,1.2-2.78,2.11-3.87.92-1.1,2.02-1.97,3.29-2.59,1.27-.63,2.66-.95,4.13-.95,2.64,0,4.7.61,6.13,1.8,1.48,1.24,2.24,2.84,2.24,4.75,0,1.42-.27,2.63-.79,3.61-.52.97-1.21,1.76-2.04,2.35-.8.57-1.71.99-2.7,1.26-.93.25-1.86.43-2.78.54-.78.09-1.53.13-2.23.13,0,0-.94-.02-1.19-.02.03.61.07,1.25.14,1.9.1.99.31,1.93.62,2.78.29.8.68,1.46,1.16,1.97.39.41.88.6,1.54.6,1.11,0,2.01-.16,2.69-.46.68-.31,1.22-.69,1.6-1.14.39-.46.67-.96.84-1.48.18-.56.27-1.09.27-1.6,0-.77.58-1.34,1.39-1.34s1.34.56,1.34,1.34c0,1.26-.22,2.4-.66,3.41-.44,1-1.03,1.86-1.77,2.56-.74.7-1.62,1.23-2.61,1.59-.97.35-2.03.52-3.13.52h-.23ZM219.11,29.35c-.53,0-.93.15-1.28.46-.42.38-.77.88-1.03,1.49-.29.67-.51,1.41-.66,2.21-.15.85-.26,1.67-.32,2.45-.06.79-.09,1.5-.09,2.11v.23c.18-.02.38-.04.61-.07.65-.08,1.33-.3,2.02-.67.67-.35,1.26-.86,1.76-1.52.46-.61.69-1.51.69-2.7,0-1.26-.19-2.33-.56-3.15-.34-.75-.75-.85-1.14-.85Z"/>
          <path class="cls-4" d="M219.11,27.81c2.41,0,4.24.52,5.49,1.57,1.25,1.05,1.88,2.37,1.88,3.98,0,1.25-.22,2.3-.67,3.14s-1.03,1.5-1.73,2c-.71.5-1.5.87-2.38,1.11-.88.24-1.76.41-2.62.51-.74.08-1.45.12-2.12.12-.11,0-.23,0-.34,0-.77-.02-1.4-.02-1.88-.02,0,.93.06,1.94.17,3.02.11,1.08.34,2.08.67,3.02.34.93.79,1.71,1.37,2.32.58.61,1.33.92,2.26.92,1.25,0,2.29-.18,3.11-.55.82-.37,1.47-.83,1.95-1.4.48-.56.83-1.17,1.04-1.83.21-.66.31-1.29.31-1.9,0-.22.13-.34.39-.34.22,0,.34.11.34.34,0,1.12-.19,2.13-.58,3.01-.39.88-.9,1.63-1.54,2.23-.64.6-1.4,1.06-2.26,1.37-.87.31-1.8.47-2.79.47-.08,0-.15,0-.23,0-1.57,0-2.9-.31-4.01-.92-1.16-.64-2.1-1.51-2.82-2.6-.72-1.09-1.26-2.36-1.61-3.8-.35-1.44-.55-2.99-.58-4.62-.03-1.57.18-3.04.63-4.41.45-1.36,1.09-2.54,1.93-3.54.83-1,1.82-1.77,2.96-2.34,1.14-.56,2.37-.84,3.68-.84M214.73,39.37c.39,0,.96-.05,1.73-.14.77-.1,1.56-.35,2.36-.77.8-.42,1.5-1.02,2.1-1.81.59-.79.89-1.89.89-3.3s-.22-2.6-.65-3.56-1.12-1.44-2.05-1.44c-.77,0-1.42.24-1.95.72s-.96,1.09-1.28,1.83c-.32.74-.56,1.55-.72,2.43-.16.88-.27,1.73-.34,2.55-.06.82-.1,1.55-.1,2.19v1.3M219.11,25.81c-1.62,0-3.16.35-4.57,1.05-1.39.68-2.6,1.64-3.61,2.84-.99,1.19-1.77,2.6-2.29,4.2-.52,1.57-.76,3.28-.73,5.07.03,1.77.25,3.48.64,5.06.41,1.66,1.04,3.15,1.89,4.43.9,1.36,2.08,2.45,3.52,3.25,1.4.78,3.07,1.17,4.98,1.17.09,0,.18,0,.27,0h0c1.18,0,2.34-.2,3.43-.58,1.12-.4,2.12-1.01,2.96-1.8.84-.79,1.51-1.76,2-2.89.49-1.13.74-2.41.74-3.81s-1-2.34-2.34-2.34-2.39,1-2.39,2.34c0,.4-.07.84-.22,1.3-.13.4-.34.77-.65,1.13-.29.34-.71.63-1.25.87-.56.25-1.32.38-2.29.38-.47,0-.67-.14-.81-.29-.38-.41-.7-.95-.94-1.62-.28-.78-.47-1.63-.57-2.54-.03-.26-.05-.53-.07-.78.04,0,.09,0,.13,0,.74,0,1.52-.05,2.34-.14.97-.11,1.96-.3,2.93-.57,1.1-.3,2.11-.77,3.01-1.4.96-.68,1.75-1.58,2.34-2.69.61-1.13.91-2.5.91-4.08,0-2.19-.9-4.1-2.6-5.52-1.62-1.35-3.9-2.03-6.77-2.03h0ZM216.75,37.14c.02-.35.04-.71.07-1.1.06-.75.16-1.54.31-2.35.13-.73.33-1.4.59-1.99.21-.48.47-.86.79-1.15.12-.1.27-.2.61-.2.06,0,.08,0,.08,0,0,0,.06.08.14.26.31.7.47,1.62.47,2.74,0,.95-.17,1.67-.49,2.09-.42.55-.88.96-1.42,1.24-.39.21-.78.36-1.15.46h0Z"/>
        </g>
        <g>
          <path class="cls-5" d="M229.17,51.5c-.69,0-1.1-.3-1.33-.55-.29-.33-.44-.72-.44-1.14s.15-.82.45-1.15c.17-.19.45-.41.88-.5.08-.25.13-.51.18-.79.1-.45.15-.93.18-1.49v-13.63s-.11-.13-.19-.21c-.08-.08-.16-.16-.26-.24-.38-.18-.67-.4-.87-.67-.03-.03-.05-.07-.07-.11-.24-.4-.3-.86-.17-1.28.18-.58.71-.91,1.16-1.14l2.82-1.7c.39-.26.87-.41,1.37-.41.21,0,.43.03.64.08.69.17,1.26.57,1.65,1.16.2.33.35.68.44,1.08.22-.18.46-.35.71-.53.57-.39,1.21-.73,1.9-1.02.74-.31,1.53-.46,2.33-.46,1.34,0,2.49.5,3.4,1.47.9.96,1.35,2.08,1.35,3.33,0,1.14-.32,2.1-.96,2.84-.67.78-1.51,1.19-2.45,1.19-.54,0-1.05-.11-1.52-.34-.48-.23-.87-.54-1.16-.93-.31-.41-.49-.9-.53-1.45-.05-.55.08-1.15.39-1.76.34-.66.39-.99.39-1.12-.25,0-.67.1-1.43.54-.66.38-1.42.96-2.26,1.75v13.59c.03.5.09.98.17,1.38.05.34.11.61.18.83.46.09.76.32.94.52.29.33.45.73.45,1.15,0,.44-.18.86-.51,1.19-.33.33-.77.51-1.26.51h-6.55Z"/>
          <path class="cls-4" d="M232.87,27.5c.13,0,.26.02.4.05.45.11.8.36,1.06.75.16.26.27.57.34.94.06.37.1.94.1,1.71.16-.16.43-.42.79-.77.37-.35.81-.71,1.32-1.06.51-.35,1.08-.66,1.71-.92.63-.26,1.28-.39,1.95-.39,1.06,0,1.95.39,2.67,1.16.72.77,1.08,1.65,1.08,2.65,0,.9-.24,1.63-.72,2.19-.48.56-1.04.84-1.69.84-.39,0-.75-.08-1.08-.24-.34-.16-.6-.37-.79-.63-.19-.26-.31-.57-.34-.94-.03-.37.06-.78.29-1.23.42-.8.57-1.43.46-1.88-.11-.45-.42-.68-.92-.7-.02,0-.03,0-.05,0-.49,0-1.13.23-1.92.67-.82.47-1.74,1.2-2.77,2.19v14.02c.03.61.1,1.14.19,1.59.06.42.15.79.26,1.11.11.32.28.48.51.48.26,0,.45.07.58.22.13.14.19.31.19.48s-.07.34-.22.48-.33.22-.55.22h-6.55c-.26,0-.45-.07-.58-.22-.13-.14-.19-.3-.19-.48s.06-.34.19-.48c.13-.14.32-.22.58-.22.19,0,.34-.16.46-.48.11-.32.2-.69.27-1.11.1-.45.16-.98.19-1.59v-13.68c0-.19-.05-.36-.14-.51-.1-.14-.21-.28-.34-.41-.13-.13-.27-.26-.43-.38-.29-.13-.5-.27-.63-.43-.1-.16-.12-.32-.07-.48.05-.16.26-.34.65-.53l2.89-1.73c.27-.18.55-.27.85-.27M232.87,25.5c-.67,0-1.33.2-1.91.57l-2.8,1.68c-.57.29-1.32.79-1.6,1.7-.21.7-.11,1.45.27,2.09.04.07.09.15.15.21.28.35.64.64,1.1.88,0,0,0,0,.01.01v13.22c-.03.48-.08.89-.15,1.22,0,.04-.01.07-.02.11,0,.06-.02.13-.03.19-.3.15-.57.35-.79.6-.45.51-.7,1.14-.7,1.81s.24,1.3.7,1.81c.5.57,1.24.89,2.07.89h6.55c.75,0,1.45-.29,1.97-.8.52-.52.8-1.19.8-1.9,0-.67-.24-1.29-.7-1.81-.24-.27-.52-.48-.84-.63,0-.05-.02-.1-.03-.16,0-.04-.01-.08-.02-.12-.07-.33-.12-.74-.15-1.22v-13.09c.35-.31.67-.58.98-.81-.07.36-.09.71-.06,1.05.06.74.31,1.4.73,1.96.39.52.91.93,1.54,1.23.6.29,1.26.43,1.94.43.86,0,2.11-.27,3.2-1.54.8-.93,1.2-2.11,1.2-3.49,0-1.49-.56-2.88-1.62-4.02-1.1-1.17-2.53-1.79-4.13-1.79-.93,0-1.84.18-2.71.54-.64.26-1.24.57-1.79.92,0-.01-.01-.02-.02-.03-.01-.02-.02-.04-.03-.05-.53-.8-1.31-1.34-2.24-1.57-.3-.07-.59-.11-.89-.11h0Z"/>
        </g>
      </g>
    </g>
  </g>
</svg>