<?xml version="1.0" encoding="UTF-8"?>
<svg id="connecter-tel-code" xmlns="http://www.w3.org/2000/svg" viewBox="0 0 305.49 160.66">
  <defs>
    <style>
      .cls-1 {
        letter-spacing: -.04em;
      }

      .cls-2 {
        fill: none;
        stroke: #fff4e3;
      }

      .cls-2, .cls-3 {
        stroke-miterlimit: 10;
      }

      .cls-3 {
        fill: #4c4179;
        stroke: #242234;
        stroke-width: 3px;
      }

      .cls-4 {
        letter-spacing: 0em;
      }

      .cls-5 {
        font-family: Alpino-Medium, Alpino;
        font-size: 38.83px;
        font-weight: 500;
      }

      .cls-5, .cls-6 {
        fill: #fff4e3;
      }

      .cls-6 {
        stroke-width: 0px;
      }
    </style>
  </defs>
  <g id="haut-4" data-name="haut">
    <path class="cls-3" d="M152.08,119.35c-50.14,5.31-97.74,14.7-140.1,38.7-4.75,2.69-10.48-1.02-10.48-6.75v-39.67h.38V9.12C1.88,4.91,5.09,1.5,9.04,1.5h287.79c3.95,0,7.16,3.41,7.16,7.62v109.14h-.37v33.25c0,5.73-5.73,9.45-10.48,6.75-42.86-24.32-90.7-33.6-141.6-38.87"/>
  </g>
  <text class="cls-5" transform="translate(138.89 73.22)"><tspan x="0" y="0">RE</tspan><tspan class="cls-1" x="46.71" y="0">T</tspan><tspan class="cls-4" x="68.45" y="0">OUR</tspan></text>
  <g>
    <path class="cls-2" d="M104.05,73.22s.02.01.03.02c1.68,1.18,2.97,2.93,3.54,5.07,1.29,4.83-1.58,9.8-6.42,11.09-4.83,1.29-7.85.39-16.94-9.03"/>
    <path class="cls-2" d="M93.7,81.37c-.08-.21-.15-.43-.21-.66-.98-3.69,1.21-7.47,4.89-8.46,2.03-.54,4.1-.12,5.71.99"/>
    <circle class="cls-6" cx="97.13" cy="79.85" r="4.27"/>
    <path class="cls-2" d="M104.05,50.52s.02-.01.03-.02c1.68-1.18,2.97-2.93,3.54-5.07,1.29-4.83-1.58-9.8-6.42-11.09s-7.85-.39-16.94,9.03"/>
    <path class="cls-2" d="M93.7,42.38c-.08.21-.15.43-.21.66-.98,3.69,1.21,7.47,4.89,8.46,2.03.54,4.1.12,5.71-.99"/>
    <circle class="cls-6" cx="97.13" cy="43.89" r="4.27"/>
    <path class="cls-6" d="M17.7,61.38c5.8-.96,11.8-1.65,17.87-2.37,3.03-.36,6.09-.71,9.14-1.11,14.49-.66,29.37-5.98,41.07-16.61-5.32,13.82-4.25,28.71,1.06,42.53-12.76-11.7-29.77-13.82-45.32-17.6-2.94-.54-5.9-1.07-8.85-1.59s-5.92-1.04-8.88-1.58c-3.67-.98-6.09-1.68-6.09-1.68Z"/>
  </g>
</svg>