<?xml version="1.0" encoding="UTF-8"?>
<svg id="pseudo2" xmlns="http://www.w3.org/2000/svg" xmlns:xlink="http://www.w3.org/1999/xlink" viewBox="0 0 280.09 120.65">
  <defs>
    <style>
      .cls-1 {
        stroke-linecap: round;
        stroke-linejoin: round;
      }

      .cls-1, .cls-2 {
        stroke: #252422;
        stroke-width: 4px;
      }

      .cls-1, .cls-3 {
        fill: #eeebe9;
      }

      .cls-2 {
        fill: url(#Dégradé_sans_nom_2);
        stroke-miterlimit: 10;
      }

      .cls-4 {
        fill: #252422;
      }

      .cls-4, .cls-3 {
        stroke-width: 0px;
      }
    </style>
    <radialGradient id="Dégradé_sans_nom_2" data-name="Dégradé sans nom 2" cx="140.04" cy="-66.39" fx="140.04" fy="-66.39" r="95.24" gradientTransform="translate(0 113.55) scale(1 .74)" gradientUnits="userSpaceOnUse">
      <stop offset="0" stop-color="#7f7fc9"/>
      <stop offset="1" stop-color="#5e548b"/>
    </radialGradient>
  </defs>
  <g id="btn-servir">
    <rect class="cls-1" x="2" y="2" width="276.09" height="116.65" rx="25.78" ry="25.78"/>
    <ellipse class="cls-4" cx="62.41" cy="25.54" rx="15.51" ry="6.41"/>
    <path class="cls-2" d="M254.17,101.25c-13.22-.01-26.87-.01-39.33-.02H47.72c-10.67-1.69-32,3.42-31.15-3.4,3.41-22.18,11.09-40.95-.85-63.99-5.12-11.09,21.33-4.27,32-6.96h167.12c14.16.99,28.67-1.57,44.02.99,3.41.85,3.41,5.97,1.71,8.53-23.04,17.92-20.48,38.39,3.41,55.46,3.41,2.56-2.56,5.97-4.51,8.33-1.56.69-3.36,1.07-5.31,1.07Z"/>
    <g>
      <g>
        <path class="cls-4" d="M62.9,83.26c-2,0-4.05-.26-6.08-.78-2.04-.52-3.94-1.29-5.65-2.3-1.74-1.03-3.18-2.34-4.28-3.88-1.14-1.6-1.72-3.49-1.72-5.63,0-1.76.33-3.27.99-4.49.65-1.21,1.47-2.17,2.45-2.87.98-.7,2.08-1.13,3.26-1.29.38-.05.76-.08,1.13-.08.75,0,1.47.11,2.16.32,1.11.35,2,1.03,2.65,2.02.62.95.97,1.99,1.03,3.1.07,1.12-.2,2.25-.78,3.34-.6,1.13-1.62,2.04-3.04,2.68-.96.46-1.5,1-1.63,1.65-.13.66.07,1.31.62,1.99.63.78,1.7,1.47,3.16,2.07,1.5.61,3.42.92,5.71.92,2.06,0,3.73-.39,4.97-1.17,1.25-.78,2.13-1.76,2.68-3,.56-1.25.8-2.68.7-4.24-.1-1.62-.51-3.23-1.2-4.79-.7-1.57-1.71-3.08-3.01-4.49-1.28-1.39-2.85-2.51-4.65-3.33-2.27-1.05-4.43-2.13-6.44-3.22-2.05-1.11-3.87-2.4-5.42-3.83-1.58-1.46-2.83-3.15-3.74-5.02-.92-1.89-1.38-4.16-1.38-6.73,0-2.44.41-4.72,1.23-6.78.82-2.07,1.99-3.91,3.48-5.46,1.5-1.56,3.31-2.79,5.38-3.66,2.08-.88,4.42-1.32,6.97-1.32,2.7,0,5.17.41,7.35,1.22,2.17.81,4.04,1.89,5.56,3.2,1.53,1.33,2.73,2.87,3.56,4.58.83,1.73,1.26,3.49,1.26,5.24s-.25,3.2-.74,4.36c-.5,1.18-1.16,2.14-1.96,2.84-.81.72-1.73,1.2-2.71,1.42-.51.12-1.03.18-1.51.18-.43,0-.85-.05-1.26-.14-1.02-.27-1.95-.81-2.79-1.62-.84-.81-1.42-1.77-1.72-2.86-.3-1.1-.25-2.27.14-3.47.4-1.22,1.3-2.35,2.68-3.36.85-.63,1.38-1.39,1.6-2.32.22-.9.08-1.76-.43-2.61-.53-.89-1.52-1.69-2.96-2.38-1.49-.71-3.53-1.06-6.07-1.06-2.05,0-3.75.43-5.04,1.28-1.31.87-2.24,1.93-2.82,3.25-.6,1.35-.88,2.88-.83,4.57.05,1.71.45,3.42,1.2,5.09.75,1.68,1.84,3.27,3.24,4.72,1.38,1.43,3.1,2.55,5.1,3.32,2.57,1.06,4.93,2.12,7.03,3.14,2.17,1.06,4.05,2.27,5.6,3.62,1.59,1.38,2.83,2.99,3.68,4.79.86,1.81,1.3,4,1.3,6.51,0,2.04-.35,4.07-1.05,6.04-.71,2-1.81,3.81-3.27,5.4-1.47,1.59-3.37,2.88-5.64,3.84-2.27.96-4.99,1.45-8.09,1.45Z"/>
        <path class="cls-3" d="M62.49,23.98c2.59,0,4.93.39,7,1.16,2.07.77,3.82,1.78,5.26,3.02,1.43,1.24,2.54,2.66,3.31,4.26.77,1.6,1.16,3.2,1.16,4.8s-.22,2.93-.66,3.97c-.44,1.05-1.01,1.88-1.7,2.48-.69.61-1.45,1.01-2.28,1.2-.44.1-.87.16-1.29.16-.36,0-.7-.04-1.03-.12-.83-.22-1.6-.68-2.32-1.37-.72-.69-1.2-1.49-1.45-2.4-.25-.91-.21-1.88.12-2.9.33-1.02,1.1-1.97,2.32-2.86,1.05-.77,1.71-1.74,1.99-2.9.28-1.16.1-2.28-.54-3.35-.64-1.08-1.77-2-3.39-2.77-1.63-.77-3.79-1.16-6.5-1.16-2.26,0-4.13.48-5.59,1.45-1.46.97-2.53,2.19-3.19,3.68-.66,1.49-.97,3.16-.91,5.01.05,1.85.48,3.67,1.28,5.46.8,1.79,1.95,3.46,3.44,5.01,1.49,1.55,3.31,2.73,5.46,3.56,2.54,1.05,4.86,2.08,6.95,3.1,2.1,1.02,3.89,2.18,5.38,3.48,1.49,1.3,2.63,2.79,3.44,4.47.8,1.68,1.2,3.71,1.2,6.08,0,1.93-.33,3.84-.99,5.71-.66,1.88-1.68,3.56-3.06,5.05-1.38,1.49-3.15,2.69-5.3,3.6-2.15.91-4.72,1.37-7.7,1.37-1.93,0-3.88-.25-5.84-.75-1.96-.5-3.75-1.23-5.38-2.19-1.63-.97-2.95-2.17-3.97-3.6-1.02-1.43-1.53-3.12-1.53-5.05,0-1.6.29-2.94.87-4.02.58-1.08,1.3-1.92,2.15-2.53.85-.61,1.79-.98,2.81-1.12.34-.05.67-.07.99-.07.65,0,1.27.09,1.86.28.88.28,1.59.81,2.11,1.61.52.8.81,1.67.87,2.61.05.94-.17,1.88-.66,2.81-.5.94-1.35,1.68-2.57,2.24-1.27.61-2,1.39-2.19,2.36-.19.97.08,1.9.83,2.81.75.91,1.93,1.7,3.56,2.36,1.63.66,3.66.99,6.08.99,2.26,0,4.1-.44,5.5-1.32,1.41-.88,2.43-2.03,3.06-3.44.63-1.41.9-2.98.79-4.72-.11-1.74-.54-3.45-1.28-5.13-.75-1.68-1.81-3.27-3.19-4.76-1.38-1.49-3.04-2.68-4.97-3.56-2.26-1.05-4.39-2.11-6.37-3.19-1.99-1.08-3.72-2.3-5.22-3.68-1.49-1.38-2.66-2.95-3.52-4.72-.86-1.77-1.28-3.86-1.28-6.29s.39-4.46,1.16-6.42c.77-1.96,1.86-3.67,3.27-5.13,1.41-1.46,3.09-2.61,5.05-3.44,1.96-.83,4.15-1.24,6.58-1.24M62.49,21.98c-2.69,0-5.16.47-7.36,1.4-2.2.93-4.12,2.24-5.71,3.89-1.58,1.65-2.83,3.59-3.69,5.79-.86,2.18-1.3,4.59-1.3,7.15,0,2.72.5,5.13,1.48,7.16.96,1.98,2.29,3.77,3.96,5.31,1.6,1.49,3.5,2.82,5.62,3.97,2.02,1.1,4.21,2.19,6.49,3.24,1.69.77,3.15,1.82,4.34,3.1,1.22,1.32,2.17,2.74,2.83,4.21.64,1.46,1.02,2.95,1.12,4.45.09,1.42-.11,2.65-.61,3.77-.47,1.05-1.23,1.89-2.3,2.56-1.08.68-2.57,1.02-4.44,1.02-2.16,0-3.95-.28-5.33-.85-1.31-.53-2.24-1.13-2.77-1.77-.52-.64-.45-1-.42-1.15.08-.41.72-.77,1.1-.95,1.59-.72,2.77-1.77,3.47-3.1.67-1.26.97-2.56.89-3.87-.08-1.29-.48-2.49-1.19-3.59-.79-1.2-1.86-2.01-3.19-2.43-.78-.24-1.61-.37-2.46-.37-.41,0-.83.03-1.26.09-1.34.18-2.59.68-3.71,1.47-1.11.79-2.03,1.86-2.76,3.21-.74,1.37-1.11,3.04-1.11,4.96,0,2.35.64,4.44,1.9,6.21,1.18,1.66,2.72,3.06,4.58,4.16,1.78,1.06,3.77,1.87,5.91,2.41,2.11.54,4.24.81,6.33.81,3.24,0,6.09-.51,8.48-1.52,2.4-1.02,4.42-2.39,5.99-4.08,1.56-1.69,2.73-3.62,3.48-5.74.73-2.08,1.11-4.23,1.11-6.38,0-2.66-.47-4.99-1.39-6.94-.92-1.93-2.24-3.65-3.93-5.12-1.62-1.41-3.57-2.67-5.82-3.77-2.13-1.04-4.51-2.1-7.07-3.15-1.91-.74-3.51-1.77-4.79-3.1-1.32-1.37-2.35-2.86-3.05-4.43-.69-1.55-1.06-3.13-1.11-4.71-.05-1.54.2-2.93.74-4.14.51-1.14,1.31-2.07,2.46-2.83,1.12-.74,2.63-1.12,4.49-1.12,2.39,0,4.29.32,5.64.97,1.25.6,2.1,1.26,2.53,1.98.37.63.47,1.22.31,1.87-.17.7-.56,1.26-1.23,1.75-1.55,1.12-2.57,2.42-3.03,3.85-.45,1.39-.5,2.75-.15,4.04.34,1.26,1.02,2.38,1.99,3.32.96.92,2.03,1.55,3.19,1.86.02,0,.04.01.06.02.48.11.98.17,1.48.17.57,0,1.15-.07,1.74-.21,1.14-.27,2.2-.82,3.14-1.65.91-.81,1.66-1.88,2.22-3.21.55-1.31.82-2.86.82-4.75s-.46-3.8-1.36-5.67c-.89-1.84-2.17-3.49-3.8-4.91-1.61-1.39-3.58-2.53-5.87-3.38-2.29-.85-4.87-1.29-7.7-1.29h0Z"/>
      </g>
      <g>
        <path class="cls-4" d="M100,83.19c-2.85,0-5.33-.57-7.37-1.7-2.12-1.18-3.87-2.79-5.19-4.79-1.3-1.96-2.28-4.27-2.91-6.85-.62-2.54-.97-5.29-1.02-8.17-.06-2.81.32-5.47,1.13-7.91.81-2.45,1.98-4.61,3.49-6.41,1.52-1.81,3.34-3.25,5.42-4.27,2.09-1.03,4.37-1.55,6.78-1.55,4.36,0,7.75.99,10.08,2.93,2.38,1.99,3.59,4.55,3.59,7.61,0,2.31-.43,4.29-1.28,5.87-.84,1.57-1.95,2.84-3.28,3.79-1.3.92-2.79,1.61-4.41,2.06-1.56.43-3.13.73-4.67.9-1.31.14-2.57.22-3.75.22-.2,0-.4,0-.6,0-.83-.02-1.56-.03-2.19-.04.03,1.29.12,2.65.27,4.08.18,1.76.56,3.43,1.11,4.95.53,1.47,1.25,2.69,2.15,3.64.8.85,1.84,1.26,3.16,1.26,2,0,3.66-.29,4.93-.86,1.27-.57,2.28-1.29,3-2.14.74-.86,1.27-1.8,1.59-2.8.33-1.03.49-2.03.49-2.97s.67-1.58,1.66-1.58,1.58.63,1.58,1.58c0,2.06-.36,3.94-1.08,5.57-.71,1.63-1.68,3.04-2.88,4.16-1.2,1.13-2.62,2-4.24,2.57-1.59.57-3.32.86-5.14.86h-.4ZM100.32,44.44c-1.08,0-1.95.32-2.68.98-.8.73-1.46,1.67-1.95,2.8-.52,1.19-.91,2.52-1.17,3.96-.27,1.47-.46,2.91-.57,4.29-.11,1.37-.16,2.61-.16,3.69v1.19c.51-.04,1.13-.1,1.86-.19,1.2-.15,2.45-.56,3.72-1.22,1.24-.64,2.34-1.59,3.27-2.82.88-1.17,1.33-2.87,1.33-5.07s-.35-4.2-1.03-5.72c-.58-1.29-1.41-1.89-2.61-1.89Z"/>
        <path class="cls-3" d="M100.32,42.53c4.14,0,7.29.9,9.44,2.7,2.15,1.8,3.23,4.08,3.23,6.84,0,2.16-.39,3.96-1.16,5.39-.77,1.44-1.77,2.59-2.98,3.44-1.21.86-2.58,1.49-4.1,1.91-1.52.41-3.02.71-4.51.87-1.27.14-2.49.21-3.64.21-.2,0-.39,0-.58,0-1.32-.03-2.4-.04-3.23-.04,0,1.6.1,3.33.29,5.19.19,1.85.58,3.58,1.16,5.19.58,1.6,1.37,2.93,2.36,3.98.99,1.05,2.29,1.58,3.89,1.58,2.15,0,3.93-.32,5.34-.95,1.41-.63,2.53-1.43,3.35-2.4.83-.96,1.42-2.01,1.78-3.15.36-1.13.54-2.22.54-3.27,0-.39.22-.58.66-.58.39,0,.58.19.58.58,0,1.93-.33,3.66-.99,5.17-.66,1.52-1.55,2.8-2.65,3.84-1.1,1.04-2.4,1.83-3.89,2.36-1.49.53-3.09.8-4.8.8-.14,0-.27,0-.4,0-2.69,0-4.99-.53-6.88-1.58-1.99-1.1-3.6-2.59-4.84-4.47-1.24-1.88-2.17-4.06-2.77-6.54-.61-2.48-.94-5.13-.99-7.95-.06-2.7.3-5.23,1.08-7.57.77-2.35,1.88-4.37,3.31-6.08,1.43-1.71,3.13-3.05,5.09-4.02,1.96-.96,4.07-1.45,6.33-1.45M92.79,62.4c.66,0,1.66-.08,2.98-.25,1.32-.17,2.68-.61,4.06-1.32,1.38-.72,2.58-1.75,3.6-3.1,1.02-1.35,1.53-3.24,1.53-5.67s-.37-4.47-1.12-6.13c-.74-1.66-1.92-2.48-3.52-2.48-1.32,0-2.44.41-3.35,1.24-.91.83-1.64,1.88-2.19,3.15-.55,1.27-.97,2.66-1.24,4.18-.28,1.52-.47,2.98-.58,4.39-.11,1.41-.17,2.66-.17,3.77v2.24M100.32,40.53c-2.56,0-4.99.56-7.22,1.65-2.2,1.09-4.13,2.61-5.74,4.52-1.59,1.9-2.83,4.17-3.68,6.74-.84,2.55-1.24,5.32-1.18,8.24.06,2.95.41,5.77,1.05,8.38.66,2.7,1.68,5.11,3.05,7.17,1.41,2.14,3.28,3.86,5.54,5.11,2.18,1.21,4.83,1.83,7.85,1.83.15,0,.29,0,.44,0h0c1.89,0,3.73-.31,5.43-.92,1.74-.62,3.29-1.56,4.59-2.79,1.3-1.22,2.34-2.73,3.11-4.49.77-1.76,1.16-3.77,1.16-5.97,0-1.49-1.08-2.58-2.58-2.58s-2.66,1.08-2.66,2.58c0,.84-.15,1.73-.44,2.67-.28.87-.74,1.69-1.39,2.45-.63.74-1.53,1.37-2.66,1.88-1.14.52-2.66.78-4.52.78-1.05,0-1.82-.3-2.44-.95-.8-.84-1.45-1.95-1.93-3.29-.52-1.45-.88-3.03-1.05-4.71-.11-1.02-.18-2.01-.23-2.96.36,0,.74.01,1.14.02.2,0,.41,0,.62,0,1.22,0,2.52-.08,3.86-.23,1.58-.18,3.2-.49,4.82-.93,1.74-.47,3.32-1.22,4.72-2.2,1.46-1.03,2.67-2.42,3.59-4.13.93-1.73,1.4-3.86,1.4-6.34,0-3.37-1.33-6.19-3.95-8.38-2.51-2.1-6.12-3.16-10.72-3.16h0ZM94.79,60.25v-.09c0-1.05.05-2.27.16-3.61.1-1.34.29-2.75.55-4.19.25-1.36.62-2.62,1.11-3.74.44-1,1.01-1.83,1.71-2.46.54-.49,1.18-.72,2.01-.72.54,0,1.15.1,1.69,1.3.62,1.39.94,3.17.94,5.31,0,1.97-.38,3.47-1.13,4.47-.85,1.12-1.81,1.95-2.93,2.54-1.16.6-2.3.98-3.38,1.11-.27.03-.51.06-.73.09h0Z"/>
      </g>
      <g>
        <path class="cls-4" d="M117.62,82.52c-.92,0-1.46-.39-1.74-.71-.38-.43-.58-.94-.58-1.49s.2-1.07.58-1.49c.26-.29.73-.64,1.51-.7.02-.04.04-.09.07-.17.17-.48.31-1.06.41-1.73.16-.77.27-1.63.32-2.63v-23.46c0-.17-.05-.26-.08-.31-.13-.19-.28-.38-.46-.55-.17-.17-.36-.34-.57-.51-.59-.28-1.02-.6-1.33-.98-.03-.03-.05-.07-.07-.1-.31-.52-.39-1.08-.23-1.63.17-.57.67-1.04,1.63-1.52l4.9-2.94c.59-.39,1.26-.6,1.98-.6.3,0,.62.04.93.12,1.02.26,1.83.83,2.41,1.7.36.58.6,1.24.73,2,.04.24.08.51.1.83.61-.56,1.34-1.13,2.15-1.69.94-.64,1.99-1.21,3.13-1.67,1.19-.49,2.45-.74,3.73-.74,2.1,0,3.89.77,5.32,2.3,1.42,1.51,2.13,3.27,2.13,5.24,0,1.79-.5,3.27-1.48,4.42-1.02,1.19-2.25,1.8-3.66,1.8-.81,0-1.58-.17-2.29-.51-.72-.34-1.31-.81-1.74-1.38-.45-.59-.71-1.31-.78-2.13-.07-.82.13-1.71.6-2.64.79-1.52.79-2.24.71-2.54-.06-.25-.14-.43-.64-.44h0c-.51,0-1.37.18-2.86,1.03-1.25.71-2.68,1.83-4.25,3.32v23.66c.05.93.15,1.8.31,2.52.11.71.25,1.29.42,1.78.03.07.05.13.07.16.83.04,1.32.4,1.6.7.38.43.58.95.58,1.49s-.23,1.1-.66,1.53c-.44.44-1.01.67-1.66.67h-11.26Z"/>
        <path class="cls-3" d="M123.97,41.99c.22,0,.45.03.69.09.77.19,1.38.62,1.82,1.28.28.44.47.98.58,1.61.11.64.17,1.61.17,2.94.28-.28.73-.72,1.37-1.32.63-.61,1.39-1.21,2.28-1.82.88-.61,1.86-1.13,2.94-1.57,1.08-.44,2.19-.66,3.35-.66,1.82,0,3.35.66,4.59,1.99,1.24,1.32,1.86,2.84,1.86,4.55,0,1.55-.41,2.8-1.24,3.77-.83.97-1.79,1.45-2.9,1.45-.66,0-1.28-.14-1.86-.41-.58-.28-1.03-.63-1.37-1.08-.33-.44-.52-.98-.58-1.61-.06-.63.11-1.34.5-2.11.72-1.38.98-2.45.79-3.23-.19-.77-.72-1.17-1.57-1.2-.03,0-.06,0-.08,0-.85,0-1.95.39-3.31,1.16-1.41.8-2.99,2.06-4.76,3.77v24.09c.05,1.05.17,1.96.33,2.73.11.72.26,1.35.46,1.9.19.55.48.83.87.83.44,0,.77.12.99.37.22.25.33.53.33.83s-.12.58-.37.83-.57.37-.95.37h-11.26c-.44,0-.77-.12-.99-.37-.22-.25-.33-.52-.33-.83s.11-.58.33-.83c.22-.25.55-.37.99-.37.33,0,.59-.27.79-.83.19-.55.34-1.19.46-1.9.17-.77.28-1.68.33-2.73v-23.51c0-.33-.08-.62-.25-.87-.17-.25-.36-.48-.58-.7-.22-.22-.47-.44-.75-.66-.5-.22-.86-.47-1.08-.75-.17-.28-.21-.55-.12-.83.08-.28.46-.58,1.12-.91l4.97-2.98c.46-.31.95-.46,1.46-.46M123.97,39.99c-.9,0-1.75.26-2.53.77l-4.87,2.92c-.81.41-1.75,1.02-2.07,2.09-.24.82-.13,1.68.33,2.43.04.07.09.14.15.21.38.48.89.87,1.57,1.21.15.13.29.25.41.38.09.09.17.18.24.27v23.34c-.05.92-.15,1.72-.29,2.37,0,.04-.02.08-.02.11-.07.43-.15.82-.24,1.16-.72.19-1.21.58-1.51.92-.54.61-.83,1.36-.83,2.15s.29,1.54.84,2.16c.42.47,1.19,1.04,2.49,1.04h11.26c.92,0,1.74-.33,2.37-.96s.96-1.4.96-2.24c0-.79-.29-1.54-.83-2.15-.32-.36-.83-.76-1.6-.95-.1-.35-.18-.72-.24-1.13,0-.04-.01-.08-.02-.12-.14-.66-.24-1.45-.29-2.37v-23.18c1.39-1.29,2.65-2.26,3.75-2.89,1.01-.57,1.64-.78,2-.86-.06.29-.21.76-.58,1.47-.57,1.13-.8,2.2-.71,3.21.09,1,.41,1.89.97,2.64.53.7,1.24,1.27,2.11,1.68.84.4,1.76.61,2.72.61,1.69,0,3.21-.74,4.42-2.15,1.14-1.33,1.72-3.04,1.72-5.07,0-2.23-.81-4.22-2.4-5.92-1.63-1.74-3.67-2.62-6.05-2.62-1.41,0-2.8.27-4.11.81-1.21.5-2.32,1.09-3.31,1.77-.32.22-.62.44-.91.65-.16-.54-.38-1.03-.65-1.47-.01-.02-.02-.04-.03-.05-.71-1.07-1.75-1.8-3-2.11-.4-.1-.79-.15-1.18-.15h0Z"/>
      </g>
      <g>
        <path class="cls-4" d="M162.74,83.1c-.84,0-1.55-.43-2-1.2-.22-.32-.38-.69-.46-1.12l-11.89-34.11s-.02-.05-.09-.12c-.09-.09-.25-.21-.62-.21-1.33,0-2.16-.81-2.16-2.12s.83-2.04,2.16-2.04h10.93c1.26,0,2.08.8,2.08,2.04,0,1.31-.8,2.12-2.08,2.12-.03,0-.06,0-.08,0,0,.02,7.42,19.7,7.42,19.7l5.53-18.67c.16-.42.15-.63.14-.71,0-.04-.07-.13-.17-.24t0,0s-.21-.08-.74-.08c-1.33,0-2.16-.81-2.16-2.12s.83-2.04,2.16-2.04h6.95c1.33,0,2.16.78,2.16,2.04s-.83,2.12-2.16,2.12c-.66,0-1.01.13-1.18.23-.34.21-.62.42-.84.64-.14.18-.3.46-.43.8l-9.83,32.8c-.15.39-.31.74-.52,1.16-.21.42-.76,1.13-2.09,1.13Z"/>
        <path class="cls-3" d="M177.64,43.19c.77,0,1.16.34,1.16,1.04,0,.75-.39,1.12-1.16,1.12-.72,0-1.28.12-1.7.37-.41.25-.76.51-1.03.79-.28.33-.5.72-.66,1.16l-9.85,32.86c-.11.28-.26.61-.46.99-.19.39-.59.58-1.2.58-.5,0-.88-.25-1.16-.74-.17-.22-.28-.5-.33-.83l-11.92-34.19c-.06-.17-.17-.33-.33-.5-.33-.33-.77-.5-1.32-.5-.77,0-1.16-.37-1.16-1.12,0-.69.39-1.04,1.16-1.04h10.93c.72,0,1.08.34,1.08,1.04,0,.75-.36,1.12-1.08,1.12-.44,0-.72.08-.83.25-.11.17-.19.33-.25.5-.06.22-.03.44.08.66l8.44,22.43,6.37-21.52c.17-.44.22-.83.17-1.16-.06-.28-.21-.54-.46-.79-.25-.25-.73-.37-1.45-.37-.77,0-1.16-.37-1.16-1.12,0-.69.39-1.04,1.16-1.04h6.95M177.64,41.19h-6.95c-1.89,0-3.16,1.22-3.16,3.04s1.16,3,2.91,3.11l-4.61,15.57-5.95-15.8c1.1-.45,1.8-1.51,1.8-2.87,0-1.79-1.26-3.04-3.08-3.04h-10.93c-1.86,0-3.16,1.25-3.16,3.04s1.22,3.07,3.05,3.11l11.75,33.7c.11.52.31.99.59,1.4.63,1.06,1.66,1.66,2.84,1.66,1.93,0,2.73-1.17,2.99-1.68.21-.43.39-.81.52-1.14.02-.06.04-.12.06-.17l9.83-32.79c.07-.18.15-.33.25-.46.15-.14.35-.28.58-.42h0s.17-.09.67-.09c1.89,0,3.16-1.25,3.16-3.12s-1.3-3.04-3.16-3.04h0Z"/>
      </g>
      <g>
        <path class="cls-4" d="M182.36,82.52c-.92,0-1.46-.39-1.74-.71-.38-.43-.58-.94-.58-1.49s.2-1.07.58-1.49c.28-.32.82-.71,1.74-.71,0,0,.2-.15.41-.85.28-.95.42-1.97.42-3.03v-23.51c0-.14-.04-.2-.08-.26-.16-.2-.32-.39-.5-.57-.23-.18-.47-.35-.73-.53-.61-.28-1.06-.61-1.37-1-.03-.03-.05-.07-.07-.11-.31-.52-.39-1.08-.22-1.63.17-.57.67-1.04,1.63-1.52,1.71-.8,3.31-1.48,4.77-2.03,1.46-.55,2.42-.9,2.85-1.02l1.08-.36c.26-.08.49-.13.71-.13.2,0,.39.04.56.1.29.12.78.44.88,1.32.03.32.05.83.05,1.51v30.05c.05.96.21,1.92.49,2.8.18.56.36.73.4.75.93,0,1.47.39,1.75.71.38.43.58.95.58,1.49s-.23,1.1-.66,1.53c-.44.44-1.01.67-1.66.67h-11.26ZM187.49,41.62c-1.48,0-2.77-.53-3.84-1.56-1.08-1.05-1.63-2.36-1.63-3.91s.55-2.86,1.63-3.91c1.07-1.04,2.36-1.57,3.84-1.57s2.84.53,3.89,1.58c1.05,1.05,1.58,2.36,1.58,3.9s-.53,2.85-1.58,3.89-2.36,1.58-3.89,1.58Z"/>
        <path class="cls-3" d="M187.49,31.68c1.27,0,2.33.43,3.19,1.28.86.86,1.28,1.92,1.28,3.19s-.43,2.33-1.28,3.19c-.86.86-1.92,1.28-3.19,1.28s-2.26-.43-3.15-1.28c-.88-.85-1.32-1.92-1.32-3.19s.44-2.33,1.32-3.19c.88-.85,1.93-1.28,3.15-1.28M191.23,42.58c.07,0,.14.01.19.03.14.06.22.22.25.5.03.28.04.75.04,1.41v30.05c.05,1.1.23,2.14.54,3.1.3.97.76,1.45,1.37,1.45.44,0,.77.12.99.37.22.25.33.53.33.83s-.12.58-.37.83c-.25.25-.57.37-.95.37h-11.26c-.44,0-.77-.12-.99-.37-.22-.25-.33-.52-.33-.83s.11-.58.33-.83c.22-.25.55-.37.99-.37.61,0,1.06-.52,1.37-1.57.3-1.05.45-2.15.45-3.31v-23.51c0-.33-.1-.62-.29-.87-.19-.25-.4-.48-.62-.7-.28-.22-.58-.44-.91-.66-.5-.22-.86-.47-1.08-.75-.17-.28-.21-.55-.12-.83.08-.28.46-.58,1.12-.91,1.66-.77,3.21-1.43,4.68-1.99,1.46-.55,2.39-.88,2.77-.99.5-.17.87-.29,1.12-.37.15-.05.28-.07.39-.07M187.49,29.68c-1.72,0-3.29.64-4.54,1.85-1.26,1.23-1.93,2.82-1.93,4.62s.67,3.4,1.93,4.62c.8.77,1.7,1.31,2.7,1.6-1.33.52-2.75,1.13-4.23,1.82-.02,0-.03.02-.05.02-.82.41-1.81,1.02-2.14,2.12-.24.82-.13,1.68.33,2.44.04.07.09.14.15.21.4.5.94.91,1.66,1.25.19.13.38.27.56.41.09.09.17.18.25.28v23.31c0,.96-.13,1.89-.38,2.76-.02.07-.04.12-.05.17-.93.14-1.53.6-1.88,1-.55.62-.84,1.36-.84,2.16s.29,1.54.84,2.16c.42.47,1.2,1.04,2.49,1.04h11.26c.92,0,1.74-.33,2.37-.96.63-.63.96-1.4.96-2.24,0-.79-.29-1.54-.83-2.15-.36-.4-.97-.87-1.92-1.01,0-.03-.02-.05-.03-.09-.25-.79-.4-1.65-.45-2.56v-30c0-.73-.02-1.25-.05-1.6-.15-1.46-1.09-2-1.49-2.16-.02,0-.04-.02-.06-.02,1.21-1.22,1.85-2.8,1.85-4.58s-.65-3.38-1.87-4.6c-1.23-1.22-2.82-1.87-4.6-1.87h0Z"/>
      </g>
      <g>
        <path class="cls-4" d="M199.58,82.52c-.92,0-1.46-.39-1.74-.71-.38-.43-.58-.94-.58-1.49s.2-1.07.59-1.49c.26-.29.73-.64,1.51-.7.02-.04.04-.09.07-.17.17-.48.31-1.06.41-1.73.16-.77.27-1.63.32-2.63v-23.46c0-.17-.05-.26-.08-.31-.13-.19-.28-.38-.46-.55-.17-.17-.36-.34-.57-.51-.59-.28-1.02-.6-1.33-.98-.03-.03-.05-.07-.07-.1-.31-.52-.39-1.08-.23-1.63.17-.58.68-1.04,1.63-1.52l4.9-2.94c.59-.39,1.26-.6,1.98-.6.3,0,.62.04.93.12,1.02.26,1.83.83,2.41,1.7.36.58.6,1.24.73,2,.04.24.08.52.1.83.61-.56,1.34-1.13,2.15-1.69.94-.64,1.99-1.21,3.13-1.67,1.19-.49,2.45-.74,3.73-.74,2.1,0,3.89.77,5.32,2.3,1.42,1.51,2.13,3.27,2.13,5.24,0,1.79-.5,3.27-1.48,4.42-1.02,1.19-2.25,1.8-3.66,1.8-.81,0-1.58-.17-2.29-.51-.72-.34-1.31-.81-1.74-1.38-.44-.59-.71-1.31-.78-2.13-.07-.81.13-1.7.6-2.64.79-1.52.79-2.24.71-2.54-.06-.25-.14-.43-.64-.44h0c-.51,0-1.37.18-2.86,1.03-1.25.71-2.68,1.83-4.25,3.32v23.66c.05.93.15,1.8.31,2.52.11.71.25,1.29.42,1.78.03.07.05.13.07.16.83.04,1.32.4,1.6.7.38.43.58.95.58,1.49s-.23,1.1-.67,1.54c-.43.44-1.01.67-1.66.67h-11.26Z"/>
        <path class="cls-3" d="M205.92,41.99c.22,0,.45.03.69.09.77.19,1.38.62,1.82,1.28.28.44.47.98.58,1.61.11.64.17,1.61.17,2.94.28-.28.73-.72,1.37-1.32.63-.61,1.39-1.21,2.28-1.82.88-.61,1.86-1.13,2.94-1.57,1.08-.44,2.19-.66,3.35-.66,1.82,0,3.35.66,4.59,1.99,1.24,1.32,1.86,2.84,1.86,4.55,0,1.55-.41,2.8-1.24,3.77-.83.97-1.79,1.45-2.9,1.45-.66,0-1.28-.14-1.86-.41-.58-.28-1.03-.63-1.37-1.08-.33-.44-.52-.98-.58-1.61-.06-.63.11-1.34.5-2.11.72-1.38.98-2.45.79-3.23-.19-.77-.72-1.17-1.57-1.2-.03,0-.06,0-.08,0-.85,0-1.95.39-3.31,1.16-1.41.8-2.99,2.06-4.76,3.77v24.09c.05,1.05.17,1.96.33,2.73.11.72.26,1.35.46,1.9.19.55.48.83.87.83.44,0,.77.12.99.37.22.25.33.53.33.83s-.12.58-.37.83-.57.37-.95.37h-11.26c-.44,0-.77-.12-.99-.37-.22-.25-.33-.52-.33-.83s.11-.58.33-.83c.22-.25.55-.37.99-.37.33,0,.59-.27.79-.83.19-.55.34-1.19.46-1.9.17-.77.28-1.68.33-2.73v-23.51c0-.33-.08-.62-.25-.87-.17-.25-.36-.48-.58-.7-.22-.22-.47-.44-.74-.66-.5-.22-.86-.47-1.08-.75-.17-.28-.21-.55-.12-.83.08-.28.46-.58,1.12-.91l4.97-2.98c.46-.31.95-.46,1.46-.46M205.92,39.99c-.9,0-1.75.26-2.53.77l-4.87,2.92c-.81.41-1.75,1.02-2.07,2.09-.24.82-.13,1.68.33,2.43.04.07.09.14.15.21.38.48.89.87,1.57,1.21.15.13.29.25.41.37.09.09.17.18.24.27v23.34c-.05.92-.15,1.72-.29,2.37,0,.04-.02.08-.02.11-.07.43-.15.82-.24,1.16-.72.19-1.21.58-1.51.92-.54.61-.83,1.36-.83,2.15s.29,1.54.84,2.16c.42.47,1.19,1.04,2.49,1.04h11.26c.92,0,1.74-.33,2.37-.96s.96-1.4.96-2.24c0-.79-.29-1.54-.83-2.15-.32-.36-.83-.76-1.6-.95-.1-.35-.18-.72-.24-1.13,0-.04-.01-.08-.02-.12-.14-.66-.24-1.45-.29-2.37v-23.18c1.39-1.29,2.65-2.26,3.75-2.89,1.01-.57,1.64-.78,2-.86-.06.29-.21.76-.58,1.47-.57,1.13-.8,2.2-.71,3.21.09,1,.41,1.89.97,2.64.53.7,1.24,1.27,2.11,1.68.84.4,1.76.61,2.72.61,1.69,0,3.21-.74,4.42-2.15,1.14-1.33,1.72-3.04,1.72-5.07,0-2.23-.81-4.22-2.4-5.92-1.63-1.74-3.67-2.62-6.05-2.62-1.41,0-2.8.27-4.11.81-1.21.5-2.32,1.09-3.31,1.77-.32.22-.62.44-.91.65-.16-.54-.38-1.03-.65-1.47-.01-.02-.02-.04-.03-.05-.71-1.07-1.75-1.8-3-2.11-.4-.1-.79-.15-1.18-.15h0Z"/>
      </g>
    </g>
  </g>
</svg>