<?xml version="1.0" encoding="UTF-8"?>
<svg id="options-tel" xmlns="http://www.w3.org/2000/svg" xmlns:xlink="http://www.w3.org/1999/xlink" viewBox="0 0 152.1 55.44">
  <defs>
    <style>
      .cls-1 {
        fill: url(#Dégradé_sans_nom_2);
        stroke: #252422;
        stroke-miterlimit: 10;
        stroke-width: 2px;
      }

      .cls-2 {
        fill: #252422;
      }

      .cls-2, .cls-3, .cls-4 {
        stroke-width: 0px;
      }

      .cls-3 {
        fill: #eeebe9;
      }

      .cls-4 {
        fill: #282835;
      }
    </style>
    <radialGradient id="Dégradé_sans_nom_2" data-name="Dégradé sans nom 2" cx="-10.86" cy="721" fx="-10.86" fy="721" r="57.24" gradientTransform="translate(84.88 -466.37) scale(.85 .69)" gradientUnits="userSpaceOnUse">
      <stop offset="0" stop-color="#7f7fc9"/>
      <stop offset="1" stop-color="#5e548b"/>
    </radialGradient>
  </defs>
  <g id="options">
    <rect class="cls-4" width="152.1" height="55.44"/>
    <rect class="cls-1" x="10.96" y="9.04" width="129.38" height="38.02"/>
  </g>
  <g>
    <g>
      <path class="cls-2" d="M42.84,37.63c-1.23,0-2.34-.26-3.3-.78-.96-.51-1.78-1.23-2.43-2.14-.65-.89-1.14-1.97-1.48-3.2-.33-1.21-.5-2.56-.5-4.02s.13-2.81.39-4.08c.27-1.3.71-2.45,1.31-3.43.61-1,1.42-1.8,2.41-2.37.99-.58,2.2-.87,3.6-.87.92,0,1.77.13,2.54.39.78.27,1.45.65,1.99,1.15.54.5.97,1.11,1.26,1.81.3.7.45,1.49.45,2.34,0,1.34-.33,2.29-.99,2.82-.45.37-.97.55-1.54.55-.26,0-.54-.04-.82-.12-.3-.07-.59-.25-.87-.52-.28-.27-.48-.6-.59-.99-.11-.38-.11-.79,0-1.23.11-.44.36-.86.77-1.27s.64-.81.73-1.23c.08-.41.04-.77-.14-1.1-.18-.34-.5-.63-.94-.86-.47-.24-1.09-.37-1.83-.37-.79,0-1.41.26-1.87.81-.51.61-.91,1.38-1.19,2.3-.29.95-.48,1.99-.56,3.1-.08,1.13-.13,2.19-.13,3.16,0,1.15.04,2.27.12,3.32.08,1.03.27,1.94.55,2.71.27.74.66,1.33,1.15,1.76.46.41,1.09.61,1.92.61.88,0,1.62-.19,2.2-.57.61-.39,1.1-.86,1.45-1.39.36-.54.63-1.08.78-1.64.19-.69.24-1.06.24-1.25,0-.21.06-.41.17-.57.15-.22.38-.35.64-.35.13,0,.33.04.52.23.15.15.23.38.23.69,0,.6-.12,1.27-.36,2.02-.24.75-.61,1.46-1.11,2.12-.5.67-1.15,1.25-1.92,1.71-.8.48-1.76.72-2.84.72Z"/>
      <path class="cls-3" d="M42.84,17.24c.87,0,1.66.12,2.37.37s1.32.59,1.81,1.04c.49.45.87,1,1.14,1.64.27.64.41,1.36.41,2.15,0,1.19-.27,2-.81,2.43-.36.29-.77.44-1.23.44-.22,0-.44-.03-.68-.1-.23-.06-.45-.19-.66-.4s-.37-.46-.45-.76c-.08-.3-.08-.63,0-.97.08-.35.3-.69.63-1.03.47-.47.76-.96.86-1.48.1-.52.04-.99-.18-1.43-.23-.43-.61-.79-1.16-1.07-.55-.28-1.23-.42-2.06-.42-.94,0-1.69.33-2.25.99-.56.66-.98,1.48-1.29,2.47-.3.99-.49,2.06-.58,3.21-.08,1.15-.13,2.21-.13,3.19,0,1.17.04,2.29.13,3.36.08,1.07.28,2.02.58,2.84.3.82.73,1.47,1.29,1.96s1.3.73,2.25.73,1.8-.22,2.47-.65c.67-.43,1.2-.94,1.6-1.53.4-.58.68-1.18.85-1.78.17-.6.25-1.06.25-1.38,0-.11.03-.21.08-.3s.13-.13.23-.13c.06,0,.11.03.17.08.06.06.08.17.08.34,0,.55-.11,1.17-.34,1.86-.23.7-.57,1.36-1.03,1.98-.46.62-1.06,1.15-1.78,1.58-.73.43-1.59.65-2.58.65-1.15,0-2.17-.24-3.07-.72-.89-.48-1.65-1.14-2.26-1.99-.61-.85-1.08-1.86-1.4-3.04-.32-1.18-.48-2.47-.48-3.88s.13-2.74.38-3.98c.25-1.24.67-2.33,1.24-3.26.57-.93,1.32-1.67,2.23-2.2.91-.54,2.03-.8,3.35-.8M42.84,16.24c-1.49,0-2.79.32-3.86.94-1.05.62-1.92,1.47-2.58,2.54-.63,1.03-1.09,2.23-1.37,3.59-.27,1.3-.4,2.71-.4,4.18s.17,2.89.52,4.15c.35,1.29.87,2.42,1.55,3.36.7.97,1.57,1.74,2.6,2.29,1.04.56,2.23.84,3.54.84,1.18,0,2.22-.27,3.1-.79.84-.5,1.53-1.12,2.07-1.84.52-.71.92-1.47,1.18-2.27.26-.79.39-1.53.39-2.17,0-.45-.13-.8-.38-1.05-.24-.24-.55-.37-.87-.37-.43,0-.82.21-1.06.57-.17.25-.25.54-.25.85,0,.13-.03.44-.22,1.11-.14.5-.38,1-.71,1.49-.32.47-.76.89-1.31,1.25-.5.32-1.15.49-1.93.49-.7,0-1.22-.16-1.59-.48-.43-.38-.77-.9-1.01-1.56-.27-.73-.44-1.59-.52-2.57-.08-1.04-.12-2.14-.12-3.28,0-.95.04-2,.12-3.12.08-1.07.26-2.08.54-2.99.26-.85.63-1.57,1.09-2.12.36-.43.83-.63,1.48-.63s1.2.1,1.6.31c.36.18.6.4.73.65.12.23.15.47.09.77-.06.32-.26.65-.59.97-.47.47-.77.98-.9,1.5-.13.51-.12,1.01,0,1.48.13.47.38.88.72,1.22.34.33.72.54,1.11.64.3.08.62.13.93.13.69,0,1.31-.22,1.85-.66.78-.63,1.18-1.71,1.18-3.21,0-.92-.16-1.78-.49-2.54-.33-.77-.79-1.43-1.38-1.98-.59-.54-1.32-.97-2.16-1.26-.82-.28-1.72-.42-2.7-.42h0Z"/>
    </g>
    <g>
      <path class="cls-2" d="M53.32,37.52c-.47,0-.95-.09-1.44-.25-.49-.17-.94-.42-1.33-.75-.4-.33-.73-.76-.99-1.26-.26-.51-.39-1.1-.39-1.74,0-.77.18-1.45.54-2.03.35-.56.82-1.03,1.41-1.39.33-.2.69-.38,1.07-.52-.07,0-.14,0-.21,0-.63,0-1.15-.19-1.53-.58-.42-.41-.63-.95-.63-1.6,0-.43.1-.91.29-1.42.19-.52.51-1,.93-1.43s.98-.79,1.65-1.07c.67-.28,1.49-.42,2.44-.42,1.55,0,2.7.39,3.43,1.16.72.76,1.08,1.94,1.08,3.49l.03,6.27c0,.21,0,.43.03.65.02.21.05.4.09.58.04.17.09.26.12.31.02,0,.05,0,.07,0,.25,0,.45.14.56.27.16.18.24.39.24.61,0,.24-.09.46-.27.64s-.41.27-.68.27h-2.85c-.23,0-.44-.08-.63-.23-.11-.08-.19-.19-.25-.31-.2.13-.42.25-.64.35-.55.26-1.25.39-2.12.39ZM55.16,30.45c-.78,0-1.33.25-1.7.76-.4.55-.6,1.33-.6,2.32,0,.84.14,1.44.42,1.78.26.32.6.47,1.05.47.4,0,.74-.08,1.02-.24.25-.14.46-.3.63-.46v-4.51s-.09-.03-.13-.04c-.11-.04-.32-.08-.7-.08ZM55.13,24.46c-.34,0-.69.05-1.02.16-.32.1-.57.23-.75.4-.14.13-.21.27-.22.45-.01.17.11.41.33.68.31.38.49.76.55,1.15.06.39.02.76-.12,1.09-.14.33-.37.61-.69.83-.05.04-.1.07-.16.1.69-.16,1.39-.23,2.09-.23.3,0,.57.01.8.03,0,0,.02,0,.02,0v-1.45c0-.44,0-.88.01-1.33,0-.4-.02-.76-.09-1.07-.06-.27-.16-.48-.29-.65-.03-.04-.13-.16-.49-.16Z"/>
      <path class="cls-3" d="M55.13,23.57c1.41,0,2.43.33,3.07,1,.63.67.95,1.72.95,3.15l.03,6.27c0,.23,0,.46.03.69.02.24.05.45.1.65.05.2.11.36.2.48.08.12.19.18.32.18.15,0,.26.04.34.13s.11.18.11.28-.04.2-.13.28-.19.13-.33.13h-2.85c-.11,0-.22-.04-.31-.11-.09-.08-.15-.18-.17-.31v-.54c-.36.32-.78.59-1.26.82-.48.23-1.12.34-1.91.34-.42,0-.84-.08-1.27-.23-.43-.15-.82-.37-1.17-.66s-.64-.66-.86-1.1c-.23-.44-.34-.95-.34-1.51,0-.68.16-1.27.47-1.77.31-.5.72-.91,1.24-1.23.52-.32,1.11-.56,1.77-.71s1.33-.23,2.01-.23c.28,0,.54,0,.76.03.23.02.41.04.56.06v-2.01c0-.43,0-.87.01-1.31,0-.44-.02-.84-.1-1.19-.08-.35-.21-.64-.4-.86-.19-.23-.48-.34-.88-.34s-.79.06-1.17.18c-.39.12-.7.29-.93.51-.24.22-.36.48-.38.79-.02.31.13.65.45,1.03.25.3.39.6.44.9.05.3.02.58-.08.82-.1.24-.27.45-.51.61s-.49.25-.78.27c-.06,0-.12,0-.18,0-.5,0-.89-.14-1.17-.43-.32-.32-.48-.73-.48-1.24,0-.38.08-.79.25-1.24.17-.45.44-.87.82-1.26s.87-.71,1.48-.96c.61-.25,1.36-.38,2.25-.38M54.34,36.28c.49,0,.91-.1,1.27-.31s.65-.44.88-.68v-5.05c-.11-.06-.27-.12-.48-.18s-.49-.1-.85-.1c-.94,0-1.64.32-2.1.97-.46.64-.69,1.51-.69,2.61,0,.96.18,1.67.54,2.1.36.44.84.65,1.44.65M55.13,22.57c-1.01,0-1.9.15-2.63.46-.74.31-1.35.7-1.82,1.19-.47.48-.82,1.02-1.04,1.6-.21.56-.32,1.1-.32,1.59,0,.77.27,1.45.77,1.95.14.14.33.29.58.42-.56.38-1.03.86-1.39,1.43-.41.66-.62,1.43-.62,2.29,0,.72.15,1.38.45,1.97.29.56.66,1.03,1.11,1.41.44.37.94.65,1.49.84.54.19,1.08.28,1.6.28.95,0,1.71-.14,2.33-.44.1-.05.21-.1.31-.15.02.02.05.04.07.06.26.21.59.33.93.33h2.85c.39,0,.76-.15,1.03-.42s.42-.62.42-.99c0-.35-.13-.68-.36-.95-.17-.19-.39-.33-.65-.4-.03-.14-.05-.29-.06-.45-.02-.21-.03-.42-.03-.61l-.03-6.28c0-1.68-.41-2.97-1.22-3.83-.83-.87-2.1-1.32-3.79-1.32h0ZM54.36,28.62s0-.02.01-.03c.18-.42.23-.88.15-1.36-.08-.48-.3-.94-.65-1.38-.21-.25-.23-.36-.23-.36,0-.02,0-.05.06-.1.13-.11.31-.21.56-.29.29-.09.58-.14.87-.14.07,0,.11,0,.13.01.07.1.13.23.16.4.06.27.08.59.08.96,0,.45-.01.89-.01,1.33v.93c-.11,0-.22,0-.33,0-.27,0-.53.01-.8.03h0ZM54.34,35.28c-.38,0-.55-.15-.67-.29-.12-.14-.31-.52-.31-1.47,0-.88.17-1.56.5-2.03.17-.24.49-.55,1.29-.55.14,0,.25,0,.33.01v3.89c-.11.09-.24.17-.38.25-.2.12-.45.18-.77.18h0Z"/>
    </g>
    <g>
      <path class="cls-2" d="M62,37.32c-.37,0-.59-.16-.71-.3-.16-.18-.24-.39-.24-.61s.08-.44.24-.61c.1-.11.27-.24.54-.28,0-.02,0-.04.01-.06.06-.27.11-.59.15-.94.04-.4.04-.87.03-1.4v-13.8c-.04-.08-.08-.13-.14-.18s-.11-.1-.17-.15c-.22-.1-.38-.23-.49-.37-.17-.27-.2-.5-.13-.73.09-.31.39-.49.64-.62.57-.27,1.11-.5,1.62-.69.52-.19.86-.3,1.02-.34.12-.04.24-.08.33-.12.13-.05.24-.07.35-.07.05,0,.17.02.22.03.12.04.37.17.45.55.02.11.04.3.04.58v2.12l.03,14.9c0,.27.01.53.04.78.02.21.06.38.12.52.31.03.5.17.61.29.16.18.24.39.24.62,0,.24-.09.46-.27.64s-.41.27-.68.27h-3.84Z"/>
      <path class="cls-3" d="M65.04,16.52s.04,0,.06,0c.06.02.09.08.11.17.02.09.03.25.03.48v2.12l.03,14.16v.75c0,.29.01.57.04.83.03.26.08.49.17.68s.2.28.35.28.26.04.34.13c.08.08.11.18.11.28s-.04.2-.13.28-.19.13-.33.13h-3.84c-.15,0-.26-.04-.34-.13s-.11-.18-.11-.28.04-.2.11-.28.19-.13.34-.13.26-.15.32-.44c.07-.29.12-.63.16-1,.04-.43.05-.92.03-1.47v-13.79c0-.11-.03-.21-.08-.3-.06-.08-.12-.17-.2-.24s-.16-.15-.25-.23c-.17-.08-.29-.16-.37-.25-.06-.09-.07-.19-.04-.28.03-.09.16-.2.38-.31.55-.26,1.07-.49,1.57-.66.5-.18.82-.29.97-.33.17-.06.3-.1.4-.14.06-.02.12-.04.16-.04M65.04,15.52c-.17,0-.35.04-.53.11-.08.03-.18.07-.31.11-.13.04-.39.11-1.03.34-.53.19-1.09.43-1.67.7-.32.16-.75.42-.9.92-.11.37-.06.75.14,1.09.02.03.04.07.07.1.15.19.35.35.61.49.03.02.06.05.08.07v13.63c.02.54,0,1-.02,1.38-.02.23-.05.45-.09.65-.19.08-.35.2-.48.35-.24.27-.36.6-.36.95s.13.68.36.95c.26.3.65.46,1.09.46h3.84c.39,0,.76-.15,1.03-.42.27-.27.42-.62.42-.99s-.13-.68-.36-.95c-.16-.18-.37-.31-.6-.39,0-.04-.01-.09-.02-.14-.02-.22-.04-.47-.04-.73v-.75l-.03-14.16v-2.12c0-.3-.01-.51-.05-.67-.09-.45-.37-.79-.77-.92-.13-.04-.26-.06-.39-.06h0Z"/>
    </g>
    <g>
      <path class="cls-2" d="M68.18,37.32c-.37,0-.59-.16-.71-.3-.16-.17-.24-.39-.24-.61s.08-.44.24-.62c.11-.12.3-.27.63-.29.02-.03.04-.09.07-.18.09-.31.14-.64.14-.99v-8.02c-.05-.06-.1-.12-.17-.19-.04-.03-.13-.09-.23-.16-.17-.07-.35-.2-.48-.36-.17-.27-.2-.5-.13-.74.09-.31.39-.49.64-.61.59-.28,1.13-.51,1.64-.7.21-.08.38-.14.53-.2-.06,0-.11,0-.17,0-.55,0-1.03-.19-1.42-.58-.4-.39-.6-.88-.6-1.45s.2-1.06.6-1.45c.4-.38.88-.58,1.42-.58s1.05.2,1.44.58c.39.39.58.88.58,1.44s-.2,1.05-.58,1.44c-.1.1-.21.19-.33.27.06-.01.11-.02.16-.02.06,0,.19.02.25.05.13.05.36.2.4.58.01.11.02.29.02.53v10.26c.02.31.07.62.16.91.04.14.08.18.08.18.03,0,.05,0,.08,0,.25,0,.44.14.55.27.16.18.24.39.24.61,0,.24-.09.46-.27.64-.18.18-.41.27-.68.27h-3.84Z"/>
      <path class="cls-3" d="M69.94,19.81c.43,0,.79.15,1.09.44.29.29.44.65.44,1.09s-.15.8-.44,1.09c-.29.29-.66.44-1.09.44s-.77-.15-1.07-.44c-.3-.29-.45-.65-.45-1.09s.15-.8.45-1.09c.3-.29.66-.44,1.07-.44M71.21,23.53s.05,0,.07.01c.05.02.08.08.08.17,0,.09.01.25.01.48v10.26c.02.38.08.73.18,1.06.1.33.26.49.47.49.15,0,.26.04.34.13s.11.18.11.28-.04.2-.13.28c-.08.08-.19.13-.32.13h-3.84c-.15,0-.26-.04-.34-.13-.08-.08-.11-.18-.11-.28s.04-.2.11-.28c.08-.08.19-.13.34-.13.21,0,.36-.18.47-.54.1-.36.16-.73.16-1.13v-8.02c0-.11-.03-.21-.1-.3-.07-.08-.14-.16-.21-.24-.09-.08-.2-.15-.31-.23-.17-.08-.29-.16-.37-.25-.06-.09-.07-.19-.04-.28.03-.09.16-.2.38-.31.57-.26,1.1-.49,1.6-.68.5-.19.81-.3.95-.34.17-.06.3-.1.38-.13.05-.02.09-.03.13-.03M69.94,18.81c-.67,0-1.28.25-1.77.72-.5.48-.76,1.11-.76,1.81s.26,1.33.76,1.81c.11.11.24.21.36.29-.26.11-.52.23-.79.36-.34.17-.77.43-.92.93-.11.37-.06.75.14,1.09.02.04.05.07.07.1.16.2.38.37.66.51.04.03.08.06.12.08v7.83c0,.26-.03.5-.08.73-.24.07-.46.21-.62.4-.24.26-.36.59-.36.95s.13.68.37.95c.26.29.65.46,1.08.46h3.84c.4,0,.77-.15,1.04-.42.27-.27.42-.62.42-.99s-.13-.68-.36-.95c-.17-.19-.39-.33-.64-.4-.05-.21-.09-.43-.1-.66v-10.21c0-.27,0-.46-.02-.57-.03-.32-.17-.6-.37-.79.31-.43.47-.94.47-1.49,0-.69-.25-1.32-.73-1.79-.48-.48-1.1-.73-1.8-.73h0Z"/>
    </g>
    <g>
      <path class="cls-2" d="M80.78,37.52c-.5,0-.95-.06-1.34-.18-.38-.11-.73-.26-1.04-.45-.14-.08-.27-.17-.39-.26-.13.45-.47.69-.93.69h-2.83c-.37,0-.59-.16-.71-.3-.16-.17-.24-.39-.24-.61s.08-.44.24-.62c.11-.12.3-.27.62-.29.03-.05.05-.14.08-.26.03-.17.05-.37.06-.57,0-.23.01-.45.01-.67v-4.38c0-1.08,0-2.45-.01-4.1,0-1.66-.01-3.7-.01-6.13-.05-.11-.09-.17-.14-.21s-.1-.09-.16-.12c-.19-.08-.37-.21-.5-.37-.17-.27-.2-.51-.13-.74.09-.31.39-.49.64-.61.59-.27,1.14-.51,1.64-.7.52-.2.85-.31.98-.35.14-.05.26-.09.35-.12.13-.05.24-.07.35-.07.05,0,.17.02.22.03.14.05.38.18.45.57.02.12.04.32.04.58v6.74c.11-.08.22-.16.34-.23.3-.18.65-.33,1.04-.46.4-.13.86-.19,1.36-.19.36,0,.79.09,1.31.29.53.2,1.04.57,1.51,1.11.46.53.86,1.27,1.19,2.21.32.93.48,2.15.48,3.63s-.16,2.72-.48,3.63c-.32.92-.72,1.66-1.19,2.18-.48.54-1,.91-1.53,1.09-.51.17-.93.25-1.29.25ZM78.06,34.55c.08.14.16.29.26.45.11.17.25.33.41.48.16.14.34.26.54.35.19.08.42.13.69.13.3,0,.51-.11.69-.34.23-.3.41-.71.53-1.23.13-.56.22-1.19.27-1.88.05-.71.07-1.44.07-2.16s-.02-1.45-.07-2.16c-.04-.69-.14-1.33-.27-1.89-.12-.52-.31-.95-.54-1.26-.18-.24-.39-.35-.69-.35-.52,0-.92.15-1.21.45-.31.33-.56.67-.72,1l.03,8.41Z"/>
      <path class="cls-3" d="M77.33,16.58s.04,0,.06,0c.06.02.09.08.11.18s.03.27.03.5v7.96c.11-.15.26-.32.44-.51.18-.19.4-.36.66-.52.26-.16.58-.3.93-.41.36-.11.76-.17,1.21-.17.3,0,.68.08,1.13.25.45.17.89.49,1.31.97s.79,1.16,1.09,2.04c.3.88.45,2.04.45,3.47s-.15,2.6-.45,3.47c-.3.87-.66,1.54-1.09,2.02-.42.48-.86.79-1.31.94-.45.15-.83.23-1.13.23-.45,0-.85-.05-1.2-.16-.35-.1-.66-.24-.92-.4-.26-.16-.48-.32-.66-.49-.18-.17-.32-.33-.44-.48v.9c-.04.28-.2.42-.48.42h-2.83c-.15,0-.26-.04-.34-.13-.08-.08-.11-.18-.11-.28s.04-.2.11-.28c.08-.08.19-.13.34-.13.13,0,.24-.06.31-.18s.13-.28.17-.48c.04-.2.06-.41.07-.65,0-.24.01-.47.01-.69v-4.38c0-1.08,0-2.45-.01-4.1,0-1.65-.01-3.7-.01-6.13,0-.11-.03-.22-.08-.31-.06-.09-.12-.18-.2-.25s-.16-.14-.25-.2c-.17-.08-.29-.16-.37-.25-.06-.09-.07-.19-.04-.28.03-.09.16-.2.38-.31.57-.26,1.1-.49,1.6-.68.5-.19.81-.3.95-.34.17-.06.3-.1.4-.14.06-.02.12-.04.16-.04M79.97,36.45c.45,0,.81-.18,1.09-.54.27-.36.48-.83.62-1.41.14-.58.24-1.24.28-1.96.05-.73.07-1.46.07-2.19s-.02-1.46-.07-2.19c-.05-.72-.14-1.38-.28-1.98-.14-.59-.35-1.07-.62-1.44s-.64-.55-1.09-.55c-.66,0-1.18.2-1.57.61-.39.41-.67.82-.86,1.23l.03,8.65c.09.19.21.39.34.59s.3.4.5.58c.2.18.42.33.68.44.25.11.55.17.89.17M77.33,15.58c-.17,0-.35.04-.53.11-.09.03-.2.07-.34.12-.02,0-.21.06-.98.35-.52.2-1.08.43-1.67.71-.34.17-.77.43-.92.93-.11.36-.06.75.15,1.09.02.04.05.07.07.1.16.21.38.37.66.51,0,0,.02.01.02.02,0,2.37,0,4.37.01,6,0,1.65.01,3.02.01,4.1v4.38c0,.21,0,.43-.01.65,0,.15-.02.3-.04.43-.23.08-.44.21-.6.39-.24.26-.36.59-.36.94s.13.68.37.95c.26.29.65.46,1.08.46h2.83c.46,0,.85-.17,1.11-.47.33.19.7.35,1.11.47.44.13.94.2,1.48.2.41,0,.88-.09,1.44-.28.62-.21,1.21-.62,1.75-1.23.52-.58.94-1.35,1.28-2.35.34-.98.51-2.22.51-3.8s-.17-2.79-.51-3.79c-.35-1.02-.77-1.8-1.29-2.38-.53-.6-1.11-1.02-1.71-1.25-.57-.21-1.06-.32-1.48-.32-.55,0-1.06.07-1.52.22-.26.08-.51.18-.73.28v-5.86c0-.29-.01-.5-.04-.67-.12-.66-.58-.89-.77-.95-.13-.04-.26-.06-.39-.06h0ZM78.54,26.26c.14-.25.34-.51.58-.77.12-.13.34-.3.84-.3.14,0,.2.03.29.15.19.26.34.62.45,1.08.13.54.21,1.15.26,1.81.05.7.07,1.42.07,2.12s-.02,1.43-.07,2.13c-.04.66-.13,1.26-.26,1.79-.11.44-.26.79-.44,1.04-.08.11-.15.14-.29.14-.2,0-.36-.03-.48-.08-.16-.07-.3-.16-.41-.27-.13-.12-.24-.24-.32-.38-.07-.11-.13-.21-.18-.31l-.03-8.16h0Z"/>
    </g>
    <g>
      <path class="cls-2" d="M86.75,37.32c-.37,0-.59-.16-.71-.3-.16-.18-.24-.39-.24-.61s.08-.44.24-.61c.1-.11.26-.24.52-.28.06-.18.1-.34.12-.52.06-.27.09-.56.11-.88v-8c-.04-.08-.08-.13-.14-.18s-.11-.1-.17-.15c-.21-.1-.38-.23-.49-.37-.17-.27-.2-.51-.13-.74.09-.31.39-.49.64-.61l1.66-1c.22-.15.48-.23.76-.23.12,0,.24.02.36.04.38.09.7.32.92.65.13.22.22.46.27.74.16-.13.34-.26.52-.39.33-.22.69-.42,1.1-.59.43-.17.88-.26,1.33-.26.76,0,1.41.28,1.93.84.51.55.77,1.18.77,1.9,0,.65-.18,1.19-.54,1.61-.37.44-.85.67-1.37.67-.3,0-.59-.06-.85-.19-.27-.13-.49-.3-.65-.52-.17-.23-.27-.5-.29-.81-.03-.31.05-.64.22-.99.27-.52.24-.72.23-.76-.04,0-.07,0-.11,0-.18,0-.44.07-.85.31-.4.23-.86.58-1.37,1.06v8.01c.02.3.05.59.1.83.03.22.07.39.12.55.28.04.45.17.55.29.16.18.24.39.24.61,0,.24-.09.46-.27.64s-.41.27-.68.27h-3.84Z"/>
      <path class="cls-3" d="M88.91,23.32c.08,0,.16.01.24.03.26.07.47.21.62.44.09.15.16.33.2.55.04.22.06.55.06,1,.09-.09.25-.24.47-.45.22-.21.48-.41.78-.62.3-.21.64-.39,1-.54.37-.15.75-.23,1.14-.23.62,0,1.14.23,1.57.68s.64.97.64,1.55c0,.53-.14.96-.42,1.29-.28.33-.61.49-.99.49-.23,0-.44-.05-.64-.14-.2-.09-.35-.22-.47-.37-.11-.15-.18-.33-.2-.55-.02-.22.04-.46.17-.72.25-.47.33-.84.27-1.1s-.25-.4-.54-.41c0,0-.02,0-.03,0-.29,0-.67.13-1.13.4-.48.27-1.02.7-1.62,1.29v8.22c.02.36.06.67.11.93.04.25.09.46.16.65.07.19.16.28.3.28.15,0,.26.04.34.13s.11.18.11.28-.04.2-.13.28-.19.13-.33.13h-3.84c-.15,0-.26-.04-.34-.13s-.11-.18-.11-.28.04-.2.11-.28.19-.13.34-.13c.11,0,.2-.09.27-.28.07-.19.12-.41.16-.65.06-.26.09-.57.11-.93v-8.02c0-.11-.03-.21-.08-.3-.06-.08-.12-.17-.2-.24s-.16-.15-.25-.23c-.17-.08-.29-.16-.37-.25-.06-.09-.07-.19-.04-.28.03-.09.16-.2.38-.31l1.69-1.02c.16-.1.32-.16.5-.16M88.91,22.32c-.37,0-.73.11-1.05.32l-1.62.97c-.31.16-.71.42-.86.9-.11.36-.06.75.14,1.09.02.04.05.07.07.1.15.19.35.35.61.48.03.03.06.05.08.08v7.84c-.02.29-.05.54-.09.75,0,.02,0,.04-.01.06-.01.07-.02.14-.04.2-.19.08-.35.2-.49.35-.24.27-.36.6-.36.95s.13.68.36.95c.27.3.65.46,1.09.46h3.84c.39,0,.76-.15,1.03-.42s.42-.62.42-.99c0-.35-.13-.68-.36-.95-.14-.16-.32-.28-.52-.36-.01-.06-.02-.12-.03-.19,0-.02,0-.04,0-.05-.04-.21-.07-.46-.09-.75v-7.76c.39-.35.74-.62,1.05-.81-.14.35-.19.69-.16,1.02.03.4.17.76.39,1.06.21.28.49.51.84.67.33.16.69.24,1.06.24.67,0,1.28-.29,1.75-.84.44-.51.66-1.16.66-1.94,0-.84-.3-1.6-.91-2.24-.61-.65-1.4-.99-2.3-.99-.52,0-1.04.1-1.52.3-.43.18-.82.39-1.18.63-.03-.06-.06-.12-.1-.18-.3-.46-.72-.75-1.23-.88-.16-.04-.32-.06-.48-.06h0Z"/>
    </g>
    <g>
      <path class="cls-2" d="M101.61,37.54c-1,0-1.87-.2-2.59-.6-.75-.42-1.36-.98-1.83-1.69-.45-.69-.8-1.49-1.02-2.39-.22-.88-.33-1.83-.35-2.82-.02-.98.11-1.9.39-2.75.28-.86.69-1.61,1.22-2.24.53-.63,1.17-1.14,1.9-1.5.74-.36,1.54-.55,2.38-.55,1.53,0,2.72.35,3.54,1.04.85.71,1.28,1.63,1.28,2.72,0,.82-.15,1.52-.46,2.08-.3.56-.69,1.01-1.17,1.35-.46.33-.98.57-1.56.73-.54.15-1.08.25-1.62.31-.46.05-.89.08-1.3.08,0,0-.61,0-.79-.01.01.38.04.79.09,1.21.06.59.19,1.15.37,1.65.17.48.41.88.7,1.19.25.26.55.38.96.38.66,0,1.21-.09,1.62-.28.41-.19.74-.42.97-.69.24-.28.41-.58.51-.9.11-.34.16-.66.16-.96,0-.41.3-.7.73-.7.4,0,.7.29.7.7,0,.72-.13,1.39-.38,1.97-.25.58-.59,1.07-1.02,1.47-.43.4-.93.71-1.5.91-.56.2-1.17.3-1.81.3h-.14ZM101.72,24.32c-.33,0-.59.1-.81.29-.26.23-.47.54-.63.9-.17.4-.3.84-.39,1.32-.09.49-.16.98-.19,1.45-.04.47-.05.88-.05,1.25v.23c.13-.01.29-.03.46-.05.39-.05.8-.18,1.22-.4.4-.21.76-.52,1.06-.92.28-.37.42-.92.42-1.63,0-.75-.11-1.39-.34-1.89-.22-.49-.5-.55-.75-.55Z"/>
      <path class="cls-3" d="M101.72,23.51c1.41,0,2.49.31,3.22.92.73.61,1.1,1.39,1.1,2.34,0,.74-.13,1.35-.4,1.84-.26.49-.6.88-1.02,1.18-.41.29-.88.51-1.4.65-.52.14-1.03.24-1.54.3-.43.05-.85.07-1.24.07-.07,0-.13,0-.2,0-.45,0-.82-.01-1.1-.01,0,.55.03,1.14.1,1.77.07.63.2,1.22.4,1.77.2.55.47,1,.8,1.36.34.36.78.54,1.33.54.73,0,1.34-.11,1.82-.32s.86-.49,1.14-.82c.28-.33.48-.69.61-1.07.12-.39.18-.76.18-1.12,0-.13.08-.2.23-.2.13,0,.2.07.2.2,0,.66-.11,1.25-.34,1.77-.23.52-.53.95-.9,1.31-.38.36-.82.62-1.33.81-.51.18-1.05.27-1.64.27-.05,0-.09,0-.14,0-.92,0-1.7-.18-2.35-.54-.68-.38-1.23-.89-1.65-1.53-.42-.64-.74-1.38-.95-2.23s-.32-1.75-.34-2.71c-.02-.92.1-1.78.37-2.58s.64-1.49,1.13-2.08c.49-.58,1.07-1.04,1.74-1.37.67-.33,1.39-.49,2.16-.49M99.15,30.29c.23,0,.57-.03,1.02-.08s.91-.21,1.38-.45c.47-.25.88-.6,1.23-1.06s.52-1.11.52-1.94-.13-1.53-.38-2.09-.66-.85-1.2-.85c-.45,0-.83.14-1.14.42-.31.28-.56.64-.75,1.07-.19.43-.33.91-.42,1.43-.09.52-.16,1.02-.2,1.5s-.06.91-.06,1.29v.76M101.72,22.51c-.92,0-1.8.2-2.6.6-.79.39-1.48.94-2.06,1.62-.57.68-1.01,1.49-1.31,2.41-.3.9-.44,1.89-.42,2.92.02,1.03.14,2.01.37,2.93.23.96.6,1.81,1.09,2.55.51.77,1.18,1.39,2,1.85.8.44,1.75.66,2.84.66h.16s0,0,0,0c.68,0,1.34-.11,1.95-.33.64-.23,1.2-.57,1.68-1.02.47-.45.86-1,1.13-1.64.28-.64.42-1.37.42-2.17,0-.68-.51-1.2-1.2-1.2s-1.23.51-1.23,1.2c0,.25-.05.53-.14.81-.08.26-.22.5-.41.73-.18.21-.45.4-.8.56-.35.16-.82.24-1.41.24-.34,0-.5-.11-.6-.23-.24-.26-.44-.6-.59-1.01-.17-.47-.28-.99-.34-1.53-.02-.22-.04-.44-.06-.65.01,0,.03,0,.04,0h.22c.43,0,.88-.02,1.35-.08.56-.06,1.13-.17,1.69-.33.63-.17,1.2-.44,1.71-.8.54-.38.99-.89,1.32-1.52.34-.63.51-1.41.51-2.31,0-1.23-.5-2.3-1.46-3.1-.92-.77-2.22-1.15-3.86-1.15h0ZM100.15,29.2c0-.27.02-.56.05-.88.04-.45.1-.92.19-1.4.08-.44.2-.85.36-1.21.13-.3.3-.55.5-.73.09-.08.22-.17.47-.17.1,0,.17,0,.29.26.2.43.29,1,.29,1.68,0,.6-.11,1.05-.32,1.33-.26.34-.55.6-.89.78-.32.17-.64.28-.94.33h0Z"/>
    </g>
    <g>
      <path class="cls-2" d="M107.63,37.32c-.37,0-.59-.16-.71-.3-.16-.18-.24-.39-.24-.61s.08-.44.24-.61c.1-.11.26-.24.52-.28.06-.18.1-.34.12-.52.06-.27.09-.56.11-.88v-8c-.04-.08-.08-.13-.14-.18s-.11-.1-.17-.15c-.21-.1-.38-.23-.49-.37-.17-.27-.2-.51-.13-.74.09-.31.39-.49.64-.61l1.66-1c.22-.15.48-.23.76-.23.12,0,.24.02.36.04.38.09.7.32.92.65.13.22.22.46.27.74.16-.13.34-.26.52-.39.33-.22.69-.42,1.1-.59.43-.17.88-.26,1.33-.26.76,0,1.41.28,1.93.84.51.55.77,1.18.77,1.9,0,.65-.18,1.19-.54,1.61-.37.44-.85.67-1.37.67-.3,0-.59-.06-.85-.19-.27-.13-.49-.3-.65-.52-.17-.23-.27-.5-.29-.81-.03-.31.05-.64.22-.99.27-.52.24-.72.23-.76-.04,0-.07,0-.11,0-.18,0-.44.07-.85.31-.4.23-.86.58-1.37,1.06v8.01c.02.3.05.59.1.83.03.22.07.39.12.55.28.04.45.17.55.29.16.18.24.39.24.61,0,.24-.09.46-.27.64s-.41.27-.68.27h-3.84Z"/>
      <path class="cls-3" d="M109.79,23.32c.08,0,.16.01.24.03.26.07.47.21.62.44.09.15.16.33.2.55.04.22.06.55.06,1,.09-.09.25-.24.47-.45.22-.21.48-.41.78-.62.3-.21.64-.39,1-.54.37-.15.75-.23,1.14-.23.62,0,1.14.23,1.57.68s.64.97.64,1.55c0,.53-.14.96-.42,1.29-.28.33-.61.49-.99.49-.23,0-.44-.05-.64-.14-.2-.09-.35-.22-.47-.37-.11-.15-.18-.33-.2-.55-.02-.22.04-.46.17-.72.25-.47.33-.84.27-1.1s-.25-.4-.54-.41c0,0-.02,0-.03,0-.29,0-.67.13-1.13.4-.48.27-1.02.7-1.62,1.29v8.22c.02.36.06.67.11.93.04.25.09.46.16.65.07.19.16.28.3.28.15,0,.26.04.34.13s.11.18.11.28-.04.2-.13.28-.19.13-.33.13h-3.84c-.15,0-.26-.04-.34-.13s-.11-.18-.11-.28.04-.2.11-.28.19-.13.34-.13c.11,0,.2-.09.27-.28.07-.19.12-.41.16-.65.06-.26.09-.57.11-.93v-8.02c0-.11-.03-.21-.08-.3-.06-.08-.12-.17-.2-.24s-.16-.15-.25-.23c-.17-.08-.29-.16-.37-.25-.06-.09-.07-.19-.04-.28.03-.09.16-.2.38-.31l1.69-1.02c.16-.1.32-.16.5-.16M109.79,22.32c-.37,0-.73.11-1.05.32l-1.62.97c-.31.16-.71.42-.86.9-.11.36-.06.75.14,1.09.02.04.05.07.07.1.15.19.35.35.61.48.03.03.06.05.08.08v7.84c-.02.29-.05.54-.09.75,0,.02,0,.04-.01.06-.01.07-.02.14-.04.2-.19.08-.35.2-.49.35-.24.27-.36.6-.36.95s.13.68.36.95c.27.3.65.46,1.09.46h3.84c.39,0,.76-.15,1.03-.42s.42-.62.42-.99c0-.35-.13-.68-.36-.95-.14-.16-.32-.28-.52-.36-.01-.06-.02-.12-.03-.19,0-.02,0-.04,0-.05-.04-.21-.07-.46-.09-.75v-7.76c.39-.35.74-.62,1.05-.81-.14.35-.19.69-.16,1.02.03.4.17.76.39,1.06.21.28.49.51.84.67.33.16.69.24,1.06.24.67,0,1.28-.29,1.75-.84.44-.51.66-1.16.66-1.94,0-.84-.3-1.6-.91-2.24-.61-.65-1.4-.99-2.3-.99-.52,0-1.04.1-1.52.3-.43.18-.82.39-1.18.63-.03-.06-.06-.12-.1-.18-.3-.46-.72-.75-1.23-.88-.16-.04-.32-.06-.48-.06h0Z"/>
    </g>
  </g>
</svg>