<?xml version="1.0" encoding="UTF-8"?>
<svg id="tel-manette" xmlns="http://www.w3.org/2000/svg" viewBox="0 0 329.46 104.01">
  <defs>
    <style>
      .cls-1 {
        stroke-linecap: round;
        stroke-linejoin: round;
        stroke-width: 3px;
      }

      .cls-1, .cls-2 {
        stroke: #ffba63;
      }

      .cls-1, .cls-2, .cls-3 {
        fill: none;
      }

      .cls-4 {
        fill: #913333;
      }

      .cls-4, .cls-2, .cls-3 {
        stroke-miterlimit: 10;
      }

      .cls-4, .cls-3 {
        stroke: #000;
        stroke-width: 2px;
      }

      .cls-5 {
        fill: #ffba63;
        stroke-width: 0px;
      }
    </style>
  </defs>
  <g id="design-haut">
    <g>
      <rect class="cls-4" x="13.5" y="9.36" width="299.56" height="85.27"/>
      <g>
        <path class="cls-5" d="M163.95,63.6c0,.26-.13.39-.4.39-.25,0-.45.04-.59.13s-.26.18-.36.27c-.1.12-.17.25-.23.4l-3.43,11.45c-.04.1-.09.21-.16.35s-.21.2-.42.2c-.17,0-.31-.09-.4-.26-.06-.08-.1-.17-.12-.29l-4.15-11.91c-.02-.06-.06-.12-.12-.17-.12-.12-.27-.17-.46-.17-.27,0-.4-.13-.4-.39,0-.24.13-.36.4-.36h3.81c.25,0,.37.12.37.36,0,.26-.12.39-.37.39-.15,0-.25.03-.29.09-.04.06-.07.12-.09.17-.02.08-.01.15.03.23l2.94,7.82,2.22-7.5c.06-.15.08-.29.06-.4-.02-.1-.07-.19-.16-.27s-.25-.13-.5-.13c-.27,0-.4-.13-.4-.39,0-.24.13-.36.4-.36h2.42c.27,0,.4.12.4.36Z"/>
        <path class="cls-5" d="M173.75,66.33c0,.75-.13,1.38-.4,1.88-.27.5-.62.9-1.04,1.2-.42.3-.9.52-1.43.67s-1.05.25-1.57.3-1.01.08-1.47.07c-.46,0-.84-.01-1.12-.01,0,.56.03,1.16.1,1.81.07.65.2,1.25.4,1.81.2.56.48,1.02.82,1.39.35.37.8.55,1.36.55.75,0,1.37-.11,1.86-.33.49-.22.88-.5,1.17-.84.29-.34.5-.7.62-1.1.12-.39.19-.77.19-1.14,0-.13.08-.2.23-.2.13,0,.2.07.2.2,0,.67-.12,1.27-.35,1.8-.23.53-.54.97-.92,1.34-.38.36-.84.64-1.36.82s-1.08.28-1.67.28c-1,.02-1.85-.16-2.54-.55-.69-.38-1.25-.9-1.69-1.56-.43-.65-.75-1.41-.97-2.28s-.33-1.79-.35-2.77c-.02-.94.11-1.82.37-2.64.27-.82.65-1.52,1.15-2.12s1.09-1.06,1.77-1.4c.68-.34,1.42-.5,2.21-.5,1.44,0,2.54.31,3.29.94s1.12,1.42,1.12,2.38ZM166.72,69.93c.23,0,.58-.03,1.04-.09.46-.06.93-.21,1.41-.46.48-.25.9-.61,1.25-1.08.36-.47.53-1.13.53-1.98s-.13-1.56-.39-2.13c-.26-.58-.67-.87-1.23-.87-.46,0-.85.14-1.17.43-.32.29-.57.65-.76,1.1-.19.44-.34.93-.43,1.46-.1.53-.16,1.04-.2,1.53s-.06.93-.06,1.31v.78Z"/>
        <path class="cls-5" d="M182.18,63.01c.63,0,1.17.23,1.6.69.43.46.65.99.65,1.59,0,.54-.14.98-.43,1.31s-.62.5-1.01.5c-.23,0-.45-.05-.65-.14-.2-.1-.36-.22-.48-.38-.12-.15-.18-.34-.2-.56-.02-.22.04-.47.17-.74.25-.48.34-.86.27-1.12s-.25-.41-.55-.42c-.3,0-.69.12-1.18.4-.49.28-1.04.72-1.66,1.31v8.39c.02.37.06.68.12.95.04.25.09.47.16.66s.17.29.3.29c.15,0,.27.04.35.13.08.09.12.18.12.29s-.04.2-.13.29c-.09.09-.2.13-.33.13h-3.92c-.15,0-.27-.04-.35-.13s-.12-.18-.12-.29.04-.2.12-.29c.08-.09.19-.13.35-.13.12,0,.21-.1.27-.29s.12-.41.16-.66c.06-.27.1-.59.12-.95v-8.19c0-.12-.03-.22-.09-.3-.06-.09-.12-.17-.2-.25-.08-.08-.16-.15-.26-.23-.17-.08-.3-.16-.38-.26-.06-.1-.07-.19-.04-.29.03-.1.16-.2.39-.32l1.73-1.04c.23-.15.48-.2.75-.13.27.07.48.22.63.45.1.15.16.34.2.56.04.22.06.56.06,1.02.1-.1.25-.25.48-.46.22-.21.49-.42.79-.63.31-.21.65-.39,1.02-.55.38-.15.76-.23,1.17-.23Z"/>
        <path class="cls-5" d="M189.44,68.61c.65.29,1.32.58,2,.87.68.29,1.29.61,1.83.95.54.35.98.74,1.33,1.18s.52.96.52,1.56c0,.75-.16,1.36-.49,1.83-.33.47-.74.84-1.23,1.11-.49.27-1.03.45-1.63.55-.6.1-1.15.14-1.67.14-.48,0-1.01-.07-1.6-.2-.59-.13-1.14-.34-1.66-.62-.52-.28-.95-.63-1.3-1.05-.35-.42-.52-.91-.52-1.47,0-.38.07-.73.22-1.02.14-.3.33-.54.56-.74.23-.19.49-.31.76-.35.28-.04.56,0,.85.14.29.13.49.3.61.5.12.2.17.41.17.63s-.06.44-.17.66-.27.43-.46.62c-.25.25-.34.51-.27.78.07.27.24.51.52.72.28.21.62.39,1.02.53.4.14.83.22,1.27.22.75,0,1.36-.16,1.85-.49.48-.33.78-.72.89-1.18s.01-.95-.3-1.47-.91-.97-1.77-1.36c-.44-.19-.97-.42-1.59-.68-.62-.26-1.2-.58-1.76-.95-.56-.38-1.04-.81-1.44-1.3-.4-.49-.61-1.07-.61-1.75,0-1.17.38-2.11,1.15-2.83.77-.71,1.96-1.07,3.58-1.07.75,0,1.41.1,1.98.3.57.2,1.04.45,1.43.75.38.3.67.63.87.99.19.37.29.71.29,1.04,0,.46-.06.84-.19,1.14-.12.3-.29.53-.49.69-.2.16-.42.26-.66.3-.24.04-.47,0-.68-.09-.5-.19-.8-.53-.89-1.01-.1-.48.1-.97.61-1.47.23-.23.37-.47.42-.72s-.01-.49-.19-.71c-.17-.22-.46-.4-.87-.55-.4-.14-.94-.22-1.61-.22-.88,0-1.53.21-1.95.63-.41.42-.63.92-.65,1.48-.02.57.14,1.13.48,1.69.34.56.82.97,1.46,1.24Z"/>
        <path class="cls-5" d="M208.31,75.76c.15,0,.27.04.35.13.08.09.12.18.12.29s-.04.2-.13.29-.2.13-.33.13h-3.92c-.15,0-.27-.04-.35-.13-.08-.09-.12-.18-.12-.29s.04-.2.12-.29c.08-.09.19-.13.35-.13s.26-.15.33-.45c.07-.3.12-.64.16-1.02.04-.44.05-.94.03-1.5v-14.07c0-.12-.03-.22-.09-.3-.06-.09-.13-.17-.2-.24-.08-.08-.16-.15-.26-.23-.17-.08-.3-.16-.38-.26-.06-.1-.07-.19-.04-.29s.16-.2.39-.32c.56-.27,1.09-.5,1.6-.68.51-.18.84-.29.99-.33.17-.06.31-.11.4-.14s.17-.05.23-.03c.06.02.1.08.12.17.02.1.03.26.03.49v2.16l.03,14.45v.76c0,.3.01.58.04.85.03.27.09.5.17.69s.21.29.36.29Z"/>
        <path class="cls-5" d="M220.19,75.76c.15,0,.27.04.35.13.08.09.12.18.12.29s-.04.2-.13.29c-.09.09-.2.13-.33.13h-2.91c-.12,0-.22-.04-.32-.12-.1-.08-.15-.18-.17-.32v-.55c-.37.33-.79.61-1.28.84-.49.23-1.14.35-1.95.35-.42,0-.86-.08-1.3-.23-.44-.15-.84-.38-1.2-.68-.36-.3-.65-.67-.88-1.12-.23-.45-.35-.97-.35-1.54,0-.69.16-1.29.48-1.8s.74-.93,1.27-1.25c.53-.33,1.13-.57,1.8-.72s1.36-.23,2.05-.23c.29,0,.55,0,.78.03s.42.04.58.06v-2.05c0-.44,0-.89.01-1.34,0-.45-.02-.86-.1-1.21-.08-.36-.21-.65-.4-.88-.19-.23-.49-.35-.89-.35s-.8.06-1.2.19c-.39.12-.71.3-.95.52-.24.22-.37.49-.39.81s.13.67.46,1.05c.25.31.4.62.45.92.05.31.02.59-.09.84-.11.25-.28.46-.52.62-.24.16-.5.26-.79.27-.6.04-1.06-.11-1.38-.43-.33-.33-.49-.75-.49-1.27,0-.38.09-.81.26-1.27.17-.46.45-.89.84-1.28s.89-.72,1.51-.98c.62-.26,1.39-.39,2.29-.39,1.44,0,2.48.34,3.13,1.02.64.68.97,1.76.97,3.22l.03,6.4c0,.23,0,.47.03.71.02.24.05.46.1.66.05.2.12.37.2.49.09.13.2.19.33.19ZM214.59,76.05c.5,0,.93-.11,1.3-.32s.66-.44.89-.7v-5.16c-.12-.06-.28-.12-.49-.19-.21-.07-.5-.1-.87-.1-.96,0-1.68.33-2.15.99-.47.66-.71,1.55-.71,2.67,0,.99.18,1.7.55,2.14.36.44.86.67,1.47.67Z"/>
        <path class="cls-5" d="M236.91,63.01c.63,0,1.17.23,1.6.69.43.46.65.99.65,1.59,0,.54-.14.98-.43,1.31s-.62.5-1.01.5c-.23,0-.45-.05-.65-.14-.2-.1-.36-.22-.48-.38-.12-.15-.18-.34-.2-.56-.02-.22.04-.47.17-.74.25-.48.34-.86.27-1.12s-.25-.41-.55-.42c-.3,0-.69.12-1.18.4-.49.28-1.04.72-1.66,1.31v8.39c.02.37.06.68.12.95.04.25.09.47.16.66s.17.29.3.29c.15,0,.27.04.35.13.08.09.12.18.12.29s-.04.2-.13.29c-.09.09-.2.13-.33.13h-3.92c-.15,0-.27-.04-.35-.13s-.12-.18-.12-.29.04-.2.12-.29c.08-.09.19-.13.35-.13.12,0,.21-.1.27-.29s.12-.41.16-.66c.06-.27.1-.59.12-.95v-8.19c0-.12-.03-.22-.09-.3-.06-.09-.12-.17-.2-.25-.08-.08-.16-.15-.26-.23-.17-.08-.3-.16-.38-.26-.06-.1-.07-.19-.04-.29.03-.1.16-.2.39-.32l1.73-1.04c.23-.15.48-.2.75-.13.27.07.48.22.63.45.1.15.16.34.2.56.04.22.06.56.06,1.02.1-.1.25-.25.48-.46.22-.21.49-.42.79-.63.31-.21.65-.39,1.02-.55.38-.15.76-.23,1.17-.23Z"/>
        <path class="cls-5" d="M249.81,66.33c0,.75-.13,1.38-.4,1.88-.27.5-.62.9-1.04,1.2-.42.3-.9.52-1.43.67s-1.05.25-1.57.3-1.01.08-1.47.07c-.46,0-.84-.01-1.12-.01,0,.56.03,1.16.1,1.81.07.65.2,1.25.4,1.81.2.56.48,1.02.82,1.39.35.37.8.55,1.36.55.75,0,1.37-.11,1.86-.33.49-.22.88-.5,1.17-.84.29-.34.5-.7.62-1.1.12-.39.19-.77.19-1.14,0-.13.08-.2.23-.2.13,0,.2.07.2.2,0,.67-.12,1.27-.35,1.8-.23.53-.54.97-.92,1.34-.38.36-.84.64-1.36.82s-1.08.28-1.67.28c-1,.02-1.85-.16-2.54-.55-.69-.38-1.25-.9-1.69-1.56-.43-.65-.75-1.41-.97-2.28s-.33-1.79-.35-2.77c-.02-.94.11-1.82.37-2.64.27-.82.65-1.52,1.15-2.12s1.09-1.06,1.77-1.4c.68-.34,1.42-.5,2.21-.5,1.44,0,2.54.31,3.29.94s1.12,1.42,1.12,2.38ZM242.77,69.93c.23,0,.58-.03,1.04-.09.46-.06.93-.21,1.41-.46.48-.25.9-.61,1.25-1.08.36-.47.53-1.13.53-1.98s-.13-1.56-.39-2.13c-.26-.58-.67-.87-1.23-.87-.46,0-.85.14-1.17.43-.32.29-.57.65-.76,1.1-.19.44-.34.93-.43,1.46-.1.53-.16,1.04-.2,1.53s-.06.93-.06,1.31v.78Z"/>
        <path class="cls-5" d="M260.97,72.07c.15,0,.23.08.23.23,0,.44-.1.93-.3,1.46-.2.53-.5,1.02-.88,1.47-.38.45-.87.83-1.44,1.12s-1.24.45-1.99.45c-.96,0-1.79-.17-2.49-.5-.7-.34-1.28-.81-1.73-1.43-.45-.62-.78-1.37-1-2.26-.21-.89-.32-1.89-.32-2.98,0-.94.15-1.81.45-2.61.3-.8.7-1.49,1.2-2.06.5-.58,1.08-1.03,1.74-1.36.66-.33,1.37-.49,2.12-.49.79,0,1.47.11,2.05.32.58.21,1.06.49,1.44.84.38.35.67.74.87,1.18s.29.89.29,1.36c0,.52-.12.96-.35,1.31-.23.36-.65.53-1.27.53-.19,0-.4-.04-.62-.13s-.4-.23-.55-.43c-.14-.2-.22-.47-.23-.79-.01-.33.1-.74.33-1.24.12-.25.19-.53.23-.84.04-.31,0-.59-.13-.84-.13-.25-.35-.46-.68-.63-.33-.17-.79-.26-1.38-.26-.69,0-1.22.21-1.57.63-.36.42-.61.95-.75,1.59-.14.63-.22,1.33-.23,2.08,0,.75-.01,1.44-.01,2.08,0,.58.02,1.22.06,1.93.04.71.14,1.38.32,2.02.17.63.43,1.17.78,1.6.35.43.83.65,1.44.65.73,0,1.36-.12,1.88-.38s.95-.56,1.28-.94.59-.78.75-1.23c.16-.44.25-.85.25-1.21,0-.15.08-.23.23-.23Z"/>
        <path class="cls-5" d="M272.36,66.33c0,.75-.13,1.38-.4,1.88-.27.5-.62.9-1.04,1.2-.42.3-.9.52-1.43.67s-1.05.25-1.57.3-1.01.08-1.47.07c-.46,0-.84-.01-1.12-.01,0,.56.03,1.16.1,1.81.07.65.2,1.25.4,1.81.2.56.48,1.02.82,1.39.35.37.8.55,1.36.55.75,0,1.37-.11,1.86-.33.49-.22.88-.5,1.17-.84.29-.34.5-.7.62-1.1.12-.39.19-.77.19-1.14,0-.13.08-.2.23-.2.13,0,.2.07.2.2,0,.67-.12,1.27-.35,1.8-.23.53-.54.97-.92,1.34-.38.36-.84.64-1.36.82s-1.08.28-1.67.28c-1,.02-1.85-.16-2.54-.55-.69-.38-1.25-.9-1.69-1.56-.43-.65-.75-1.41-.97-2.28s-.33-1.79-.35-2.77c-.02-.94.11-1.82.37-2.64.27-.82.65-1.52,1.15-2.12s1.09-1.06,1.77-1.4c.68-.34,1.42-.5,2.21-.5,1.44,0,2.54.31,3.29.94s1.12,1.42,1.12,2.38ZM265.32,69.93c.23,0,.58-.03,1.04-.09.46-.06.93-.21,1.41-.46.48-.25.9-.61,1.25-1.08.36-.47.53-1.13.53-1.98s-.13-1.56-.39-2.13c-.26-.58-.67-.87-1.23-.87-.46,0-.85.14-1.17.43-.32.29-.57.65-.76,1.1-.19.44-.34.93-.43,1.46-.1.53-.16,1.04-.2,1.53s-.06.93-.06,1.31v.78Z"/>
        <path class="cls-5" d="M280.32,63.18c.12,0,.22.04.3.13.09.09.13.19.13.3s-.04.21-.13.29c-.09.08-.19.12-.3.12h-2.36v9.69c0,.42.06.76.17,1.02s.25.47.42.62c.16.15.34.26.52.32.18.06.34.09.48.09.15,0,.27.04.35.13.08.09.12.18.12.29s-.04.2-.13.29c-.09.09-.2.13-.33.13h-1.59c-.79,0-1.45-.27-1.99-.81-.54-.54-.81-1.2-.81-1.99v-9.78h-1.76c-.12,0-.22-.04-.3-.12-.09-.08-.13-.17-.13-.29s.04-.22.13-.3.19-.13.3-.13c.23,0,.55-.1.97-.29.41-.19.83-.45,1.24-.76.41-.32.77-.69,1.07-1.12.3-.43.45-.88.45-1.34,0-.12.04-.22.12-.3.08-.09.17-.13.29-.13s.22.04.3.13.13.19.13.3v2.48c0,.27.03.47.09.61.06.13.17.24.35.3.17.07.41.11.72.12s.71.01,1.21.01Z"/>
        <path class="cls-5" d="M287.53,63.18c.12,0,.22.04.3.13.09.09.13.19.13.3s-.04.21-.13.29c-.09.08-.19.12-.3.12h-2.36v9.69c0,.42.06.76.17,1.02s.25.47.42.62c.16.15.34.26.52.32.18.06.34.09.48.09.15,0,.27.04.35.13.08.09.12.18.12.29s-.04.2-.13.29c-.09.09-.2.13-.33.13h-1.59c-.79,0-1.45-.27-1.99-.81-.54-.54-.81-1.2-.81-1.99v-9.78h-1.76c-.12,0-.22-.04-.3-.12-.09-.08-.13-.17-.13-.29s.04-.22.13-.3.19-.13.3-.13c.23,0,.55-.1.97-.29.41-.19.83-.45,1.24-.76.41-.32.77-.69,1.07-1.12.3-.43.45-.88.45-1.34,0-.12.04-.22.12-.3.08-.09.17-.13.29-.13s.22.04.3.13.13.19.13.3v2.48c0,.27.03.47.09.61.06.13.17.24.35.3.17.07.41.11.72.12s.71.01,1.21.01Z"/>
        <path class="cls-5" d="M297.88,66.33c0,.75-.13,1.38-.4,1.88-.27.5-.62.9-1.04,1.2-.42.3-.9.52-1.43.67s-1.05.25-1.57.3-1.01.08-1.47.07c-.46,0-.84-.01-1.12-.01,0,.56.03,1.16.1,1.81.07.65.2,1.25.4,1.81.2.56.48,1.02.82,1.39.35.37.8.55,1.36.55.75,0,1.37-.11,1.86-.33.49-.22.88-.5,1.17-.84.29-.34.5-.7.62-1.1.12-.39.19-.77.19-1.14,0-.13.08-.2.23-.2.13,0,.2.07.2.2,0,.67-.12,1.27-.35,1.8-.23.53-.54.97-.92,1.34-.38.36-.84.64-1.36.82s-1.08.28-1.67.28c-1,.02-1.85-.16-2.54-.55-.69-.38-1.25-.9-1.69-1.56-.43-.65-.75-1.41-.97-2.28s-.33-1.79-.35-2.77c-.02-.94.11-1.82.37-2.64.27-.82.65-1.52,1.15-2.12s1.09-1.06,1.77-1.4c.68-.34,1.42-.5,2.21-.5,1.44,0,2.54.31,3.29.94s1.12,1.42,1.12,2.38ZM290.85,69.93c.23,0,.58-.03,1.04-.09.46-.06.93-.21,1.41-.46.48-.25.9-.61,1.25-1.08.36-.47.53-1.13.53-1.98s-.13-1.56-.39-2.13c-.26-.58-.67-.87-1.23-.87-.46,0-.85.14-1.17.43-.32.29-.57.65-.76,1.1-.19.44-.34.93-.43,1.46-.1.53-.16,1.04-.2,1.53s-.06.93-.06,1.31v.78Z"/>
      </g>
      <g>
        <path class="cls-5" d="M152.33,25.22c0-.27.19-.46.47-.46h8.16c5.9,0,9.82,3.11,9.82,8.04,0,3.96-2.56,6.52-6.68,7.34l8.04,10.21c.43.58,0,.82-.62.82h-3.15c-.54,0-.7-.16-1.05-.66l-7.46-9.63h-3.46v9.79c0,.31-.19.5-.5.5h-3.11c-.27,0-.47-.19-.47-.5v-25.44ZM156.4,28.17v9.24h4.43c3.38,0,5.63-1.75,5.63-4.62s-2.21-4.62-5.59-4.62h-4.47Z"/>
        <path class="cls-5" d="M176.4,25.22c0-.27.19-.46.47-.46h17.4c.31,0,.5.15.5.46v2.49c0,.27-.19.47-.5.47h-13.79v7.34h9.9c.31,0,.5.2.5.51v2.45c0,.27-.19.51-.5.51h-9.9v8.74h13.79c.31,0,.5.19.5.5v2.45c0,.27-.19.5-.5.5h-17.4c-.27,0-.47-.19-.47-.5v-25.44Z"/>
        <path class="cls-5" d="M205.4,28.17h-8.58c-.31,0-.5-.19-.5-.47v-2.49c0-.31.19-.46.5-.46h21.28c.31,0,.5.15.5.46v2.49c0,.27-.19.47-.5.47h-8.62v22.48c0,.31-.16.5-.47.5h-3.11c-.27,0-.5-.19-.5-.5v-22.48Z"/>
        <path class="cls-5" d="M219.3,37.96c0-8.31,5.01-13.59,12.5-13.59s12.5,5.28,12.5,13.59-4.97,13.59-12.5,13.59-12.5-5.32-12.5-13.59ZM240.04,37.96c0-6.06-3.26-10.06-8.23-10.06s-8.19,4-8.19,10.06,3.26,10.06,8.19,10.06,8.23-4,8.23-10.06Z"/>
        <path class="cls-5" d="M248.77,25.22c0-.27.23-.46.5-.46h3.11c.31,0,.47.19.47.46v16.31c0,4.12,2.56,6.49,6.41,6.49s6.41-2.37,6.41-6.49v-16.31c0-.27.19-.46.5-.46h3.11c.31,0,.47.19.47.46v16.16c0,6.21-4.08,10.17-10.48,10.17s-10.49-3.96-10.49-10.17v-16.16Z"/>
        <path class="cls-5" d="M275.68,25.22c0-.27.19-.46.47-.46h8.16c5.9,0,9.82,3.11,9.82,8.04,0,3.96-2.56,6.52-6.68,7.34l8.04,10.21c.43.58,0,.82-.62.82h-3.15c-.54,0-.7-.16-1.05-.66l-7.46-9.63h-3.46v9.79c0,.31-.19.5-.5.5h-3.11c-.27,0-.47-.19-.47-.5v-25.44ZM279.76,28.17v9.24h4.43c3.38,0,5.63-1.75,5.63-4.62s-2.21-4.62-5.59-4.62h-4.47Z"/>
      </g>
      <g>
        <path class="cls-2" d="M114.27,62.2s.02.01.03.02c1.68,1.18,2.97,2.93,3.54,5.07,1.29,4.83-1.58,9.8-6.42,11.09-4.83,1.29-7.85.39-16.94-9.03"/>
        <path class="cls-2" d="M103.91,70.34c-.08-.21-.15-.43-.21-.66-.98-3.69,1.21-7.47,4.89-8.46,2.03-.54,4.1-.12,5.71.99"/>
        <circle class="cls-5" cx="107.34" cy="68.83" r="4.27"/>
        <path class="cls-2" d="M114.27,39.5s.02-.01.03-.02c1.68-1.18,2.97-2.93,3.54-5.07,1.29-4.83-1.58-9.8-6.42-11.09-4.83-1.29-7.85-.39-16.94,9.03"/>
        <path class="cls-2" d="M103.91,31.35c-.08.21-.15.43-.21.66-.98,3.69,1.21,7.47,4.89,8.46,2.03.54,4.1.12,5.71-.99"/>
        <circle class="cls-5" cx="107.34" cy="32.87" r="4.27"/>
        <path class="cls-5" d="M27.92,50.35c5.8-.96,11.8-1.65,17.87-2.37,3.03-.36,6.09-.71,9.14-1.11,14.49-.66,29.37-5.98,41.07-16.61-5.32,13.82-4.25,28.71,1.06,42.53-12.76-11.7-29.77-13.82-45.32-17.6-2.94-.54-5.9-1.07-8.85-1.59s-5.92-1.04-8.88-1.58c-3.67-.98-6.09-1.68-6.09-1.68Z"/>
      </g>
      <line class="cls-3" x1="1" y1=".32" x2="1" y2="103.93"/>
      <line class="cls-3" x1="328.46" y1=".32" x2="328.46" y2="103.93"/>
      <line class="cls-3" x1="319" y1="1" x2="8.03" y2="1"/>
      <line class="cls-3" x1="319" y1="103.01" x2="8.83" y2="103.01"/>
      <line class="cls-1" x1="138.71" y1="50.82" x2="104.84" y2="50.82"/>
      <path class="cls-5" d="M107.1,50.42c.31.18.31.63,0,.8l-3.79,2.19-3.79,2.19c-.31.18-.7-.04-.7-.4v-4.38s0-4.38,0-4.38c0-.36.39-.58.7-.4l3.79,2.19,3.79,2.19Z"/>
    </g>
  </g>
</svg>