<?xml version="1.0" encoding="UTF-8"?>
<svg id="boutons" xmlns="http://www.w3.org/2000/svg" xmlns:xlink="http://www.w3.org/1999/xlink" viewBox="0 0 169.28 62.02">
  <defs>
    <style>
      .cls-1 {
        fill: url(#Dégradé_sans_nom_2);
        stroke-miterlimit: 10;
      }

      .cls-1, .cls-2 {
        stroke: #252422;
        stroke-width: 2px;
      }

      .cls-2 {
        stroke-linecap: round;
        stroke-linejoin: round;
      }

      .cls-2, .cls-3 {
        fill: #eeebe9;
      }

      .cls-4 {
        fill: #252422;
      }

      .cls-4, .cls-3 {
        stroke-width: 0px;
      }
    </style>
    <radialGradient id="Dégradé_sans_nom_2" data-name="Dégradé sans nom 2" cx="84.64" cy="33.78" fx="84.64" fy="33.78" r="56.31" gradientUnits="userSpaceOnUse">
      <stop offset="0" stop-color="#7f7fc9"/>
      <stop offset="1" stop-color="#5e548b"/>
    </radialGradient>
  </defs>
  <g id="valider">
    <rect class="cls-2" x="1" y="1" width="167.28" height="60.02" rx="9.65" ry="9.65"/>
    <path class="cls-1" d="M161.51,20.21v27.14c0,3.95-3.24,7.19-7.19,7.19H14.95c-3.95,0-7.19-3.24-7.19-7.19v-27.14c0-3.95,3.23-7.19,7.19-7.19h16.74l3.45,10.25,3.04-10.25h116.14c3.95,0,7.19,3.24,7.19,7.19Z"/>
    <g>
      <g>
        <path class="cls-4" d="M32.66,49.06c-.73,0-1.05-.31-1.2-.58-.13-.23-.23-.46-.32-.67-.32-1-.8-2.55-1.44-4.67-.64-2.12-1.35-4.49-2.13-7.13-.78-2.64-1.6-5.38-2.48-8.23-.87-2.85-1.68-5.47-2.42-7.86-.73-2.37-1.38-4.39-1.92-6.01-.74-2.21-.95-2.61-.99-2.68-.39-.5-.58-.53-.58-.53h-.17c-.82,0-1.32-.48-1.32-1.29s.49-1.35,1.32-1.35h8.22c.79,0,1.26.5,1.26,1.35s-.47,1.29-1.26,1.29c-.07,0-.2,0-.2.49-.01.12-.03.47.39,2.12.31,1.21.72,2.71,1.22,4.47.5,1.76,1.08,3.7,1.72,5.81l1.89,6.26c.62,2.05,1.21,3.97,1.78,5.75.33,1.05.63,1.99.88,2.81l7.69-25.55c.11-.42.22-.8.32-1.13.06-.21.07-.39.02-.51-.02-.06-.15-.15-.43-.23-.36-.1-.95-.16-1.76-.16s-1.32-.5-1.32-1.35.49-1.35,1.32-1.35h7c.82,0,1.32.5,1.32,1.35s-.49,1.35-1.32,1.35c-.59,0-1.07.12-1.41.35-.38.26-.67.52-.87.79-.23.36-.42.77-.57,1.2l-8.8,29.2-1.81,5.43c-.1.25-.22.49-.37.72-.23.37-.66.55-1.27.55Z"/>
        <path class="cls-3" d="M27.24,8.57c.5,0,.76.28.76.85,0,.52-.25.79-.76.79-.47,0-.7.33-.7.99-.04.27.1,1.02.41,2.24.31,1.22.72,2.72,1.22,4.48.5,1.77,1.08,3.7,1.72,5.82.64,2.11,1.27,4.2,1.89,6.25.62,2.06,1.21,3.98,1.78,5.76.56,1.78,1.02,3.24,1.37,4.36l8.16-27.11c.12-.43.22-.8.32-1.13.1-.33.1-.61,0-.84-.1-.23-.35-.41-.76-.52s-1.04-.17-1.89-.17c-.54,0-.82-.28-.82-.85s.27-.85.82-.85h7c.54,0,.82.28.82.85s-.27.85-.82.85c-.7,0-1.26.15-1.69.44-.43.29-.76.59-.99.9-.27.43-.49.87-.64,1.34l-8.8,29.22-1.81,5.41c-.08.19-.18.4-.32.61-.14.21-.42.32-.85.32-.39,0-.64-.11-.76-.32-.12-.21-.21-.42-.29-.61-.31-.97-.79-2.51-1.43-4.63-.64-2.11-1.35-4.49-2.13-7.13-.78-2.64-1.6-5.38-2.48-8.24-.87-2.85-1.68-5.47-2.42-7.86-.74-2.39-1.38-4.39-1.92-6.02-.54-1.63-.89-2.56-1.05-2.79-.39-.5-.72-.76-.99-.76h-.18c-.54,0-.82-.26-.82-.79,0-.56.27-.85.82-.85h8.22M27.24,7.57h-8.22c-1.1,0-1.82.72-1.82,1.85s.71,1.79,1.82,1.79h.04c.05.04.15.14.3.33.05.1.27.59.93,2.54.54,1.63,1.19,3.65,1.92,6,.74,2.39,1.54,5,2.42,7.86.86,2.8,1.69,5.56,2.47,8.23.78,2.64,1.49,5.02,2.13,7.14.66,2.17,1.13,3.68,1.43,4.64,0,.02.01.04.02.07.09.23.21.47.34.72.17.31.61.84,1.64.84s1.46-.42,1.69-.78c.17-.26.3-.52.41-.78,0-.02.01-.04.02-.06l1.81-5.41,8.81-29.25c.12-.35.29-.71.5-1.05.17-.21.41-.43.73-.65.26-.18.64-.26,1.13-.26,1.1,0,1.82-.72,1.82-1.85s-.71-1.85-1.82-1.85h-7c-1.1,0-1.82.72-1.82,1.85s.71,1.85,1.82,1.85c.94,0,1.4.07,1.62.14.04.01.07.02.1.03,0,.03-.01.06-.02.09-.1.33-.21.72-.33,1.15l-7.22,23.97c-.13-.4-.26-.82-.4-1.26-.57-1.79-1.16-3.73-1.77-5.75l-1.89-6.26c-.65-2.14-1.23-4.09-1.72-5.8-.5-1.76-.91-3.26-1.22-4.45-.37-1.47-.39-1.83-.38-1.89,0-.05,0-.06,0-.11,0,0,0,0,0,0,.88-.12,1.46-.8,1.46-1.77,0-1.12-.69-1.85-1.76-1.85h0Z"/>
      </g>
      <g>
        <path class="cls-4" d="M54.25,49.37c-.83,0-1.69-.15-2.55-.45-.87-.3-1.66-.75-2.36-1.33-.7-.59-1.29-1.33-1.74-2.22-.46-.9-.69-1.93-.69-3.06,0-1.36.32-2.56.95-3.58.62-1,1.46-1.83,2.49-2.46,1.01-.63,2.18-1.09,3.46-1.39,1.27-.29,2.57-.44,3.87-.44.54,0,1.04.02,1.47.05.19.02.36.03.52.05v-3.2c0-.82,0-1.64.03-2.47.02-.79-.04-1.5-.17-2.11-.12-.57-.34-1.04-.64-1.4-.26-.31-.67-.46-1.26-.46-.69,0-1.37.11-2.05.32-.65.21-1.18.49-1.56.84-.35.32-.53.69-.55,1.14-.03.45.22.98.73,1.58.52.64.83,1.29.93,1.94.1.66.04,1.27-.19,1.81-.23.55-.61,1-1.13,1.36-.51.35-1.09.55-1.7.59-.13,0-.25.01-.37.01-1.07,0-1.93-.32-2.56-.95-.69-.69-1.05-1.6-1.05-2.68,0-.76.17-1.61.51-2.51.34-.91.9-1.76,1.65-2.53.75-.77,1.74-1.41,2.95-1.91,1.2-.5,2.68-.75,4.4-.75,2.78,0,4.83.69,6.11,2.04,1.27,1.34,1.91,3.45,1.91,6.25l.05,11.76c0,.41.02.83.05,1.26.03.41.09.8.17,1.14.07.31.17.55.29.73.09.13.15.13.2.13.54,0,.84.22,1.01.41.22.25.34.55.34.86s-.13.63-.39.88c-.25.25-.58.38-.96.38h-5.35c-.33,0-.63-.11-.9-.32-.27-.22-.45-.53-.5-.9v-.04c-.5.36-1.05.67-1.65.96-.96.45-2.24.68-3.79.68ZM57.7,36.13c-1.61,0-2.77.52-3.54,1.6-.8,1.11-1.2,2.66-1.2,4.6,0,1.68.3,2.9.89,3.62.58.7,1.33,1.04,2.31,1.04.83,0,1.54-.17,2.13-.52.56-.32,1.02-.67,1.39-1.05v-8.94c-.15-.06-.34-.13-.55-.2-.34-.11-.82-.16-1.44-.16Z"/>
        <path class="cls-3" d="M57.64,23.66c2.65,0,4.56.63,5.75,1.88,1.18,1.25,1.77,3.22,1.77,5.91l.05,11.76c0,.42.02.86.05,1.3.03.44.1.85.19,1.22.09.37.21.67.37.9.16.23.36.34.61.34.28,0,.49.08.64.24.14.16.21.34.21.53s-.08.37-.24.53c-.16.16-.36.24-.61.24h-5.35c-.21,0-.41-.07-.58-.21-.18-.14-.28-.34-.32-.58v-1.01c-.67.6-1.46,1.11-2.36,1.54-.9.42-2.09.64-3.58.64-.78,0-1.57-.14-2.38-.42-.81-.28-1.54-.7-2.2-1.24-.65-.55-1.19-1.24-1.62-2.07-.42-.83-.64-1.77-.64-2.83,0-1.27.29-2.37.87-3.31.58-.94,1.36-1.7,2.33-2.3.97-.6,2.07-1.04,3.31-1.32,1.24-.28,2.49-.42,3.76-.42.53,0,1.01.02,1.43.05.42.04.78.07,1.06.11v-3.76c0-.81,0-1.63.03-2.46.02-.83-.04-1.57-.19-2.22-.14-.65-.39-1.19-.74-1.62-.35-.42-.9-.64-1.64-.64s-1.47.11-2.2.34c-.72.23-1.31.55-1.75.95-.44.41-.68.9-.72,1.48-.04.58.25,1.23.85,1.93.46.57.73,1.13.82,1.7.09.57.03,1.08-.16,1.54-.19.46-.51.84-.95,1.14-.44.3-.93.47-1.46.5-.12,0-.23.01-.34.01-.93,0-1.67-.27-2.2-.81-.6-.6-.9-1.38-.9-2.33,0-.71.16-1.48.48-2.33.32-.85.83-1.63,1.54-2.36.71-.72,1.63-1.32,2.78-1.8,1.15-.48,2.55-.71,4.21-.71M56.16,47.49c.92,0,1.71-.19,2.38-.58.67-.39,1.22-.82,1.64-1.28v-9.47c-.21-.11-.51-.22-.9-.35-.39-.12-.92-.19-1.59-.19-1.77,0-3.08.6-3.95,1.81-.87,1.21-1.3,2.84-1.3,4.89,0,1.81.34,3.12,1.01,3.94.67.82,1.57,1.22,2.7,1.22M57.64,22.66c-1.79,0-3.33.27-4.59.79-1.27.53-2.31,1.21-3.11,2.03-.8.82-1.39,1.73-1.76,2.7-.36.96-.54,1.86-.54,2.68,0,1.23.4,2.25,1.19,3.04.73.73,1.71,1.1,2.91,1.1h.02c-.59.24-1.14.52-1.66.84-1.1.68-1.99,1.56-2.65,2.63-.68,1.09-1.02,2.38-1.02,3.84,0,1.21.25,2.32.74,3.29.48.95,1.11,1.75,1.86,2.38.74.62,1.59,1.1,2.51,1.42.91.32,1.83.48,2.71.48,1.65,0,2.96-.24,4-.73.41-.19.79-.4,1.16-.63.12.21.27.4.47.56.35.28.77.43,1.21.43h5.35c.51,0,.97-.18,1.32-.53.35-.35.53-.77.53-1.24,0-.44-.16-.85-.46-1.19-.22-.24-.6-.53-1.22-.57-.05-.1-.12-.25-.17-.48-.08-.32-.13-.68-.16-1.07-.03-.41-.05-.82-.05-1.22l-.05-11.76c0-2.93-.69-5.15-2.05-6.59-1.38-1.46-3.55-2.19-6.47-2.19h0ZM54.11,34.3c.59-.41,1.03-.93,1.3-1.57.27-.63.34-1.33.23-2.08-.12-.74-.46-1.47-1.03-2.17-.43-.5-.64-.94-.63-1.24.02-.33.14-.58.39-.81.33-.3.79-.55,1.37-.74.62-.2,1.26-.3,1.9-.3.43,0,.72.09.87.28.25.3.43.7.53,1.19.12.57.18,1.25.16,1.99-.02.84-.03,1.67-.03,2.48v2.66c-.46-.04-.96-.05-1.49-.05-1.2,0-2.41.12-3.58.36h0ZM56.16,46.49c-.83,0-1.45-.27-1.93-.86-.51-.62-.78-1.76-.78-3.3,0-1.83.37-3.28,1.11-4.31.67-.94,1.7-1.39,3.13-1.39.7,0,1.09.08,1.29.14.07.02.14.05.2.07v8.38c-.31.29-.7.57-1.14.83-.52.3-1.14.45-1.88.45h0Z"/>
      </g>
      <g>
        <path class="cls-4" d="M70.51,49c-.54,0-.85-.22-1.01-.41-.22-.25-.34-.54-.34-.86s.12-.61.34-.86c.16-.18.46-.4.99-.41-.01-.02.07-.12.14-.43.12-.52.21-1.13.28-1.82.07-.78.08-1.69.05-2.69V15.66c0-.11-.02-.2-.08-.28-.09-.13-.19-.26-.31-.38-.12-.12-.25-.23-.39-.35-.36-.17-.63-.36-.81-.59-.22-.35-.26-.67-.17-.98.1-.33.4-.6.97-.89,1.04-.5,2.05-.93,2.99-1.27.96-.34,1.57-.55,1.87-.62.27-.09.51-.17.68-.24.18-.07.34-.11.49-.11.1,0,.19.01.28.04.16.05.45.21.54.69.04.22.06.54.06,1v3.97l.05,27.94c0,.53.03,1.04.08,1.51.05.44.14.82.28,1.12.07.16.14.24.21.24.54,0,.84.22,1.01.41.22.25.34.55.34.86s-.13.63-.39.88c-.25.25-.58.38-.96.38h-7.2Z"/>
        <path class="cls-3" d="M76.22,10.45s.08,0,.12.02c.11.04.18.14.21.32.03.18.05.48.05.9v3.97l.05,26.54v1.4c0,.55.03,1.07.08,1.56.05.5.16.92.32,1.27.16.35.38.53.66.53s.49.08.64.24c.14.16.21.34.21.53s-.08.37-.24.53c-.16.16-.36.24-.61.24h-7.2c-.28,0-.49-.08-.64-.24-.14-.16-.21-.33-.21-.53s.07-.37.21-.53c.14-.16.35-.24.64-.24s.48-.27.61-.82c.12-.55.22-1.17.29-1.88.07-.81.09-1.73.05-2.75V15.66c0-.21-.05-.4-.16-.56-.11-.16-.23-.31-.37-.45-.14-.14-.3-.28-.48-.42-.32-.14-.55-.3-.69-.48-.11-.18-.13-.35-.08-.53.05-.18.29-.37.72-.58,1.02-.49,2-.91,2.94-1.24.94-.34,1.54-.54,1.83-.61.32-.11.56-.19.74-.26.12-.05.22-.07.31-.07M76.22,9.45c-.22,0-.44.05-.68.14-.16.06-.38.14-.65.23-.33.09-.95.29-1.88.63-.97.35-1.99.78-3.04,1.29-.49.24-1.06.59-1.24,1.2-.13.44-.07.92.18,1.33.02.04.05.07.07.11.22.28.53.51.94.71.11.09.21.19.31.28.09.09.18.19.24.3v25.85c.03,1.01,0,1.9-.06,2.67-.07.65-.16,1.25-.27,1.75,0,.03-.01.05-.02.07-.5.09-.81.33-1,.54-.3.34-.46.75-.46,1.19s.16.85.47,1.2c.23.26.66.57,1.38.57h7.2c.51,0,.97-.18,1.32-.53.35-.35.53-.77.53-1.24,0-.44-.16-.85-.46-1.19-.21-.23-.57-.51-1.16-.56-.1-.25-.18-.56-.21-.92-.05-.46-.07-.95-.07-1.46v-1.4l-.05-26.54v-3.97c0-.5-.02-.84-.07-1.09-.15-.76-.66-1-.88-1.07-.14-.05-.29-.07-.43-.07h0ZM70.07,46.17h0Z"/>
      </g>
      <g>
        <path class="cls-4" d="M82.11,49c-.54,0-.85-.22-1.01-.41-.22-.25-.34-.54-.34-.86s.12-.61.34-.86c.16-.18.47-.41,1.01-.41.13,0,.28-.25.39-.65.18-.62.27-1.29.27-1.98v-15.04c0-.1-.02-.18-.08-.25-.11-.14-.23-.28-.36-.41-.12-.09-.31-.23-.51-.36-.32-.13-.61-.34-.8-.58-.22-.35-.26-.67-.17-.99.1-.33.4-.6.97-.89,1.08-.5,2.1-.94,3.04-1.29.96-.36,1.55-.57,1.81-.65l.7-.23c.15-.05.28-.07.4-.07.11,0,.21.02.31.06.19.08.42.26.47.73.02.19.03.5.03.95v19.23c.03.63.14,1.26.32,1.84.05.17.2.58.4.58.54,0,.84.22,1.01.41.22.25.34.55.34.86s-.13.63-.38.88c-.25.25-.58.38-.96.38h-7.2ZM85.4,22.84c-.91,0-1.7-.32-2.36-.96-.66-.64-1-1.45-1-2.4s.34-1.76,1-2.4c.66-.64,1.45-.96,2.36-.96s1.75.33,2.39.97c.64.64.97,1.45.97,2.39s-.33,1.75-.97,2.39c-.64.64-1.45.97-2.39.97Z"/>
        <path class="cls-3" d="M85.4,16.62c.81,0,1.49.27,2.04.82.55.55.82,1.23.82,2.04s-.27,1.49-.82,2.04c-.55.55-1.23.82-2.04.82s-1.45-.27-2.01-.82c-.57-.55-.85-1.23-.85-2.04s.28-1.49.85-2.04c.56-.55,1.24-.82,2.01-.82M87.79,23.59s.09,0,.12.02c.09.04.14.14.16.32.02.18.03.48.03.9v19.23c.03.71.15,1.37.34,1.99.19.62.48.93.87.93.28,0,.49.08.64.24.14.16.21.34.21.53s-.08.37-.24.53c-.16.16-.36.24-.61.24h-7.2c-.28,0-.5-.08-.64-.24-.14-.16-.21-.33-.21-.53s.07-.37.21-.53c.14-.16.35-.24.64-.24.39,0,.68-.33.87-1.01.19-.67.29-1.38.29-2.12v-15.04c0-.21-.06-.4-.19-.56-.12-.16-.26-.31-.4-.45-.18-.14-.37-.28-.58-.42-.32-.14-.55-.3-.69-.48-.11-.18-.13-.35-.08-.53.05-.18.29-.37.72-.58,1.06-.49,2.06-.92,2.99-1.27.94-.35,1.53-.56,1.77-.64.32-.11.56-.19.72-.24.1-.03.18-.05.25-.05M85.4,15.62c-1.04,0-1.95.37-2.71,1.1-.76.74-1.15,1.67-1.15,2.76s.39,2.02,1.15,2.76c.74.72,1.63,1.09,2.64,1.1-.18.07-.39.15-.63.24-.96.36-1.99.8-3.06,1.3-.5.25-1.07.6-1.25,1.2-.13.45-.07.91.18,1.33.02.04.05.07.08.11.23.29.55.53.98.73.14.1.28.2.4.29.09.09.17.19.25.29v15.02c0,.64-.08,1.26-.25,1.84-.04.14-.08.23-.11.29-.61.05-.98.33-1.19.57-.3.34-.46.75-.46,1.19s.16.85.47,1.2c.23.26.66.57,1.38.57h7.2c.51,0,.97-.18,1.32-.53.35-.35.53-.77.53-1.24,0-.44-.16-.85-.46-1.19-.22-.24-.6-.53-1.21-.57-.02-.05-.06-.12-.09-.23-.17-.54-.27-1.12-.3-1.74v-19.18c0-.46,0-.78-.03-1-.08-.76-.52-1.04-.78-1.15-.16-.06-.33-.09-.5-.09-.02,0-.04,0-.07,0,.15-.11.29-.23.42-.37.74-.74,1.11-1.66,1.11-2.75s-.37-2.01-1.11-2.75c-.74-.74-1.66-1.11-2.75-1.11h0Z"/>
      </g>
      <g>
        <path class="cls-4" d="M99.94,49.37c-.62,0-1.35-.15-2.22-.45-.89-.31-1.75-.96-2.55-1.93-.78-.94-1.44-2.27-1.99-3.94-.54-1.66-.82-3.9-.82-6.66s.28-4.96.82-6.65c.55-1.71,1.22-3.06,1.99-4.02.79-.98,1.65-1.65,2.54-2,.88-.34,1.61-.51,2.25-.51.93,0,1.76.11,2.48.34.71.22,1.34.51,1.87.85.51.32.94.67,1.3,1.04v-9.62c0-.12-.03-.23-.09-.33-.08-.14-.18-.27-.3-.38-.1-.1-.24-.2-.4-.28-.35-.17-.62-.38-.8-.61-.21-.33-.26-.64-.2-.94.07-.35.38-.64,1.02-.94,1.01-.49,2.01-.92,2.95-1.28.95-.36,1.54-.57,1.8-.65.29-.1.54-.18.73-.25.19-.07.35-.1.5-.1.1,0,.19.01.27.04.21.07.46.25.55.73.04.23.06.56.06,1.01v3.97c0,4.56,0,8.39-.03,11.49-.02,3.1-.03,5.66-.03,7.69v8.22c0,.42,0,.84.03,1.27.02.42.06.8.12,1.14.06.31.14.55.25.73.02.03.07.11.1.11.48,0,.83.14,1.06.43.19.25.29.53.29.84,0,.33-.13.63-.39.88-.25.25-.58.38-.96.38h-5.2c-.78,0-1.28-.45-1.39-1.23v-.53c-.37.36-.82.71-1.34,1.02-.53.32-1.16.59-1.86.79-.71.21-1.52.31-2.41.31ZM101.5,25.27c-.68,0-1.18.26-1.54.81-.42.63-.74,1.48-.96,2.52-.22,1.08-.36,2.3-.41,3.65-.05,1.37-.08,2.75-.08,4.11s.03,2.74.08,4.08c.05,1.33.19,2.54.41,3.6.21,1.03.54,1.86.96,2.47.36.53.87.79,1.55.79.56,0,1.07-.09,1.5-.28.44-.19.83-.44,1.16-.73.33-.3.61-.64.84-1,.22-.35.4-.69.56-1l.05-15.92c-.16-.33-.35-.68-.58-1.03-.24-.37-.54-.72-.88-1.05-.32-.31-.71-.56-1.15-.75-.43-.18-.93-.28-1.5-.28Z"/>
        <path class="cls-3" d="M110.81,10.56s.08,0,.12.02c.1.04.17.15.21.34.03.19.05.5.05.93v3.97c0,4.56,0,8.38-.03,11.49-.02,3.1-.03,5.66-.03,7.69v8.22c0,.42,0,.85.03,1.3.02.44.06.85.13,1.22.07.37.18.67.32.9.14.23.32.34.53.34.32,0,.54.08.66.24.12.16.19.33.19.53s-.08.37-.24.53c-.16.16-.36.24-.61.24h-5.2c-.52,0-.82-.26-.89-.79l-.04-1.75c-.21.28-.48.59-.82.93-.33.34-.75.65-1.24.95-.49.3-1.07.55-1.74.74-.67.19-1.43.29-2.27.29-.56,0-1.25-.14-2.06-.42-.81-.28-1.58-.87-2.32-1.77-.74-.9-1.37-2.16-1.9-3.78-.53-1.62-.79-3.79-.79-6.5s.26-4.84.79-6.5c.53-1.66,1.17-2.94,1.91-3.86.74-.92,1.52-1.53,2.33-1.85.81-.32,1.5-.48,2.07-.48.88,0,1.66.11,2.33.32.67.21,1.25.48,1.75.79.49.32.91.65,1.24,1.01.34.35.61.67.82.95v-10.96c0-.21-.05-.41-.16-.58-.11-.18-.23-.33-.37-.48-.14-.14-.32-.26-.53-.37-.28-.14-.49-.3-.64-.48-.11-.18-.14-.35-.11-.53.03-.18.28-.37.74-.58,1.02-.49,1.99-.92,2.92-1.27.93-.35,1.51-.56,1.76-.64.31-.11.57-.19.76-.26.13-.05.24-.07.33-.07M101.5,47.81c.64,0,1.2-.11,1.7-.32.49-.21.93-.49,1.3-.82.37-.34.68-.71.93-1.11.25-.41.46-.79.64-1.14l.05-16.15c-.18-.39-.4-.79-.66-1.19-.26-.41-.58-.79-.95-1.14-.37-.35-.8-.64-1.3-.85-.5-.21-1.06-.32-1.7-.32-.85,0-1.5.34-1.96,1.03-.46.69-.8,1.59-1.03,2.7-.23,1.11-.37,2.36-.42,3.73-.05,1.38-.08,2.75-.08,4.13s.03,2.75.08,4.1c.05,1.36.19,2.59.42,3.68.23,1.09.57,1.98,1.03,2.65.46.67,1.11,1.01,1.96,1.01M110.81,9.56c-.21,0-.43.04-.67.13-.19.07-.43.16-.74.26-.13.04-.51.16-1.79.65-.95.36-1.96.8-3,1.31-.52.24-1.15.61-1.29,1.29-.08.42,0,.85.23,1.24.02.04.05.07.07.11.23.29.56.54.97.75.11.06.2.12.27.18.08.08.16.18.22.28,0,.01.02.03.02.07v8.52c-.17-.12-.34-.25-.52-.36-.57-.36-1.24-.67-1.99-.91-.77-.24-1.65-.36-2.63-.36-.7,0-1.49.18-2.43.54-.97.38-1.9,1.1-2.74,2.15-.82,1.01-1.52,2.42-2.08,4.18-.56,1.75-.84,4.04-.84,6.81s.28,5.1.84,6.81c.56,1.73,1.26,3.11,2.08,4.11.85,1.04,1.79,1.74,2.77,2.08.93.32,1.71.48,2.39.48.93,0,1.79-.11,2.55-.33.75-.22,1.42-.5,1.99-.85.24-.15.46-.3.68-.45.25.79.91,1.26,1.79,1.26h5.2c.51,0,.97-.18,1.32-.53.35-.35.53-.77.53-1.24,0-.41-.14-.81-.4-1.14-.2-.25-.56-.55-1.19-.61-.04-.1-.09-.24-.13-.44-.06-.32-.1-.68-.12-1.07-.02-.43-.03-.85-.03-1.26v-8.22c0-2.02,0-4.59.03-7.69.02-3.1.03-6.93.03-11.49v-3.97c0-.48-.02-.84-.07-1.1-.14-.76-.6-1.02-.87-1.11-.15-.05-.29-.07-.44-.07h0ZM101.5,46.81c-.51,0-.86-.18-1.13-.57-.38-.56-.68-1.33-.88-2.29-.22-1.03-.35-2.21-.4-3.52-.05-1.34-.08-2.71-.08-4.07s.03-2.73.08-4.09c.05-1.32.19-2.52.4-3.57.2-.98.5-1.77.89-2.35.27-.41.61-.59,1.13-.59s.93.08,1.3.24c.38.16.72.38,1,.65.31.3.58.62.8.96.19.29.36.58.5.87l-.05,15.69c-.14.27-.31.56-.49.86-.2.32-.45.62-.74.89-.29.26-.63.48-1.02.64-.37.16-.8.24-1.3.24h0Z"/>
      </g>
      <g>
        <path class="cls-4" d="M124.38,49.43c-1.8,0-3.36-.36-4.64-1.07-1.34-.74-2.44-1.76-3.27-3.02-.82-1.24-1.44-2.7-1.84-4.34-.4-1.62-.61-3.36-.65-5.19-.04-1.78.2-3.46.71-5.01.51-1.55,1.26-2.92,2.21-4.06.96-1.14,2.11-2.05,3.42-2.7,1.32-.65,2.75-.98,4.27-.98,2.76,0,4.9.62,6.36,1.84,1.49,1.25,2.25,2.85,2.25,4.76,0,1.46-.27,2.7-.8,3.69-.53.98-1.22,1.78-2.06,2.37-.82.58-1.76,1.02-2.78,1.29-1,.27-1.99.46-2.96.57-.83.09-1.63.14-2.38.14h-.39c-.6-.02-1.11-.02-1.55-.03.02.87.08,1.8.18,2.76.12,1.14.36,2.22.71,3.2.35.96.82,1.76,1.4,2.37.54.57,1.24.85,2.13.85,1.3,0,2.38-.19,3.21-.56.83-.37,1.49-.85,1.97-1.41.48-.56.83-1.18,1.04-1.84.21-.67.32-1.32.32-1.94,0-.53.36-.87.92-.87.52,0,.87.35.87.87,0,1.3-.23,2.48-.68,3.51-.45,1.03-1.06,1.91-1.81,2.62-.76.71-1.65,1.25-2.66,1.62-1,.36-2.1.54-3.24.54h-.26ZM124.59,24.64c-.73,0-1.32.22-1.81.67-.53.48-.96,1.1-1.28,1.84-.34.77-.59,1.64-.76,2.56-.17.95-.3,1.87-.36,2.76-.07.88-.1,1.67-.1,2.37v.91c.36-.02.81-.07,1.34-.14.78-.1,1.6-.37,2.43-.79.81-.42,1.53-1.04,2.14-1.84.58-.77.88-1.89.88-3.33s-.23-2.72-.67-3.71c-.4-.88-.97-1.29-1.79-1.29Z"/>
        <path class="cls-3" d="M124.59,23.55c2.65,0,4.66.58,6.04,1.73,1.38,1.15,2.07,2.61,2.07,4.38,0,1.38-.25,2.53-.74,3.45-.49.92-1.13,1.65-1.91,2.2-.78.55-1.65.96-2.62,1.22-.97.27-1.93.45-2.89.56-.82.09-1.59.14-2.33.14-.12,0-.25,0-.37,0-.85-.02-1.54-.03-2.07-.03,0,1.03.06,2.13.19,3.32.12,1.19.37,2.29.74,3.32.37,1.03.87,1.88,1.51,2.55s1.46,1.01,2.49,1.01c1.38,0,2.52-.2,3.42-.61.9-.41,1.62-.92,2.15-1.54.53-.62.91-1.29,1.14-2.01.23-.72.34-1.42.34-2.09,0-.25.14-.37.42-.37.25,0,.37.12.37.37,0,1.24-.21,2.34-.64,3.31-.42.97-.99,1.79-1.7,2.45-.71.67-1.54,1.17-2.49,1.51-.95.34-1.98.51-3.07.51-.09,0-.17,0-.26,0-1.73,0-3.19-.34-4.4-1.01-1.27-.71-2.3-1.66-3.1-2.86-.79-1.2-1.39-2.6-1.77-4.18-.39-1.59-.6-3.28-.64-5.08-.04-1.73.19-3.35.69-4.85.49-1.5,1.2-2.8,2.12-3.89.92-1.09,2-1.95,3.26-2.57,1.25-.62,2.6-.93,4.05-.93M119.77,36.27c.42,0,1.06-.05,1.91-.16.85-.11,1.71-.39,2.6-.85.88-.46,1.65-1.12,2.3-1.99.65-.86.98-2.07.98-3.63s-.24-2.86-.72-3.92c-.48-1.06-1.23-1.59-2.25-1.59-.85,0-1.56.26-2.14.79-.58.53-1.05,1.2-1.4,2.01-.35.81-.62,1.7-.79,2.68-.18.97-.3,1.91-.37,2.81-.07.9-.11,1.7-.11,2.41v1.43M124.59,22.55c-1.59,0-3.11.35-4.49,1.03-1.37.68-2.58,1.63-3.58,2.82-1,1.19-1.77,2.61-2.3,4.22-.53,1.6-.78,3.34-.74,5.18.04,1.86.26,3.65.66,5.3.41,1.69,1.06,3.21,1.91,4.5.88,1.33,2.04,2.4,3.45,3.18,1.36.75,3,1.13,4.89,1.13.09,0,.18,0,.28,0h0c1.18,0,2.33-.19,3.39-.57,1.08-.39,2.03-.97,2.84-1.72.8-.76,1.45-1.69,1.93-2.78.48-1.09.72-2.34.72-3.71,0-.79-.58-1.37-1.37-1.37-.84,0-1.42.56-1.42,1.37,0,.57-.1,1.17-.3,1.79-.19.59-.51,1.15-.94,1.66-.43.5-1.04.93-1.8,1.28-.77.35-1.78.52-3.01.52-.75,0-1.31-.22-1.76-.7-.54-.57-.97-1.31-1.3-2.2-.34-.95-.57-1.98-.69-3.08-.08-.77-.13-1.5-.16-2.21.31,0,.65.01,1.03.02.13,0,.26,0,.39,0,.77,0,1.59-.05,2.44-.14,1-.11,2.02-.31,3.04-.59,1.08-.29,2.07-.75,2.93-1.37.9-.64,1.64-1.49,2.21-2.55.57-1.06.86-2.38.86-3.92,0-2.07-.82-3.8-2.42-5.15-1.56-1.3-3.8-1.96-6.68-1.96h0ZM120.77,35.2v-.37c0-.68.03-1.47.1-2.33.07-.87.19-1.78.36-2.71.16-.89.41-1.72.73-2.46.29-.68.68-1.24,1.16-1.67.4-.36.88-.53,1.47-.53.44,0,.94.12,1.34,1,.42.92.63,2.11.63,3.51,0,1.32-.26,2.34-.78,3.03-.56.74-1.22,1.31-1.97,1.7-.77.4-1.53.65-2.26.74-.29.04-.55.07-.78.09h0Z"/>
      </g>
      <g>
        <path class="cls-4" d="M135.66,49c-.54,0-.85-.22-1.01-.41-.22-.25-.34-.54-.34-.86s.12-.61.34-.86c.16-.18.45-.39.97-.41,0-.02.03-.08.07-.2.11-.32.2-.7.27-1.13.1-.5.17-1.06.21-1.7v-15.02c0-.11-.02-.2-.08-.28-.09-.13-.19-.26-.31-.38-.11-.11-.24-.23-.39-.35-.36-.17-.63-.36-.81-.59-.22-.35-.26-.67-.17-.99.1-.33.4-.6.97-.89l3.14-1.89c.36-.24.76-.37,1.19-.37.18,0,.37.02.56.07.62.16,1.11.5,1.46,1.03.22.35.37.76.45,1.22.04.22.07.49.08.81.02-.02.04-.04.06-.05.42-.4.93-.81,1.52-1.22.59-.41,1.25-.76,1.97-1.06.75-.3,1.53-.46,2.34-.46,1.3,0,2.42.48,3.3,1.43.88.94,1.33,2.03,1.33,3.25,0,1.11-.31,2.03-.92,2.74-.63.73-1.38,1.1-2.23,1.1-.5,0-.97-.11-1.41-.31-.44-.21-.8-.49-1.06-.84-.27-.36-.43-.79-.47-1.29-.04-.5.08-1.04.37-1.62.5-.96.53-1.47.46-1.72-.06-.23-.17-.38-.54-.39h0c-.35,0-.92.12-1.91.68-.82.47-1.76,1.2-2.79,2.19v15.2c.03.61.1,1.17.2,1.64.07.46.16.83.27,1.16.05.14.09.19.11.21,0,0,.02,0,.03,0,.5,0,.8.22.96.4.22.25.34.55.34.86s-.13.63-.38.88c-.25.25-.58.38-.96.38h-7.2Z"/>
        <path class="cls-3" d="M139.72,23.21c.14,0,.29.02.44.06.49.12.88.4,1.17.82.18.28.3.63.37,1.03.07.41.11,1.03.11,1.88.18-.18.47-.46.87-.85.41-.39.89-.78,1.46-1.17.56-.39,1.19-.72,1.88-1.01.69-.28,1.4-.42,2.15-.42,1.17,0,2.14.42,2.94,1.27.79.85,1.19,1.82,1.19,2.91,0,.99-.26,1.79-.79,2.41-.53.62-1.15.93-1.85.93-.42,0-.82-.09-1.19-.26-.37-.18-.66-.41-.87-.69-.21-.28-.34-.63-.37-1.03-.04-.41.07-.86.32-1.35.46-.88.63-1.57.5-2.07-.12-.49-.46-.75-1.01-.77-.02,0-.04,0-.06,0-.54,0-1.25.25-2.12.74-.9.51-1.92,1.32-3.05,2.41v15.41c.03.67.11,1.25.21,1.75.07.46.17.87.29,1.22.12.35.31.53.56.53.28,0,.49.08.64.24.14.16.21.34.21.53s-.08.37-.24.53c-.16.16-.36.24-.61.24h-7.2c-.28,0-.5-.08-.64-.24-.14-.16-.21-.33-.21-.53s.07-.37.21-.53c.14-.16.35-.24.64-.24.21,0,.38-.18.5-.53.12-.35.22-.76.29-1.22.11-.49.18-1.08.21-1.75v-15.04c0-.21-.05-.4-.16-.56-.11-.16-.23-.31-.37-.45-.14-.14-.3-.28-.48-.42-.32-.14-.55-.3-.69-.48-.11-.18-.13-.35-.08-.53.05-.18.29-.37.71-.58l3.18-1.91c.29-.2.61-.29.94-.29M139.72,22.21c-.53,0-1.03.16-1.49.46l-3.11,1.86c-.47.24-1.01.58-1.19,1.17-.13.45-.07.92.18,1.33.02.04.05.07.07.11.22.28.53.51.94.71.11.09.21.19.31.28.09.09.18.19.24.3v15.02c-.04.61-.11,1.13-.2,1.57,0,.02,0,.04-.01.06-.06.35-.13.67-.21.94-.48.09-.79.33-.98.54-.3.34-.46.75-.46,1.19s.16.85.47,1.2c.23.26.66.57,1.38.57h7.2c.51,0,.97-.18,1.32-.53.35-.35.53-.77.53-1.24,0-.44-.16-.85-.46-1.19-.19-.22-.52-.47-1.03-.55-.09-.27-.16-.58-.21-.93,0-.02,0-.04-.01-.06-.09-.44-.16-.96-.19-1.56v-14.96c.94-.88,1.8-1.55,2.54-1.97.94-.53,1.42-.61,1.62-.61.04,0,.07,0,.09,0,0,0,0,0,0,0,.02.06.07.42-.42,1.36-.34.67-.48,1.31-.43,1.9.05.59.24,1.11.57,1.55.31.41.73.75,1.24.99.5.24,1.05.36,1.62.36.99,0,1.9-.44,2.61-1.28.69-.8,1.04-1.83,1.04-3.06,0-1.35-.49-2.56-1.46-3.6-.99-1.05-2.22-1.59-3.67-1.59-.87,0-1.72.17-2.52.5-.75.31-1.45.68-2.07,1.11-.32.22-.63.45-.91.67-.1-.49-.26-.92-.49-1.28-.44-.66-1.03-1.08-1.77-1.26-.23-.06-.46-.09-.69-.09h0Z"/>
      </g>
    </g>
    <g>
      <path class="cls-4" d="M28.82,11.45c1.17-.13,1.91-.99,1.91-2.25,0-1.42-.88-2.35-2.23-2.35h-10.78c-1.4,0-2.31.93-2.31,2.35s.91,2.27,2.31,2.27h.08c.07.06.21.19.43.46.06.11.25.53.76,2h1.31c-.53-1.54-.88-2.45-1.05-2.7-.51-.67-.94-1-1.3-1h-.23c-.71,0-1.07-.34-1.07-1.03,0-.74.36-1.11,1.07-1.11h10.78c.66,0,.99.37.99,1.11,0,.69-.33,1.03-.99,1.03-.61,0-.92.43-.92,1.3-.05.31.09,1.12.4,2.4h1.28c-.42-1.68-.45-2.16-.45-2.25,0-.05,0-.1,0-.15v-.07Z"/>
      <path class="cls-4" d="M49.15,6.75h-9.71c-1.49,0-2.44.98-2.44,2.48s.96,2.48,2.44,2.48c1.32,0,1.65.04,1.96.12.08.03,0,.33.05.35,0,.05-.53-.08-.56,0-.13.44-.09.35-.26.97l-.02.8h1.21c.16-.59.34-.97.48-1.43.13-.46.28-.93.15-1.26-.14-.32-.08-.27-.65-.43-.56-.16-1.28-.34-2.46-.34-.76,0-1.03-.5-1.03-1.28s.38-1.17,1.13-1.17h9.71c.75,0,1.13.39,1.13,1.17s-.44,1.37-1.19,1.37c-.97,0-1.62.19-2.22.59-.59.41-.68.47-1.01.9-.38.59-.5,1.25-.72,1.89l.64-.15,1.08.07c.16-.39-.59-.51-.36-.88.24-.3.59-.61,1.04-.92.37-.25.91-.38,1.61-.38,1.48,0,2.44-.98,2.44-2.48s-.96-2.48-2.44-2.48Z"/>
      <path class="cls-4" d="M78.66,9.38c-.18-.88-.74-1.2-1.06-1.3-.17-.06-.35-.08-.53-.08-.27,0-.54.06-.83.17-.19.08-.46.18-.83.3-.41.11-1.19.37-2.38.79-1.22.44-2.51.98-3.83,1.62-.61.3-1.31.74-1.53,1.47,0,.03-.02.06-.02.09h1.34c.15-.15.4-.31.74-.48,1.29-.62,2.53-1.15,3.72-1.57,1.18-.42,1.95-.68,2.31-.77.4-.14.72-.24.94-.33.15-.06.27-.09.39-.09.06,0,.1,0,.15.02.14.04.22.18.27.4.04.22.06.6.06,1.14v1.69h1.2v-1.69c0-.63-.03-1.06-.09-1.37Z"/>
      <path class="cls-4" d="M113.19,9.44c-.16-.88-.7-1.19-1.01-1.3-.17-.06-.34-.08-.51-.08-.24,0-.5.05-.79.16-.2.08-.48.17-.87.3-.22.07-.7.22-2.19.79-1.14.44-2.36.96-3.61,1.57-.57.27-1.24.65-1.47,1.3h1.46c.13-.09.3-.18.5-.27,1.24-.6,2.41-1.11,3.53-1.54,1.12-.42,1.83-.68,2.12-.77.38-.13.69-.24.92-.32.15-.06.29-.09.39-.09.05,0,.1,0,.14.02.13.04.21.18.25.42.04.24.06.61.06,1.12v1.42h1.14v-1.42c0-.58-.03-1.01-.08-1.32Z"/>
    </g>
  </g>
</svg>