<?xml version="1.0" encoding="UTF-8"?>
<svg id="accueil-tel" xmlns="http://www.w3.org/2000/svg" xmlns:xlink="http://www.w3.org/1999/xlink" viewBox="0 0 152.1 55.44">
  <defs>
    <style>
      .cls-1 {
        fill: url(#Dégradé_sans_nom_2);
        stroke: #252422;
        stroke-miterlimit: 10;
        stroke-width: 2px;
      }

      .cls-2 {
        fill: #252422;
      }

      .cls-2, .cls-3, .cls-4 {
        stroke-width: 0px;
      }

      .cls-3 {
        fill: #eeebe9;
      }

      .cls-4 {
        fill: #282835;
      }
    </style>
    <radialGradient id="Dégradé_sans_nom_2" data-name="Dégradé sans nom 2" cx="-60.19" cy="720.07" fx="-60.19" fy="720.07" r="57.24" gradientTransform="translate(126.84 -465.73) scale(.85 .69)" gradientUnits="userSpaceOnUse">
      <stop offset="0" stop-color="#7f7fc9"/>
      <stop offset="1" stop-color="#5e548b"/>
    </radialGradient>
  </defs>
  <g id="contenu-milieu-2" data-name="contenu-milieu">
    <g id="options">
      <rect class="cls-4" width="152.1" height="55.44"/>
      <rect class="cls-1" x="10.96" y="9.04" width="129.38" height="38.02"/>
      <g>
        <g>
          <path class="cls-2" d="M42.02,38c-.84,0-1.74-.22-2.66-.66-.93-.44-1.78-1.15-2.54-2.11-.75-.95-1.38-2.17-1.86-3.65-.48-1.47-.72-3.28-.72-5.39s.24-3.89.72-5.36c.48-1.48,1.1-2.71,1.86-3.65.76-.96,1.62-1.67,2.54-2.11.92-.44,1.82-.66,2.66-.66.91,0,1.83.22,2.72.66.9.44,1.7,1.16,2.39,2.12.67.94,1.23,2.17,1.65,3.65.42,1.47.63,3.26.63,5.34s-.21,3.9-.63,5.37c-.42,1.48-.98,2.71-1.65,3.65-.69.96-1.49,1.68-2.39,2.12-.9.44-1.81.66-2.72.66ZM42.02,16.06c-1.2,0-2.08.73-2.68,2.23-.65,1.63-.98,4.29-.98,7.9s.33,6.31.98,7.95c.6,1.51,1.47,2.24,2.68,2.24.63,0,1.14-.17,1.55-.51.42-.36.76-.93,1.01-1.7.27-.83.45-1.91.56-3.21.11-1.32.16-2.93.16-4.77s-.05-3.42-.16-4.74c-.1-1.3-.29-2.38-.56-3.21-.25-.77-.59-1.34-1-1.68-.41-.33-.91-.5-1.55-.5Z"/>
          <path class="cls-3" d="M42.02,14.92c.84,0,1.67.2,2.5.61.83.41,1.56,1.06,2.21,1.97.64.9,1.17,2.07,1.58,3.49.41,1.43.61,3.16.61,5.2s-.2,3.81-.61,5.23c-.41,1.43-.93,2.59-1.58,3.49-.64.9-1.38,1.56-2.21,1.96-.83.41-1.66.61-2.5.61-.77,0-1.59-.2-2.45-.61-.86-.41-1.65-1.06-2.37-1.96-.72-.9-1.31-2.07-1.77-3.49-.46-1.43-.69-3.17-.69-5.23s.23-3.77.69-5.2c.46-1.43,1.05-2.59,1.77-3.49.72-.9,1.51-1.56,2.37-1.97.86-.41,1.67-.61,2.45-.61M42.02,36.89c.75,0,1.37-.21,1.87-.63.49-.42.88-1.06,1.16-1.93.28-.87.47-1.98.58-3.32.11-1.34.16-2.95.16-4.82s-.05-3.44-.16-4.78c-.11-1.34-.3-2.45-.58-3.32-.28-.87-.67-1.51-1.16-1.92-.49-.41-1.12-.61-1.87-.61-1.42,0-2.46.85-3.14,2.54-.68,1.7-1.01,4.39-1.01,8.08s.34,6.43,1.01,8.13c.68,1.71,1.72,2.56,3.14,2.56M42.02,13.92c-.92,0-1.89.24-2.88.71-.99.47-1.91,1.23-2.72,2.24-.79.99-1.44,2.27-1.94,3.81-.49,1.52-.74,3.37-.74,5.51s.25,4.02.74,5.54c.5,1.54,1.15,2.82,1.94,3.81.81,1.02,1.73,1.77,2.72,2.24.99.47,1.96.71,2.88.71.99,0,1.98-.24,2.94-.72.97-.48,1.84-1.25,2.58-2.28.71-.99,1.29-2.27,1.73-3.8.43-1.51.65-3.36.65-5.51s-.22-3.97-.65-5.48c-.44-1.53-1.02-2.81-1.73-3.8-.74-1.03-1.61-1.8-2.58-2.28-.96-.47-1.95-.72-2.94-.72h0ZM42.02,35.89c-.62,0-1.53-.2-2.21-1.93-.63-1.58-.94-4.19-.94-7.76s.32-6.14.94-7.71c.68-1.72,1.59-1.92,2.21-1.92.52,0,.92.13,1.23.38.34.28.63.77.84,1.45.25.79.43,1.83.53,3.09.1,1.31.16,2.89.16,4.7s-.05,3.43-.16,4.74c-.1,1.26-.28,2.3-.54,3.09-.22.68-.51,1.18-.85,1.48-.31.26-.71.39-1.22.39h0Z"/>
        </g>
        <g>
          <path class="cls-2" d="M51.26,44.44c-.4,0-.63-.17-.76-.31-.17-.19-.25-.41-.25-.65s.09-.47.26-.66c.1-.12.29-.26.58-.3,0-.02.02-.04.02-.07.08-.24.13-.52.17-.86.04-.35.06-.7.06-1.07v-15.24c-.06-.13-.11-.2-.18-.26s-.13-.12-.2-.18c-.24-.12-.42-.25-.54-.41-.17-.28-.21-.53-.14-.77.1-.33.42-.52.69-.66.64-.31,1.26-.57,1.85-.79.6-.22.98-.35,1.13-.4.54-.16.72-.18.85-.18.6,0,.65.68.66,1.11.15-.12.3-.25.48-.36.34-.23.74-.42,1.18-.57.46-.16.98-.24,1.55-.24.41,0,.88.11,1.44.32.57.22,1.12.65,1.64,1.28.5.6.93,1.46,1.27,2.53.34,1.06.51,2.45.51,4.13s-.17,3.06-.51,4.1c-.34,1.06-.77,1.89-1.27,2.48-.52.6-1.07,1.01-1.65,1.21-.55.19-1.02.29-1.42.29-.56,0-1.07-.07-1.52-.2-.45-.13-.84-.3-1.18-.5-.18-.11-.34-.22-.5-.34v2.7c0,.21,0,.51.02.89.01.37.04.73.09,1.09.05.34.11.65.19.91,0,.03.02.06.03.08.31.04.5.18.61.3.17.19.26.41.26.65s-.1.48-.29.67c-.19.19-.44.29-.73.29h-4.38ZM55.47,34.49c.12.15.26.32.42.5.2.23.41.45.64.65.21.19.42.34.65.46.2.1.39.15.59.15.35,0,.59-.12.78-.39.24-.35.43-.83.55-1.43.13-.63.22-1.35.25-2.14.03-.81.05-1.63.05-2.46v-2.53c0-.82-.05-1.56-.15-2.21-.09-.6-.27-1.09-.53-1.45-.21-.29-.51-.43-.94-.43-.31,0-.57.06-.81.17-.25.13-.47.28-.66.47-.2.2-.37.41-.51.65-.13.21-.24.41-.33.59v9.4Z"/>
          <path class="cls-3" d="M58.67,22.07c.34,0,.76.1,1.26.29.49.19.97.57,1.43,1.13.46.56.85,1.35,1.18,2.37s.48,2.35.48,3.98-.16,2.95-.48,3.95c-.32,1-.71,1.77-1.18,2.3-.46.54-.94.89-1.43,1.06-.49.17-.91.26-1.26.26-.52,0-.98-.06-1.38-.18-.41-.12-.76-.27-1.06-.45-.3-.18-.55-.38-.76-.58-.2-.2-.37-.39-.5-.56v3.93c0,.21,0,.52.02.9.01.39.04.77.1,1.14.05.38.12.7.21.98.09.28.2.42.35.42.17,0,.3.05.39.14.09.1.13.2.13.32s-.05.22-.14.32c-.1.1-.22.15-.37.15h-4.38c-.17,0-.3-.05-.39-.15-.09-.1-.13-.2-.13-.32s.04-.23.13-.32c.09-.1.21-.14.39-.14.13,0,.24-.13.32-.4.09-.27.15-.59.19-.95.04-.37.06-.74.06-1.13v-15.24c0-.13-.03-.24-.1-.34-.06-.1-.14-.19-.22-.27-.09-.09-.18-.17-.29-.26-.19-.09-.33-.18-.42-.29-.06-.11-.08-.21-.05-.32.03-.11.18-.23.43-.35.62-.3,1.22-.56,1.8-.77.58-.21.94-.34,1.1-.39.36-.11.6-.16.71-.16s.16.25.16.74v1.16c.13-.17.3-.37.5-.6.2-.23.46-.44.76-.64.3-.2.65-.38,1.06-.52.41-.14.87-.21,1.38-.21M57.77,36.76c.52,0,.91-.2,1.19-.61.28-.41.49-.94.63-1.61.14-.66.23-1.41.26-2.22.03-.82.05-1.64.05-2.48v-2.53c0-.85-.05-1.61-.16-2.29-.11-.68-.31-1.23-.61-1.66-.3-.43-.75-.64-1.35-.64-.39,0-.73.08-1.03.23-.3.15-.56.34-.79.56-.23.22-.42.47-.58.74-.16.27-.3.51-.4.72v9.7c.15.19.33.41.55.66.21.25.44.48.68.69.24.21.49.39.76.53.27.14.54.21.82.21M58.67,21.07c-.62,0-1.2.09-1.71.26-.42.14-.81.32-1.14.53-.18-.48-.52-.73-1.01-.73-.18,0-.42.03-.99.2-.12.03-.35.11-1.16.41-.61.22-1.24.5-1.89.81-.35.17-.8.45-.96.97-.11.38-.06.78.15,1.13.02.04.05.07.07.1.16.21.38.38.66.52.04.04.09.08.13.12,0,.01.02.02.03.03v15.11c0,.35-.02.69-.06,1.01-.02.21-.06.4-.1.57-.22.08-.41.21-.56.38-.25.27-.38.62-.38.98s.13.71.38.99c.27.31.67.48,1.13.48h4.38c.41,0,.79-.16,1.08-.44.29-.29.44-.65.44-1.03s-.13-.71-.38-.99c-.16-.18-.36-.31-.59-.39-.05-.2-.09-.4-.12-.63-.05-.34-.08-.69-.09-1.03-.01-.38-.02-.67-.02-.87v-1.78c.31.16.66.3,1.04.41.49.14,1.05.22,1.66.22.46,0,.98-.1,1.58-.31.66-.23,1.29-.69,1.86-1.36.55-.64,1-1.51,1.37-2.65.36-1.11.53-2.5.53-4.25s-.17-3.15-.53-4.28c-.36-1.15-.81-2.04-1.36-2.7-.57-.69-1.19-1.17-1.84-1.42-.62-.24-1.15-.36-1.62-.36h0ZM55.97,25.21c.08-.14.16-.29.26-.46.12-.2.26-.38.43-.54.15-.15.32-.27.53-.38.16-.08.35-.12.58-.12.35,0,.46.11.53.22.21.3.36.72.44,1.24.1.62.15,1.34.15,2.13v2.53c0,.83-.02,1.65-.05,2.44-.03.76-.11,1.45-.24,2.06-.11.53-.27.95-.47,1.25-.08.12-.16.18-.37.18-.12,0-.23-.03-.36-.1-.19-.1-.37-.23-.55-.38-.21-.19-.41-.39-.59-.61-.11-.13-.21-.25-.3-.36v-9.1h0Z"/>
        </g>
        <g>
          <path class="cls-2" d="M69.49,37.68c-1.02,0-1.88-.35-2.58-1.05-.69-.69-1.05-1.56-1.05-2.58v-10.42h-1.47c-.25,0-.48-.09-.67-.25-.2-.18-.31-.42-.31-.7s.1-.5.29-.69.43-.29.69-.29c.1,0,.35-.04.87-.28.42-.2.86-.46,1.29-.8.42-.32.78-.71,1.08-1.14.28-.4.41-.8.41-1.21,0-.25.09-.48.26-.67.18-.2.43-.31.7-.31s.5.1.69.29c.19.19.29.43.29.69v2.77c0,.32.04.45.06.48,0,.02.05.05.11.07.1.04.28.08.64.09.34.01.79.02,1.34.02.26,0,.5.1.69.29.19.19.29.43.29.69s-.11.52-.31.7c-.19.17-.42.25-.67.25h-2.14v10.32c0,.4.05.72.15.94.1.23.22.41.35.53.13.12.26.2.39.24.19.06.31.07.38.07.4,0,.63.17.76.31.17.19.26.42.26.66s-.1.48-.29.67c-.19.19-.44.29-.73.29h-1.77Z"/>
          <path class="cls-3" d="M69.01,17.79c.13,0,.24.05.34.14.1.1.14.21.14.34v2.77c0,.3.03.53.1.68.06.15.19.26.39.34.19.08.46.12.81.13.34.01.79.02,1.35.02.13,0,.24.05.34.14.1.1.14.21.14.34s-.05.24-.14.32c-.1.09-.21.13-.34.13h-2.64v10.82c0,.47.06.85.19,1.14.13.29.28.52.47.69.18.17.38.29.58.35.2.06.38.1.53.1.17,0,.3.05.39.14.09.1.13.2.13.32s-.05.23-.14.32c-.1.1-.22.14-.37.14h-1.77c-.88,0-1.62-.3-2.22-.9-.6-.6-.9-1.34-.9-2.22v-10.92h-1.97c-.13,0-.24-.04-.34-.13-.1-.09-.14-.19-.14-.32s.05-.24.14-.34.21-.14.34-.14c.26,0,.62-.11,1.08-.32.46-.21.92-.5,1.39-.85.46-.35.86-.77,1.19-1.26.33-.48.5-.98.5-1.5,0-.13.04-.24.13-.34.09-.1.19-.14.32-.14M69.01,16.79c-.41,0-.79.17-1.07.48-.25.28-.38.63-.38,1,0,.31-.11.61-.32.93-.27.4-.6.74-.98,1.03-.4.31-.81.56-1.2.74-.48.22-.65.23-.66.23-.39,0-.76.16-1.04.44-.28.28-.44.65-.44,1.05,0,.41.17.79.48,1.07.28.25.63.38,1,.38h.97v9.92c0,1.15.4,2.14,1.2,2.93.79.79,1.78,1.19,2.93,1.19h1.77c.41,0,.8-.16,1.08-.44.28-.28.44-.65.44-1.03s-.13-.71-.38-.99c-.28-.31-.68-.48-1.13-.48,0,0-.08,0-.23-.05-.06-.02-.13-.06-.19-.13-.09-.08-.17-.21-.24-.37-.04-.09-.11-.31-.11-.74v-9.82h1.64c.38,0,.72-.13,1-.38.31-.28.48-.66.48-1.07,0-.39-.16-.76-.44-1.05-.28-.28-.65-.44-1.05-.44-.55,0-.99,0-1.32-.02-.14,0-.25-.01-.32-.03,0-.03,0-.07,0-.12v-2.77c0-.39-.15-.76-.43-1.04-.29-.29-.66-.44-1.05-.44h0Z"/>
        </g>
        <g>
          <path class="cls-2" d="M73.46,37.68c-.4,0-.63-.17-.76-.31-.17-.19-.25-.42-.25-.66s.09-.47.25-.65c.13-.14.35-.3.73-.31,0-.02.04-.09.08-.25.1-.36.16-.75.16-1.15v-9.15c-.07-.11-.14-.19-.21-.26-.05-.04-.16-.12-.28-.19-.2-.08-.4-.22-.53-.4-.17-.28-.21-.53-.14-.77.1-.33.42-.52.69-.66.66-.31,1.29-.58,1.87-.79.59-.22.96-.35,1.12-.4l.41-.14c.11-.04.21-.06.31-.06.06,0,.2.02.26.05.14.05.37.21.41.61.01.12.02.32.02.6v11.69c.02.36.08.72.19,1.06.06.19.11.23.11.23.02,0,.04,0,.05,0,.31,0,.53.16.65.29.17.19.26.42.26.66s-.1.48-.29.67c-.19.19-.44.29-.73.29h-4.38ZM75.45,21.77c-.61,0-1.13-.22-1.57-.64-.44-.43-.67-.97-.67-1.6s.22-1.17.67-1.6c.44-.42.97-.64,1.57-.64s1.16.22,1.59.65.65.96.65,1.59-.22,1.17-.65,1.59c-.43.43-.96.65-1.59.65Z"/>
          <path class="cls-3" d="M75.45,17.79c.49,0,.91.17,1.24.5.33.33.5.75.5,1.24s-.17.91-.5,1.24c-.33.33-.75.5-1.24.5s-.88-.17-1.22-.5c-.34-.33-.52-.75-.52-1.24s.17-.91.52-1.24c.34-.33.75-.5,1.22-.5M76.91,22.03s.05,0,.08.01c.05.02.09.09.1.19s.02.29.02.55v11.69c.02.43.09.83.21,1.21.12.38.29.56.53.56.17,0,.3.05.39.14.09.1.13.2.13.32s-.05.23-.14.32c-.1.1-.22.14-.37.14h-4.38c-.17,0-.3-.05-.39-.14s-.13-.2-.13-.32.04-.23.13-.32c.09-.1.21-.14.39-.14.24,0,.41-.2.53-.61.12-.41.18-.84.18-1.29v-9.15c0-.13-.04-.24-.11-.34-.08-.1-.16-.19-.24-.27-.11-.09-.23-.17-.35-.26-.19-.09-.33-.18-.42-.29-.06-.11-.08-.21-.05-.32s.18-.23.43-.35c.64-.3,1.25-.56,1.82-.77.57-.21.93-.34,1.08-.39.19-.06.34-.11.43-.15.06-.02.11-.03.15-.03M75.45,16.79c-.73,0-1.39.27-1.92.78-.54.52-.82,1.2-.82,1.96s.28,1.44.82,1.96c.19.18.4.34.62.46-.37.15-.76.32-1.15.51-.36.18-.82.46-.97.97-.11.38-.06.78.15,1.13.02.03.04.07.07.1.17.22.41.4.71.55.06.04.12.09.18.13,0,0,.02.02.02.03v8.99c0,.33-.04.65-.12.95-.28.07-.53.22-.72.43-.25.28-.38.62-.38.99s.13.71.38.99c.28.31.68.48,1.13.48h4.38c.41,0,.8-.16,1.08-.44.29-.29.44-.64.44-1.03,0-.36-.13-.7-.38-.98-.2-.22-.45-.37-.74-.44-.07-.26-.12-.55-.14-.84v-11.67c0-.3,0-.52-.02-.65-.05-.47-.27-.74-.47-.88.39-.48.59-1.07.59-1.72,0-.76-.27-1.43-.79-1.95-.52-.52-1.19-.79-1.95-.79h0Z"/>
        </g>
        <g>
          <path class="cls-2" d="M85.6,37.9c-.47,0-1.04-.08-1.72-.26-.71-.18-1.4-.57-2.03-1.15-.63-.57-1.18-1.4-1.62-2.45-.44-1.04-.67-2.44-.67-4.16s.22-3.22.67-4.28c.44-1.07.99-1.91,1.61-2.52.64-.61,1.32-1.03,2.03-1.23.67-.19,1.26-.29,1.73-.29s1.05.1,1.73.29c.71.21,1.39.62,2.03,1.23.63.61,1.17,1.45,1.61,2.52.44,1.07.67,2.49.67,4.22s-.22,3.18-.67,4.22c-.44,1.05-.99,1.87-1.62,2.45-.64.58-1.32.96-2.03,1.15-.69.17-1.25.26-1.72.26ZM85.6,22.99c-.42,0-.72.14-.95.46-.28.38-.5.9-.64,1.53-.15.66-.25,1.42-.28,2.26-.03.86-.05,1.73-.05,2.61,0,.94.02,1.8.05,2.64.03.81.12,1.54.28,2.17.14.59.36,1.07.63,1.42.23.29.53.42.96.42s.73-.13.96-.42c.28-.35.49-.83.63-1.42.15-.63.25-1.36.28-2.17.03-.84.05-1.7.05-2.57s-.02-1.78-.05-2.66c-.03-.85-.12-1.61-.28-2.27-.15-.63-.36-1.14-.64-1.53-.23-.31-.53-.46-.95-.46Z"/>
          <path class="cls-3" d="M85.6,22.07c.43,0,.96.09,1.59.27.63.18,1.24.55,1.82,1.11.58.56,1.08,1.34,1.5,2.35.42,1.01.63,2.35.63,4.03v.06c0,1.65-.21,2.97-.63,3.96-.42.99-.92,1.75-1.5,2.27-.58.53-1.19.87-1.82,1.03-.63.16-1.17.24-1.59.24s-.96-.08-1.59-.24c-.63-.16-1.24-.5-1.82-1.03-.58-.53-1.08-1.28-1.5-2.27-.42-.99-.63-2.31-.63-3.96v-.06c0-1.68.21-3.02.63-4.03.42-1.01.92-1.79,1.5-2.35.58-.56,1.19-.93,1.82-1.11.63-.18,1.16-.27,1.59-.27M85.6,36.98c.58,0,1.03-.2,1.35-.61.32-.41.56-.94.73-1.61s.26-1.42.29-2.27c.03-.85.05-1.71.05-2.59s-.02-1.79-.05-2.67c-.03-.88-.13-1.67-.29-2.37s-.4-1.27-.73-1.71c-.32-.44-.77-.66-1.35-.66s-1.03.22-1.35.66c-.32.44-.56,1.01-.73,1.71s-.26,1.48-.29,2.35c-.03.87-.05,1.74-.05,2.62v.06c0,.88.02,1.75.05,2.59.03.85.13,1.61.29,2.27s.4,1.2.73,1.61c.32.41.77.61,1.35.61M85.6,21.07c-.53,0-1.14.1-1.87.31-.79.23-1.54.68-2.24,1.35-.68.65-1.26,1.56-1.73,2.69-.47,1.14-.7,2.58-.7,4.41v.06c0,1.81.23,3.23.71,4.35.47,1.12,1.06,2,1.75,2.62.7.63,1.46,1.06,2.25,1.26.72.18,1.32.27,1.84.27s1.12-.09,1.84-.27c.79-.2,1.55-.63,2.25-1.26.68-.62,1.27-1.5,1.75-2.62.48-1.12.71-2.54.71-4.35v-.06c0-1.82-.23-3.27-.7-4.41-.47-1.13-1.05-2.04-1.73-2.69-.7-.67-1.45-1.12-2.24-1.35-.73-.21-1.35-.31-1.87-.31h0ZM85.6,35.98c-.34,0-.47-.11-.57-.23-.23-.29-.41-.7-.54-1.23-.14-.6-.23-1.29-.26-2.07-.03-.84-.05-1.7-.05-2.55v-.06c0-.86.02-1.73.05-2.59.03-.8.12-1.53.26-2.16.13-.56.32-1.01.56-1.34.11-.15.25-.25.55-.25s.44.1.55.25c.24.33.43.78.56,1.34.15.63.24,1.37.27,2.18.03.86.05,1.75.05,2.64s-.02,1.73-.05,2.55c-.03.78-.12,1.48-.26,2.07-.13.52-.31.93-.54,1.23-.1.12-.23.23-.57.23h0Z"/>
        </g>
        <g>
          <path class="cls-2" d="M100.54,37.68c-.4,0-.63-.17-.76-.31-.17-.19-.25-.42-.25-.66s.09-.47.25-.65c.12-.13.33-.29.68-.31.04-.06.07-.15.1-.3.04-.19.07-.4.09-.63.02-.24.03-.48.03-.7v-8.86c0-.24,0-.47-.03-.7-.02-.18-.05-.33-.12-.46-.04-.09-.12-.16-.23-.23-.12-.07-.32-.11-.57-.11-.34,0-.64.05-.89.16-.26.11-.5.25-.7.41-.2.17-.38.34-.51.52-.12.16-.22.3-.3.43v8.84c0,.23,0,.47.02.72,0,.22.04.42.08.59.04.16.09.26.12.32.35.02.56.18.68.31.17.19.26.42.26.66s-.1.48-.29.67c-.19.19-.44.29-.73.29h-4.38c-.4,0-.63-.17-.76-.31-.17-.19-.25-.42-.25-.65s.09-.47.26-.65c.12-.13.32-.28.66-.31.03-.07.08-.17.12-.32.04-.17.07-.37.08-.59.01-.25.02-.49.02-.72v-8.79s0-.07-.03-.1c-.04-.07-.09-.13-.15-.19-.06-.06-.12-.11-.19-.15-.22-.09-.42-.24-.55-.41-.17-.28-.21-.53-.14-.77.1-.33.42-.52.69-.66.34-.16.66-.3.97-.44.33-.15.63-.27.91-.37.27-.1.5-.18.7-.25l.38-.13c.55-.19.75-.22.87-.22.66,0,.66.84.66,1.24v.08c.2-.19.42-.37.67-.55.39-.28.86-.52,1.38-.71.53-.19,1.14-.29,1.79-.29.73,0,1.31.12,1.77.37.45.24.8.57,1.05.96.24.38.4.81.46,1.28.06.42.09.84.09,1.24v8.86c0,.23,0,.47.02.72,0,.23.03.43.07.61.03.15.07.24.1.3.35.02.56.18.68.31.17.19.26.42.26.66s-.1.48-.29.67c-.19.19-.44.29-.73.29h-4.12Z"/>
          <path class="cls-3" d="M101.19,21.91c.64,0,1.15.1,1.53.31.38.2.66.47.87.79.2.32.33.68.39,1.08.05.4.08.79.08,1.18v8.86c0,.24,0,.48.02.74.01.26.04.49.08.69.04.2.11.37.19.5.09.13.19.19.32.19.17,0,.3.05.39.14.09.1.13.2.13.32s-.05.23-.14.32-.22.14-.37.14h-4.12c-.17,0-.3-.05-.39-.14s-.13-.2-.13-.32.04-.23.13-.32c.09-.1.21-.14.39-.14.13,0,.24-.06.32-.19.09-.13.15-.29.19-.5.04-.2.08-.44.1-.69.02-.26.03-.5.03-.74v-8.86c0-.26-.01-.5-.03-.74-.02-.24-.08-.45-.16-.63-.09-.18-.23-.33-.43-.45-.2-.12-.48-.18-.82-.18-.41,0-.77.06-1.08.19-.31.13-.59.29-.82.48-.24.19-.43.4-.6.61-.16.22-.3.41-.4.58v8.99c0,.24,0,.48.02.74.01.26.04.49.1.69.05.2.12.37.21.5.09.13.19.19.32.19.17,0,.3.05.39.14.09.1.13.2.13.32s-.05.23-.14.32-.22.14-.37.14h-4.38c-.17,0-.3-.05-.39-.14-.09-.1-.13-.2-.13-.32s.04-.23.13-.32c.09-.1.21-.14.39-.14.13,0,.23-.06.31-.19.08-.13.14-.29.19-.5.05-.2.09-.44.1-.69.01-.26.02-.5.02-.74v-8.79c0-.13-.03-.25-.1-.35-.06-.11-.14-.2-.23-.29-.09-.09-.18-.16-.29-.23-.19-.09-.33-.18-.42-.29-.06-.11-.08-.21-.05-.32.03-.11.18-.23.43-.35.32-.15.64-.3.95-.43.31-.14.6-.26.87-.35.27-.1.5-.18.69-.24.19-.06.32-.11.39-.13.36-.13.6-.19.71-.19s.16.25.16.74v1.42c.13-.19.32-.42.56-.69.25-.27.55-.53.9-.79.35-.26.77-.47,1.26-.64.48-.17,1.03-.26,1.63-.26M101.19,20.91c-.71,0-1.37.11-1.96.32-.56.2-1.07.46-1.49.76-.16-.57-.52-.85-1.06-.85-.24,0-.52.07-1.04.25l-.21.07-.16.05c-.2.07-.44.15-.72.25-.28.1-.59.22-.94.38-.32.14-.64.29-.96.44-.36.18-.82.46-.97.97-.11.38-.06.78.15,1.13.02.04.05.07.07.1.17.22.41.4.72.55.02.02.04.03.06.05,0,0,.02.02.03.03v8.7c0,.22,0,.46-.01.7,0,.18-.03.35-.06.48,0,0,0,0,0,.01-.26.08-.49.22-.66.41-.25.28-.38.62-.38.99s.13.71.38.99c.27.31.68.48,1.13.48h4.38c.41,0,.8-.16,1.08-.44s.44-.65.44-1.03-.13-.71-.38-.99c-.19-.21-.42-.35-.7-.42-.04-.14-.06-.3-.07-.48-.01-.24-.01-.48-.01-.7v-8.69c.06-.09.13-.18.2-.28.11-.15.26-.3.43-.44.16-.13.35-.24.57-.33.19-.08.42-.12.7-.12.24,0,.32.04.32.04.03.02.04.03.04.03.02.06.05.16.06.27.02.21.03.42.03.65v8.86c0,.21,0,.43-.03.66-.02.2-.04.38-.07.53-.27.07-.5.22-.68.42-.25.28-.38.62-.38.99s.13.71.38.99c.28.31.68.48,1.13.48h4.12c.41,0,.8-.16,1.08-.44s.44-.65.44-1.03-.13-.71-.38-.99c-.18-.2-.41-.34-.68-.42-.03-.14-.04-.3-.05-.49-.01-.24-.01-.48-.01-.7v-8.86c0-.43-.03-.87-.09-1.31-.07-.54-.25-1.04-.53-1.48-.3-.47-.71-.85-1.24-1.13-.53-.29-1.19-.43-2.01-.43h0Z"/>
        </g>
        <g>
          <path class="cls-2" d="M111.43,37.9c-.57,0-1.21-.08-1.9-.24-.69-.16-1.36-.41-1.98-.74-.64-.34-1.17-.78-1.6-1.3-.46-.56-.69-1.22-.69-1.96,0-.5.1-.96.29-1.36.19-.4.45-.73.76-.99.33-.27.7-.44,1.1-.5.09-.01.18-.02.28-.02.32,0,.64.08.96.22.42.19.72.45.9.77.17.3.26.62.26.96s-.08.66-.25.97c-.15.29-.35.56-.6.81-.22.22-.19.34-.18.4.05.19.18.36.4.53.27.2.61.38,1.01.52.4.14.82.21,1.25.21.73,0,1.33-.16,1.78-.46.44-.3.7-.63.79-1.03.1-.38,0-.8-.28-1.26-.3-.49-.89-.93-1.76-1.32-.49-.21-1.08-.46-1.76-.75-.71-.3-1.4-.67-2.05-1.11-.66-.45-1.24-.97-1.72-1.55-.52-.64-.79-1.4-.79-2.27,0-1.45.49-2.63,1.45-3.52.95-.88,2.41-1.32,4.33-1.32.89,0,1.69.12,2.37.37.68.24,1.27.55,1.73.91.48.38.86.81,1.1,1.27.25.48.38.95.38,1.39,0,.59-.08,1.07-.25,1.47-.17.41-.4.73-.69.97-.29.24-.62.39-.98.44-.1.02-.21.02-.31.02-.26,0-.5-.05-.74-.16-.69-.26-1.14-.78-1.28-1.49-.14-.71.13-1.41.81-2.09.18-.18.29-.37.33-.55.02-.09.02-.22-.11-.39-.13-.17-.39-.32-.74-.45-.4-.14-.95-.21-1.64-.21-.84,0-1.46.19-1.82.56-.38.38-.57.82-.58,1.33-.02.53.14,1.07.46,1.61.32.54.78.92,1.39,1.18.73.33,1.48.65,2.24.97.79.33,1.5.71,2.12,1.1.65.41,1.19.9,1.6,1.43.46.58.69,1.27.69,2.05,0,.94-.21,1.72-.64,2.33-.41.59-.92,1.05-1.54,1.39-.6.33-1.26.55-1.98.67-.69.11-1.34.17-1.95.17Z"/>
          <path class="cls-3" d="M111.43,22.1c.84,0,1.57.11,2.21.34.63.23,1.16.5,1.59.84.43.33.75.7.97,1.11.21.41.32.79.32,1.16,0,.52-.07.94-.21,1.27-.14.33-.32.59-.55.77-.23.18-.47.3-.74.34-.08.01-.15.02-.23.02-.19,0-.36-.04-.53-.11-.56-.22-.89-.59-1-1.13-.11-.54.12-1.08.68-1.64.26-.26.41-.53.47-.81.05-.28-.02-.54-.21-.79-.19-.25-.52-.45-.97-.61-.45-.16-1.05-.24-1.8-.24-.99,0-1.71.24-2.17.71-.46.47-.7,1.03-.73,1.66-.02.63.16,1.26.53,1.88.38.62.92,1.08,1.63,1.39.73.32,1.48.64,2.24.97.76.32,1.44.68,2.05,1.06.6.39,1.1.83,1.48,1.32.39.49.58,1.07.58,1.74,0,.84-.18,1.52-.55,2.05-.37.53-.82.94-1.37,1.24-.55.3-1.15.5-1.82.61s-1.29.16-1.87.16c-.54,0-1.13-.08-1.79-.23s-1.27-.38-1.85-.69c-.58-.31-1.06-.7-1.45-1.18-.39-.47-.58-1.02-.58-1.64,0-.43.08-.81.24-1.14.16-.33.37-.61.63-.82.26-.21.54-.34.85-.39.07,0,.14-.01.21-.01.24,0,.49.06.74.18.32.15.55.34.68.56.13.23.19.46.19.71s-.06.49-.19.74c-.13.25-.3.48-.52.69-.28.28-.38.57-.31.87.08.3.27.57.58.81.31.24.69.43,1.14.6.45.16.92.24,1.42.24.84,0,1.52-.18,2.06-.55.54-.36.87-.81,1-1.32.13-.52.02-1.06-.34-1.64-.35-.58-1.01-1.08-1.98-1.51-.49-.21-1.08-.47-1.77-.76-.69-.29-1.34-.64-1.97-1.06-.62-.42-1.16-.9-1.61-1.45-.45-.55-.68-1.2-.68-1.95,0-1.31.43-2.36,1.29-3.16.86-.79,2.19-1.19,3.99-1.19M111.43,21.1c-2.06,0-3.63.49-4.67,1.46-1.07.99-1.61,2.3-1.61,3.89,0,.99.3,1.86.9,2.58.39.47.83.9,1.33,1.29,0,0-.02,0-.03,0-.5.07-.96.28-1.36.61-.37.31-.67.69-.89,1.15-.23.47-.34,1-.34,1.58,0,.86.27,1.62.81,2.28.47.57,1.06,1.05,1.75,1.42.66.35,1.37.62,2.1.79.73.17,1.4.25,2.01.25s1.31-.06,2.03-.17c.78-.13,1.5-.37,2.14-.72.68-.38,1.26-.9,1.71-1.55.48-.69.73-1.57.73-2.62,0-.89-.27-1.68-.79-2.36-.45-.58-1.04-1.1-1.73-1.55-.26-.17-.54-.34-.84-.49.04,0,.08,0,.12,0,.13,0,.25-.01.38-.03.44-.07.85-.26,1.21-.55.35-.28.64-.68.84-1.16.19-.46.29-1,.29-1.66,0-.53-.15-1.07-.44-1.62-.28-.53-.7-1.02-1.24-1.44-.51-.4-1.14-.73-1.87-.99-.74-.26-1.59-.4-2.54-.4h0ZM112.91,28.13c-.62-.26-1.22-.52-1.82-.79-.53-.22-.91-.54-1.17-.99-.28-.46-.4-.89-.39-1.33.01-.38.15-.7.44-.99.33-.34.98-.41,1.46-.41.79,0,1.23.1,1.47.18.38.14.5.26.51.29,0,.06-.07.16-.18.27-1,1-1.07,1.94-.95,2.55.1.48.31.89.62,1.22h0ZM109.3,34.89s0,0,0,0c.29-.29.52-.6.7-.94.2-.39.31-.8.31-1.2,0-.3-.05-.58-.16-.86.63.26,1.17.5,1.63.7.75.33,1.28.72,1.53,1.12.31.51.24.79.22.88-.07.27-.26.51-.59.74-.37.25-.87.38-1.5.38-.38,0-.73-.06-1.08-.18-.35-.13-.65-.28-.88-.45-.05-.04-.13-.1-.17-.17h0Z"/>
        </g>
      </g>
    </g>
  </g>
</svg>