<?xml version="1.0" encoding="UTF-8"?>
<svg id="tel-swipe" xmlns="http://www.w3.org/2000/svg" viewBox="0 0 337.65 83.6">
  <defs>
    <style>
      .cls-1 {
        stroke-width: .25px;
      }

      .cls-1, .cls-2 {
        fill: #8fa1c9;
        stroke: #000;
        stroke-miterlimit: 10;
      }
    </style>
  </defs>
  <g id="bas-3" data-name="bas">
    <g>
      <polygon class="cls-2" points="238.1 41.57 126.72 37.46 15.34 33.35 15.34 41.57 15.34 49.8 126.72 45.68 238.1 41.57"/>
      <polygon class="cls-2" points="237.26 38.34 126.65 22.55 3.03 6.76 8.71 15.03 13.65 23.09 125.45 30.71 237.26 38.34"/>
      <polygon class="cls-2" points="237.42 44.9 126.65 60.65 2.86 76.41 8.56 68.15 13.51 60.08 125.46 52.49 237.42 44.9"/>
      <g>
        <path class="cls-1" d="M231.37,54.27l.12.16.18.24-.29-.41s-.01,0-.01,0Z"/>
        <path class="cls-1" d="M231.43,27.85l.53-.69s-.03-.02-.04-.03l-.49.72Z"/>
        <path class="cls-1" d="M226.94,60.62c-1.61,6.03,1.99,12.25,8.02,13.86,1.32.35,2.54.56,3.75.56,3.69,0,7.32-1.73,13.54-7.74.02-.02.04-.03.06-.06,15.22-13.9,35.5-16.44,54.03-20.93,3.51-.65,7.04-1.28,10.57-1.9,3.53-.62,7.07-1.24,10.61-1.89,4.37-1.17,7.27-2,7.27-2-6.93-1.14-14.09-1.97-21.34-2.82-3.62-.42-7.27-.85-10.91-1.33-17.04-.78-34.54-6.95-48.4-19.26-.01-.01-.02-.02-.03-.03-9.62-9.72-13.38-10.86-19.15-9.32-6.03,1.61-9.63,7.83-8.02,13.85.68,2.57,2.25,4.82,4.42,6.34h0c1.48,1.02,3.21,1.55,4.97,1.55.75,0,1.51-.09,2.26-.29,2.26-.61,4.14-2.05,5.32-4.08.92-1.58,1.31-3.38,1.14-5.17v-.05c.08-1.58-.58-3.18-1.91-4.24-2.2-1.76-5.41-1.4-7.17.8s-1.4,5.41.8,7.16c2.12,1.69,5.17,1.42,6.95-.56-.16.54-.39,1.06-.68,1.56-1.04,1.8-2.71,3.08-4.71,3.61-2.17.59-4.5.19-6.36-1.08h0l-.04-.03c-1.98-1.4-3.4-3.45-4.02-5.77-1.47-5.5,1.81-11.16,7.3-12.63,5.24-1.4,8.5-.89,19.06,9.93,5.16,15,4.18,30.96-1.06,45.99-9.72,9.78-12.94,10.21-18,8.86-5.49-1.47-8.77-7.13-7.3-12.63.62-2.33,2.05-4.38,4.02-5.77h.01c1.87-1.29,4.2-1.7,6.39-1.11,2.65.7,4.61,2.72,5.39,5.16-1.79-1.97-4.84-2.24-6.95-.56-2.2,1.76-2.56,4.97-.8,7.17,1.76,2.2,4.97,2.56,7.17.8,1.35-1.08,2-2.69,1.91-4.29.38-4.16-2.29-8.13-6.46-9.25-2.47-.66-5.09-.2-7.2,1.23h-.01s-.01.02-.02.02c-2.18,1.54-3.74,3.79-4.42,6.34Z"/>
      </g>
    </g>
  </g>
</svg>