<?xml version="1.0" encoding="UTF-8"?>
<svg id="tel-swipe" xmlns="http://www.w3.org/2000/svg" viewBox="0 0 332.08 130.74">
  <defs>
    <style>
      .cls-1 {
        fill: #8fa1c9;
        stroke: #fff4e3;
        stroke-miterlimit: 10;
        stroke-width: 2px;
      }

      .cls-2 {
        fill: #252422;
      }

      .cls-2, .cls-3 {
        stroke-width: 0px;
      }

      .cls-3 {
        fill: #fff4e3;
      }
    </style>
  </defs>
  <g id="milieu">
    <g>
      <path class="cls-1" d="M55.09,52.36c5.52,2.33,8.81,7.21,8.81,13.69,0,12.95-10.5,19.52-26.1,19.52H8.61l10.93-63.03h26.53c13.37,0,19.42,6.15,19.42,14.96,0,7-4.14,12.52-10.4,14.86ZM40.23,60.21h-9.66l-1.91,11.14h9.66c4.46,0,7.64-1.7,7.64-6.05,0-3.29-1.7-5.09-5.73-5.09ZM41.93,36.76h-7.22l-1.91,10.82h7.43c4.46,0,7.43-1.7,7.43-5.94,0-3.18-1.7-4.88-5.73-4.88Z"/>
      <path class="cls-1" d="M108.99,85.57l-1.8-13.26h-19.52l-6.37,13.26h-18.68l33-63.03h20.69l10.82,63.03h-18.14ZM104,48.64c-.42-2.97-.53-5.52-.64-8.28h-.53c-.95,2.76-2.12,5.31-3.61,8.28l-4.77,9.76h10.82l-1.27-9.76Z"/>
      <path class="cls-1" d="M144.01,22.54h17.72l-8.17,47.11h25.04l-2.76,15.92h-42.76l10.93-63.03Z"/>
      <path class="cls-1" d="M223.59,85.57l-1.8-13.26h-19.52l-6.37,13.26h-18.68l33-63.03h20.69l10.82,63.03h-18.14ZM218.6,48.64c-.42-2.97-.53-5.52-.64-8.28h-.53c-.95,2.76-2.12,5.31-3.61,8.28l-4.77,9.76h10.82l-1.27-9.76Z"/>
      <path class="cls-1" d="M265.4,85.57h-17.72l10.93-63.03h17.72l-10.93,63.03Z"/>
      <path class="cls-1" d="M327.05,38.25h-25.25l-1.38,7.96h20.59l-2.76,15.28h-20.48l-1.49,8.38h26.95l-2.76,15.7h-44.57l10.93-63.03h44.25l-4.03,15.7Z"/>
    </g>
    <g>
      <g>
        <path class="cls-3" d="M4.19,125.7v-15.64c0-1.79-.06-3.25-.12-4.59l-.02-.39h3.05l.09,1.78c1.16-1.38,2.78-2.1,4.74-2.1,3.68,0,6.35,3.17,6.35,7.54,0,5.49-3.41,7.95-6.78,7.95-1.61,0-3.05-.57-4.02-1.57v7.02h-3.28ZM11.14,107.55c-1.63,0-3.07,1.19-3.51,2.89-.08.28-.16.64-.16.96v2.42c0,.35.05.67.11.98.42,1.6,1.82,2.69,3.48,2.69,2.41,0,3.91-1.94,3.91-5.07,0-2.42-1.18-4.87-3.82-4.87Z"/>
        <path class="cls-2" d="M11.93,105.14c3.41,0,5.97,2.88,5.97,7.17,0,5.07-3.09,7.57-6.41,7.57-1.86,0-3.5-.82-4.34-2.21h-.06v7.66h-2.53v-15.26c0-1.81-.06-3.26-.12-4.6h2.3l.12,2.42h.06c1.05-1.72,2.71-2.74,5.01-2.74M11.06,117.87c2.71,0,4.28-2.21,4.28-5.45,0-2.83-1.49-5.24-4.2-5.24-1.75,0-3.38,1.25-3.87,3.17-.09.32-.17.7-.17,1.05v2.42c0,.38.06.73.12,1.05.47,1.78,2.01,3,3.84,3M11.93,104.39c-1.75,0-3.25.54-4.41,1.59l-.03-.55-.03-.71h-3.8l.03.78c.06,1.34.12,2.79.12,4.57v16.01h4.03v-6.57c.99.72,2.26,1.13,3.65,1.13,4.92,0,7.16-4.31,7.16-8.32,0-4.59-2.83-7.92-6.72-7.92h0ZM7.94,114.71c-.05-.29-.1-.58-.1-.88v-2.42c0-.27.08-.6.15-.85.4-1.55,1.69-2.62,3.15-2.62,2.38,0,3.45,2.26,3.45,4.49s-.93,4.7-3.53,4.7c-1.47,0-2.72-.97-3.11-2.41h0Z"/>
      </g>
      <g>
        <path class="cls-3" d="M26.88,120.25c-4.2,0-7.13-3.14-7.13-7.63s3.03-7.86,7.37-7.86,7.16,3.14,7.16,7.63c0,5.43-3.71,7.86-7.4,7.86ZM27.05,107.44c-2.74,0-3.96,2.56-3.96,5.1,0,2.92,1.64,5.04,3.91,5.04s3.91-2.15,3.91-5.1c0-1.74-.8-5.04-3.85-5.04Z"/>
        <path class="cls-2" d="M27.11,105.14c4.05,0,6.79,2.94,6.79,7.25,0,5.21-3.61,7.49-7.02,7.49-3.82,0-6.76-2.8-6.76-7.25,0-4.72,3.09-7.49,6.99-7.49M26.99,117.96c2.45,0,4.28-2.3,4.28-5.48,0-2.39-1.19-5.42-4.22-5.42s-4.34,2.8-4.34,5.48c0,3.09,1.78,5.42,4.28,5.42M27.11,104.39c-4.56,0-7.74,3.39-7.74,8.24s3.09,8,7.51,8c3.74,0,7.77-2.58,7.77-8.24,0-4.71-3.1-8-7.54-8h0ZM26.99,117.21c-2.05,0-3.53-1.96-3.53-4.67,0-2.18.94-4.73,3.59-4.73s3.47,3.05,3.47,4.67c0,2.74-1.49,4.73-3.53,4.73h0Z"/>
      </g>
      <g>
        <path class="cls-3" d="M41.91,120.25c-1.58,0-5.24-.64-5.24-6.55v-8.62h3.31v8.18c0,3.69,1.58,4.11,2.77,4.11,1.6,0,2.63-1.13,3.03-2.1.13-.34.2-.76.2-1.17v-9.03h3.31v10.63c0,1.6.04,2.82.12,3.82l.03.4h-3.03l-.11-1.68c-.77.91-2.16,2-4.41,2Z"/>
        <path class="cls-2" d="M48.93,105.46v10.25c0,1.46.03,2.74.12,3.84h-2.27l-.15-2.3h-.06c-.67,1.14-2.16,2.62-4.66,2.62-2.21,0-4.87-1.22-4.87-6.17v-8.24h2.56v7.81c0,2.68.82,4.49,3.15,4.49,1.72,0,2.91-1.19,3.38-2.33.15-.38.23-.84.23-1.31v-8.65h2.56M49.68,104.71h-4.06v9.4c0,.36-.07.74-.18,1.04-.35.85-1.26,1.85-2.68,1.85-1.12,0-2.4-.42-2.4-3.74v-8.56h-4.06v8.99c0,1.62.4,6.92,5.62,6.92,1.88,0,3.21-.75,4.08-1.52l.03.5.04.7h3.79l-.06-.81c-.08-.99-.11-2.19-.11-3.79v-11h0Z"/>
      </g>
      <g>
        <path class="cls-3" d="M52.81,119.93v-10.08c0-1.82-.04-3.17-.12-4.37l-.03-.4h3.01l.06,1.82c.84-1.33,2.2-2.14,3.69-2.14.3,0,.54.03.82.1l.28.07v3.18l-.46-.1c-.25-.05-.49-.08-.79-.08-1.56,0-2.73,1.14-3.07,2.98-.05.33-.11.72-.11,1.13v7.89h-3.28Z"/>
        <path class="cls-2" d="M59.42,105.14c.29,0,.5.03.73.09v2.42c-.26-.06-.52-.09-.87-.09-1.81,0-3.09,1.37-3.44,3.29-.06.35-.12.76-.12,1.19v7.52h-2.53v-9.7c0-1.66-.03-3.09-.12-4.4h2.24l.09,2.77h.12c.64-1.89,2.19-3.09,3.9-3.09M59.42,104.39c-1.28,0-2.45.54-3.34,1.47v-.42s-.04-.73-.04-.73h-3.77l.05.8c.08,1.19.11,2.54.11,4.35v10.45h4.03v-8.27c0-.38.05-.74.11-1.07.3-1.64,1.33-2.67,2.7-2.67.28,0,.49.02.71.07l.91.2v-3.94l-.57-.14c-.31-.08-.58-.11-.91-.11h0Z"/>
      </g>
      <g>
        <path class="cls-3" d="M74.89,120.23c-4.42,0-7.4-3.04-7.4-7.57s3.27-7.86,7.95-7.86c1.61,0,3.01.41,3.72.77l.28.14-.81,2.74-.41-.24c-.5-.28-1.38-.62-2.78-.62-2.8,0-4.61,1.95-4.61,4.96s1.82,4.9,4.52,4.9c1.37,0,2.26-.34,2.99-.67l.42-.18.6,2.65-.26.13c-.76.4-2.32.86-4.22.86Z"/>
        <path class="cls-2" d="M75.44,105.17c1.51,0,2.85.38,3.55.73l-.58,1.98c-.61-.35-1.57-.67-2.97-.67-3.23,0-4.98,2.39-4.98,5.33,0,3.26,2.1,5.27,4.89,5.27,1.46,0,2.42-.38,3.15-.7l.44,1.92c-.67.35-2.16.82-4.05.82-4.25,0-7.02-2.88-7.02-7.19s2.97-7.49,7.57-7.49M75.44,104.42c-4.9,0-8.32,3.39-8.32,8.24s3.12,7.94,7.77,7.94c1.97,0,3.6-.49,4.4-.9l.51-.27-.13-.56-.44-1.92-.2-.89-.83.37c-.7.31-1.55.64-2.84.64-2.48,0-4.14-1.82-4.14-4.52,0-2.11,1.11-4.58,4.23-4.58,1.32,0,2.14.31,2.6.57l.82.47.27-.91.58-1.98.18-.6-.56-.28c-.78-.39-2.21-.81-3.89-.81h0Z"/>
      </g>
      <g>
        <path class="cls-3" d="M91,119.93v-8.47c0-1.74-.5-3.82-2.89-3.82-1.6,0-2.7,1.16-3.08,2.31-.13.32-.16.65-.16,1.11v8.88h-3.31v-21.43h3.31v8.1c.38-.42.83-.78,1.34-1.06.88-.51,1.85-.78,2.8-.78,2.44,0,5.3,1.68,5.3,6.41v8.76h-3.31Z"/>
        <path class="cls-2" d="M84.5,98.88v8.8h.06c.41-.73,1.05-1.37,1.83-1.81.76-.44,1.66-.73,2.62-.73,1.89,0,4.92,1.17,4.92,6.03v8.39h-2.56v-8.1c0-2.27-.84-4.19-3.26-4.19-1.66,0-2.97,1.17-3.44,2.56-.15.35-.17.73-.17,1.22v8.51h-2.56v-20.68h2.56M85.25,98.13h-4.06v22.18h4.06v-9.26c0-.4.02-.7.12-.93v-.03s.02-.03.02-.03c.34-1.02,1.31-2.05,2.72-2.05,1.67,0,2.51,1.16,2.51,3.44v8.85h4.06v-9.14c0-5-3.06-6.78-5.67-6.78-1.02,0-2.06.29-3,.83-.27.15-.53.32-.77.52v-7.61h0Z"/>
      </g>
      <g>
        <path class="cls-3" d="M103.85,120.25c-4.2,0-7.13-3.14-7.13-7.63s3.03-7.86,7.37-7.86,7.16,3.14,7.16,7.63c0,5.43-3.71,7.86-7.4,7.86ZM104.02,107.44c-2.74,0-3.96,2.56-3.96,5.1,0,2.92,1.64,5.04,3.91,5.04s3.91-2.15,3.91-5.1c0-1.74-.8-5.04-3.85-5.04Z"/>
        <path class="cls-2" d="M104.08,105.14c4.05,0,6.79,2.94,6.79,7.25,0,5.21-3.61,7.49-7.02,7.49-3.82,0-6.76-2.8-6.76-7.25,0-4.72,3.09-7.49,6.99-7.49M103.97,117.96c2.45,0,4.28-2.3,4.28-5.48,0-2.39-1.19-5.42-4.22-5.42s-4.34,2.8-4.34,5.48c0,3.09,1.78,5.42,4.28,5.42M104.08,104.39c-4.56,0-7.74,3.39-7.74,8.24s3.09,8,7.51,8c3.74,0,7.77-2.58,7.77-8.24,0-4.71-3.1-8-7.54-8h0ZM103.97,117.21c-2.05,0-3.53-1.96-3.53-4.67,0-2.18.94-4.73,3.59-4.73s3.47,3.05,3.47,4.67c0,2.74-1.49,4.73-3.53,4.73h0Z"/>
      </g>
      <g>
        <path class="cls-3" d="M113.73,119.93v-14.85h3.31v14.85h-3.31ZM115.33,103.45c-1.09,0-1.92-.84-1.92-1.95s.85-1.98,1.98-1.98,1.95.83,1.95,1.98c.02.51-.16,1-.51,1.36-.37.38-.9.59-1.5.59Z"/>
        <path class="cls-2" d="M115.39,99.9c.96,0,1.57.7,1.57,1.6.03.87-.61,1.57-1.63,1.57-.9,0-1.54-.7-1.54-1.57s.67-1.6,1.6-1.6M116.67,105.46v14.1h-2.56v-14.1h2.56M115.39,99.15c-1.34,0-2.35,1.01-2.35,2.35s1.01,2.32,2.29,2.32c.7,0,1.33-.25,1.77-.7.42-.43.64-1.02.62-1.64,0-1.34-.98-2.33-2.32-2.33h0ZM117.42,104.71h-4.06v15.6h4.06v-15.6h0Z"/>
      </g>
      <g>
        <path class="cls-3" d="M123.89,120.23c-1.54,0-3.06-.37-4.15-1.01l-.26-.15.89-2.7.41.27c.73.48,1.99.96,3.17.96,1.48,0,2.36-.64,2.36-1.72,0-.88-.38-1.5-2.38-2.24-3.28-1.17-3.97-3.01-3.97-4.34,0-2.66,2.15-4.51,5.24-4.51,1.31,0,2.68.35,3.66.93l.26.16-.89,2.6-.4-.25c-.36-.23-1.34-.76-2.68-.76-1.19,0-1.98.62-1.98,1.55,0,.87.52,1.31,2.44,2.04,2.73,1.04,3.94,2.46,3.94,4.6,0,2.79-2.22,4.6-5.65,4.6Z"/>
        <path class="cls-2" d="M125.2,105.14c1.43,0,2.68.41,3.47.87l-.64,1.86c-.55-.35-1.57-.82-2.88-.82-1.51,0-2.36.87-2.36,1.92,0,1.17.84,1.69,2.68,2.39,2.45.93,3.7,2.16,3.7,4.25,0,2.48-1.92,4.22-5.27,4.22-1.54,0-2.97-.38-3.96-.96l.64-1.95c.76.5,2.1,1.02,3.38,1.02,1.86,0,2.74-.93,2.74-2.1,0-1.22-.73-1.89-2.62-2.59-2.53-.9-3.73-2.3-3.73-3.99,0-2.27,1.83-4.14,4.86-4.14M125.2,104.39c-3.25,0-5.61,2.06-5.61,4.89,0,1.46.73,3.45,4.23,4.7,1.97.73,2.12,1.26,2.12,1.89,0,1.22-1.39,1.35-1.99,1.35-1.1,0-2.31-.46-2.97-.9l-.82-.54-.31.93-.64,1.95-.19.57.52.31c1.15.68,2.73,1.06,4.34,1.06,3.66,0,6.02-1.95,6.02-4.97s-2.23-4.21-4.18-4.95c-1.89-.72-2.2-1.09-2.2-1.69,0-.71.63-1.17,1.61-1.17,1.24,0,2.15.49,2.48.7l.8.51.31-.9.64-1.86.2-.58-.53-.31c-1.05-.62-2.45-.98-3.85-.98h0Z"/>
      </g>
      <g>
        <path class="cls-3" d="M132.08,119.93v-14.85h3.31v14.85h-3.31ZM133.68,103.45c-1.09,0-1.92-.84-1.92-1.95s.85-1.98,1.98-1.98,1.95.83,1.95,1.98c.02.51-.16,1-.51,1.36-.37.38-.9.59-1.5.59Z"/>
        <path class="cls-2" d="M133.74,99.9c.96,0,1.57.7,1.57,1.6.03.87-.61,1.57-1.63,1.57-.9,0-1.54-.7-1.54-1.57s.67-1.6,1.6-1.6M135.02,105.46v14.1h-2.56v-14.1h2.56M133.74,99.15c-1.34,0-2.35,1.01-2.35,2.35s1.01,2.32,2.29,2.32c.7,0,1.33-.25,1.77-.7.42-.43.64-1.02.62-1.64,0-1.34-.98-2.33-2.32-2.33h0ZM135.77,104.71h-4.06v15.6h4.06v-15.6h0Z"/>
      </g>
      <g>
        <path class="cls-3" d="M138.9,119.93v-10.08c0-1.83-.04-3.17-.12-4.37l-.03-.4h3.01l.06,1.82c.84-1.33,2.2-2.14,3.69-2.14.3,0,.54.03.82.1l.28.07v3.18l-.46-.1c-.25-.05-.49-.08-.79-.08-1.56,0-2.73,1.14-3.07,2.98-.05.32-.11.71-.11,1.13v7.89h-3.28Z"/>
        <path class="cls-2" d="M145.51,105.14c.29,0,.5.03.73.09v2.42c-.26-.06-.52-.09-.87-.09-1.81,0-3.09,1.37-3.44,3.29-.06.35-.12.76-.12,1.19v7.52h-2.53v-9.7c0-1.66-.03-3.09-.12-4.4h2.24l.09,2.77h.12c.64-1.89,2.18-3.09,3.9-3.09M145.51,104.39c-1.28,0-2.46.54-3.34,1.47v-.42s-.04-.73-.04-.73h-3.77l.05.8c.08,1.19.12,2.53.12,4.35v10.45h4.03v-8.27c0-.39.05-.76.11-1.07.3-1.64,1.33-2.67,2.7-2.67.28,0,.49.02.71.07l.91.2v-3.93l-.57-.14c-.31-.08-.58-.11-.91-.11h0Z"/>
      </g>
      <g>
        <rect class="cls-3" x="154.61" y="98.5" width="3.31" height="21.43"/>
        <path class="cls-2" d="M157.54,98.88v20.68h-2.56v-20.68h2.56M158.29,98.13h-4.06v22.18h4.06v-22.18h0Z"/>
      </g>
      <g>
        <path class="cls-3" d="M167.77,120.23c-4.44,0-7.31-2.94-7.31-7.48s2.87-7.98,6.99-7.98c4.58,0,6.2,3.78,6.2,7.02,0,.47-.04.84-.08,1.12l-.05.45h-9.85c.25,3.73,3.17,4.14,4.44,4.14,1.86,0,2.9-.34,3.76-.7l.41-.17.61,2.57-.28.13c-.92.41-2.5.91-4.84.91ZM170.42,110.77c-.04-.65-.22-1.81-1-2.6-.53-.54-1.27-.82-2.18-.82-2.24,0-3.21,1.98-3.49,3.42h6.66Z"/>
        <path class="cls-2" d="M167.45,105.14c4.6,0,5.83,4.05,5.83,6.64,0,.52-.06.93-.09,1.19h-9.9c.06,3.47,2.27,4.89,4.83,4.89,1.83,0,2.94-.32,3.9-.73l.44,1.83c-.9.41-2.45.87-4.69.87-4.34,0-6.93-2.85-6.93-7.11s2.5-7.6,6.61-7.6M163.31,111.14h7.49c.03-1.63-.67-4.17-3.55-4.17-2.59,0-3.73,2.39-3.93,4.17M167.45,104.39c-4.33,0-7.36,3.43-7.36,8.35s3.02,7.86,7.68,7.86c2.41,0,4.05-.51,5-.94l.56-.25-.14-.6-.44-1.83-.21-.86-.82.35c-.82.35-1.82.67-3.61.67-1.12,0-3.62-.35-4.03-3.39h9.77l.07-.67v-.12c.05-.27.09-.67.09-1.16,0-3.68-2.03-7.39-6.58-7.39h0ZM164.23,110.39c.36-1.24,1.24-2.67,3.02-2.67.82,0,1.44.23,1.91.71.56.57.77,1.36.85,1.96h-5.78Z"/>
      </g>
      <g>
        <path class="cls-3" d="M179.42,120.23c-1.54,0-3.06-.37-4.15-1.01l-.26-.15.89-2.7.41.27c.73.48,1.99.96,3.17.96,1.48,0,2.36-.64,2.36-1.72,0-.88-.38-1.5-2.38-2.24-3.28-1.17-3.97-3.01-3.97-4.34,0-2.66,2.15-4.51,5.24-4.51,1.31,0,2.68.35,3.66.93l.26.16-.89,2.6-.4-.25c-.36-.23-1.34-.76-2.68-.76-1.19,0-1.98.62-1.98,1.55,0,.87.52,1.31,2.44,2.04,2.73,1.04,3.94,2.46,3.94,4.6,0,2.79-2.22,4.6-5.65,4.6Z"/>
        <path class="cls-2" d="M180.73,105.14c1.43,0,2.68.41,3.47.87l-.64,1.86c-.55-.35-1.57-.82-2.88-.82-1.51,0-2.36.87-2.36,1.92,0,1.17.84,1.69,2.68,2.39,2.45.93,3.7,2.16,3.7,4.25,0,2.48-1.92,4.22-5.27,4.22-1.54,0-2.97-.38-3.96-.96l.64-1.95c.76.5,2.1,1.02,3.38,1.02,1.86,0,2.74-.93,2.74-2.1,0-1.22-.73-1.89-2.62-2.59-2.53-.9-3.73-2.3-3.73-3.99,0-2.27,1.83-4.14,4.86-4.14M180.73,104.39c-3.25,0-5.61,2.06-5.61,4.89,0,1.46.73,3.45,4.23,4.7,1.97.73,2.12,1.26,2.12,1.89,0,1.22-1.39,1.35-1.99,1.35-1.1,0-2.31-.46-2.97-.9l-.82-.54-.31.93-.64,1.95-.19.57.52.31c1.15.68,2.73,1.06,4.34,1.06,3.66,0,6.02-1.95,6.02-4.97s-2.23-4.21-4.18-4.95c-1.89-.72-2.2-1.09-2.2-1.69,0-.71.63-1.17,1.61-1.17,1.24,0,2.15.49,2.48.7l.8.51.31-.9.64-1.86.2-.58-.53-.31c-1.05-.62-2.45-.98-3.85-.98h0Z"/>
      </g>
      <g>
        <path class="cls-3" d="M193.79,119.93v-14.85h3.31v14.85h-3.31ZM195.39,103.45c-1.09,0-1.92-.84-1.92-1.95s.85-1.98,1.98-1.98,1.95.83,1.95,1.98c.02.51-.16,1-.51,1.36-.37.38-.9.59-1.5.59Z"/>
        <path class="cls-2" d="M195.45,99.9c.96,0,1.57.7,1.57,1.6.03.87-.61,1.57-1.63,1.57-.9,0-1.54-.7-1.54-1.57s.67-1.6,1.6-1.6M196.73,105.46v14.1h-2.56v-14.1h2.56M195.45,99.15c-1.34,0-2.35,1.01-2.35,2.35s1.01,2.32,2.29,2.32c.7,0,1.33-.25,1.76-.7.42-.43.64-1.02.62-1.64,0-1.34-.98-2.33-2.32-2.33h0ZM197.48,104.71h-4.06v15.6h4.06v-15.6h0Z"/>
      </g>
      <g>
        <path class="cls-3" d="M210.05,119.93v-8.5c0-1.73-.5-3.79-2.89-3.79-1.63,0-2.72,1.18-3.08,2.36-.1.29-.16.67-.16,1.08v8.85h-3.31v-10.66c0-1.57-.03-2.71-.12-3.79l-.03-.4h3.03l.1,1.66c.89-1.06,2.37-1.98,4.41-1.98,2.47,0,5.36,1.67,5.36,6.38v8.79h-3.31Z"/>
        <path class="cls-2" d="M208,105.14c1.95,0,4.98,1.17,4.98,6v8.42h-2.56v-8.13c0-2.27-.85-4.17-3.26-4.17-1.69,0-3,1.19-3.44,2.62-.12.32-.17.76-.17,1.19v8.48h-2.56v-10.28c0-1.46-.03-2.65-.12-3.82h2.27l.15,2.33h.06c.7-1.34,2.33-2.65,4.66-2.65M208,104.39c-1.76,0-3.13.64-4.09,1.49l-.03-.47-.04-.7h-3.78l.06.81c.08,1.07.11,2.2.11,3.76v11.03h4.06v-9.23c0-.36.05-.71.13-.94.33-1.08,1.29-2.13,2.73-2.13,1.67,0,2.51,1.15,2.51,3.42v8.88h4.06v-9.17c0-4.98-3.09-6.75-5.73-6.75h0Z"/>
      </g>
      <g>
        <path class="cls-3" d="M222.05,126.02c-1.88,0-3.76-.47-4.9-1.23l-.24-.16.88-2.68.41.25c.5.32,1.9,1.05,3.94,1.05,2.77,0,4.17-1.53,4.17-4.55v-.53c-1.01,1.09-2.48,1.69-4.17,1.69-3.63,0-6.38-3.12-6.38-7.25,0-5.11,3.46-7.86,6.72-7.86,2.15,0,3.43.95,4.14,1.78l.08-1.46h3l-.02.4c-.06,1.02-.12,2.15-.12,3.85v8.19c0,3.33-.66,5.4-2.13,6.72-1.58,1.47-3.79,1.79-5.38,1.79ZM222.92,107.53c-2.29,0-3.82,1.99-3.82,4.96,0,2.17.99,4.69,3.79,4.69,1.46,0,2.71-.93,3.2-2.37.12-.36.18-.8.18-1.25v-2.53c0-.47-.04-.78-.13-1.05-.37-1.19-1.42-2.45-3.23-2.45Z"/>
        <path class="cls-2" d="M222.48,105.14c2.45,0,3.79,1.28,4.4,2.45h.06l.12-2.13h2.24c-.06,1.02-.12,2.16-.12,3.87v8.19c0,3.23-.64,5.21-2.01,6.44-1.37,1.28-3.35,1.69-5.13,1.69s-3.55-.41-4.69-1.17l.64-1.95c.93.58,2.39,1.11,4.14,1.11,2.62,0,4.54-1.37,4.54-4.92v-1.57h-.06c-.79,1.31-2.3,2.36-4.49,2.36-3.5,0-6-2.97-6-6.87,0-4.78,3.12-7.49,6.35-7.49M222.89,117.55c1.57,0,3-.99,3.55-2.62.15-.44.2-.93.2-1.37v-2.53c0-.44-.03-.82-.15-1.17-.47-1.49-1.72-2.71-3.58-2.71-2.45,0-4.2,2.07-4.2,5.33,0,2.77,1.4,5.07,4.17,5.07M222.48,104.39c-4.61,0-7.1,4.24-7.1,8.24,0,4.35,2.9,7.62,6.75,7.62,1.46,0,2.77-.43,3.79-1.21-.09,2.59-1.33,3.85-3.79,3.85-1.94,0-3.26-.69-3.74-.99l-.81-.51-.3.91-.64,1.95-.18.54.48.32c1.2.8,3.15,1.29,5.11,1.29,1.65,0,3.97-.33,5.64-1.89,1.55-1.39,2.25-3.54,2.25-6.99v-8.19c0-1.69.06-2.82.11-3.83l.05-.79h-3.75l-.04.71v.26c-.83-.69-2.05-1.29-3.82-1.29h0ZM222.89,116.8c-2.52,0-3.42-2.23-3.42-4.32,0-2.78,1.35-4.58,3.45-4.58,1.37,0,2.44.82,2.87,2.18.08.24.11.52.11.94v2.53c0,.41-.06.81-.17,1.13-.43,1.28-1.55,2.11-2.84,2.11h0Z"/>
      </g>
      <g>
        <path class="cls-3" d="M232.89,119.93v-10.08c0-1.82-.04-3.17-.12-4.37l-.03-.4h3.01l.06,1.82c.84-1.33,2.2-2.14,3.69-2.14.3,0,.54.03.82.1l.28.07v3.18l-.46-.1c-.25-.05-.49-.08-.79-.08-1.56,0-2.73,1.14-3.07,2.98-.05.33-.11.72-.11,1.13v7.89h-3.28Z"/>
        <path class="cls-2" d="M239.5,105.14c.29,0,.5.03.73.09v2.42c-.26-.06-.52-.09-.87-.09-1.81,0-3.09,1.37-3.44,3.29-.06.35-.12.76-.12,1.19v7.52h-2.53v-9.7c0-1.66-.03-3.09-.12-4.4h2.24l.09,2.77h.12c.64-1.89,2.19-3.09,3.9-3.09M239.5,104.39c-1.28,0-2.45.54-3.34,1.47v-.42s-.04-.73-.04-.73h-3.77l.05.8c.08,1.19.11,2.54.11,4.35v10.45h4.03v-8.27c0-.38.05-.74.11-1.07.3-1.64,1.33-2.67,2.7-2.67.28,0,.49.02.71.07l.91.2v-3.94l-.57-.14c-.31-.08-.58-.11-.91-.11h0Z"/>
      </g>
      <g>
        <path class="cls-3" d="M248.41,120.23c-4.44,0-7.31-2.94-7.31-7.48s2.87-7.98,6.99-7.98c4.58,0,6.2,3.78,6.2,7.02,0,.47-.04.85-.08,1.12l-.05.45h-9.85c.25,3.73,3.17,4.14,4.45,4.14,1.85,0,2.9-.34,3.76-.7l.41-.17.61,2.57-.28.13c-.92.41-2.5.91-4.84.91ZM251.06,110.77c-.04-.65-.22-1.81-1-2.6-.53-.54-1.27-.82-2.18-.82-2.23,0-3.21,1.98-3.49,3.42h6.67ZM245.99,103.91l3.02-4.92h3.85l-4.19,4.92h-2.68Z"/>
        <path class="cls-2" d="M252.05,99.37l-3.55,4.17h-1.83l2.56-4.17h2.83M248.09,105.14c4.6,0,5.83,4.05,5.83,6.64,0,.52-.06.93-.09,1.19h-9.9c.06,3.47,2.27,4.89,4.84,4.89,1.83,0,2.94-.32,3.9-.73l.44,1.83c-.9.41-2.45.87-4.69.87-4.34,0-6.93-2.85-6.93-7.11s2.5-7.6,6.61-7.6M243.96,111.14h7.49c.03-1.63-.67-4.17-3.55-4.17-2.59,0-3.73,2.39-3.93,4.17M253.68,98.62h-4.87l-.22.36-2.56,4.17-.7,1.14h3.52l.22-.26,3.55-4.17,1.06-1.24h0ZM248.09,104.39c-4.33,0-7.36,3.43-7.36,8.35s3.02,7.86,7.68,7.86c2.41,0,4.05-.51,5-.94l.56-.25-.14-.6-.44-1.83-.21-.86-.82.35c-.82.35-1.82.67-3.61.67-1.12,0-3.62-.35-4.03-3.39h9.77l.07-.67v-.11c.04-.27.09-.67.09-1.17,0-3.68-2.03-7.39-6.58-7.39h0ZM244.87,110.39c.3-1.05,1.07-2.67,3.02-2.67.82,0,1.44.23,1.91.71.56.57.77,1.36.85,1.96h-5.78Z"/>
      </g>
      <g>
        <path class="cls-3" d="M262.11,120.25c-3.71,0-6.41-3.17-6.41-7.54-.02-2.46.77-4.62,2.22-6.08,1.2-1.2,2.78-1.87,4.47-1.87s3.01.54,3.94,1.49v-7.75h3.31v17.42c0,.88.02,2.51.12,3.61l.04.41h-3.07l-.08-1.72c-1.04,1.28-2.7,2.04-4.54,2.04ZM262.89,107.53c-2.34,0-3.85,1.99-3.85,5.07,0,2.23.99,4.84,3.79,4.84,1.63,0,2.99-1.11,3.39-2.77.07-.3.11-.6.11-1.02v-2.45c0-.38-.04-.74-.1-.98-.31-1.35-1.46-2.7-3.34-2.7Z"/>
        <path class="cls-2" d="M269.27,98.88v17.04c0,1.25.03,2.68.12,3.64h-2.3l-.12-2.45h-.06c-.79,1.57-2.5,2.77-4.81,2.77-3.41,0-6.03-2.88-6.03-7.17-.03-4.69,2.88-7.57,6.32-7.57,2.16,0,3.61,1.02,4.25,2.16h.06v-8.42h2.56M262.83,117.81c1.72,0,3.29-1.14,3.76-3.06.09-.35.12-.7.12-1.11v-2.45c0-.32-.03-.76-.12-1.08-.38-1.63-1.78-2.97-3.7-2.97-2.65,0-4.22,2.33-4.22,5.45,0,2.85,1.4,5.21,4.17,5.21M270.02,98.13h-4.06v7.32c-.95-.68-2.19-1.05-3.56-1.05-1.79,0-3.47.7-4.74,1.98-1.52,1.53-2.35,3.79-2.33,6.35,0,4.58,2.85,7.91,6.78,7.91,1.62,0,3.11-.56,4.21-1.53l.02.5.03.71h3.84l-.07-.82c-.1-1.09-.11-2.7-.11-3.57v-17.79h0ZM262.83,117.06c-2.52,0-3.42-2.31-3.42-4.46s.91-4.7,3.47-4.7c1.67,0,2.69,1.2,2.97,2.39.06.23.1.57.1.91v2.45c0,.39-.03.66-.09.92-.36,1.49-1.58,2.49-3.03,2.49h0Z"/>
      </g>
      <g>
        <path class="cls-3" d="M273.15,119.93v-14.85h3.31v14.85h-3.31ZM274.75,103.45c-1.09,0-1.92-.84-1.92-1.95s.85-1.98,1.98-1.98,1.95.83,1.95,1.98c.02.51-.16,1-.51,1.36-.37.38-.9.59-1.5.59Z"/>
        <path class="cls-2" d="M274.81,99.9c.96,0,1.57.7,1.57,1.6.03.87-.61,1.57-1.63,1.57-.9,0-1.54-.7-1.54-1.57s.67-1.6,1.6-1.6M276.09,105.46v14.1h-2.56v-14.1h2.56M274.81,99.15c-1.34,0-2.35,1.01-2.35,2.35s1.01,2.32,2.29,2.32c.7,0,1.33-.25,1.76-.7.42-.43.64-1.02.62-1.64,0-1.34-.98-2.33-2.32-2.33h0ZM276.84,104.71h-4.06v15.6h4.06v-15.6h0Z"/>
      </g>
      <g>
        <path class="cls-3" d="M286.26,120.23c-4.44,0-7.31-2.94-7.31-7.48s2.87-7.98,6.99-7.98c4.58,0,6.2,3.78,6.2,7.02,0,.47-.04.84-.08,1.12l-.05.45h-9.85c.25,3.73,3.17,4.14,4.44,4.14,1.86,0,2.9-.34,3.76-.7l.41-.17.61,2.57-.28.13c-.92.41-2.5.91-4.84.91ZM288.9,110.77c-.04-.65-.22-1.81-1-2.6-.53-.54-1.27-.82-2.18-.82-2.24,0-3.21,1.98-3.49,3.42h6.66Z"/>
        <path class="cls-2" d="M285.94,105.14c4.6,0,5.83,4.05,5.83,6.64,0,.52-.06.93-.09,1.19h-9.9c.06,3.47,2.27,4.89,4.83,4.89,1.83,0,2.94-.32,3.9-.73l.44,1.83c-.9.41-2.45.87-4.69.87-4.34,0-6.93-2.85-6.93-7.11s2.5-7.6,6.61-7.6M281.8,111.14h7.49c.03-1.63-.67-4.17-3.55-4.17-2.59,0-3.73,2.39-3.93,4.17M285.94,104.39c-4.33,0-7.36,3.43-7.36,8.35s3.02,7.86,7.68,7.86c2.41,0,4.05-.51,5-.94l.56-.25-.14-.6-.44-1.83-.21-.86-.82.35c-.82.35-1.82.67-3.61.67-1.12,0-3.62-.35-4.03-3.39h9.77l.07-.67v-.12c.05-.27.09-.67.09-1.16,0-3.68-2.03-7.39-6.58-7.39h0ZM282.71,110.39c.36-1.24,1.24-2.67,3.02-2.67.82,0,1.44.23,1.91.71.56.57.77,1.36.85,1.96h-5.78Z"/>
      </g>
      <g>
        <path class="cls-3" d="M304,119.93v-8.5c0-1.73-.5-3.79-2.89-3.79-1.63,0-2.72,1.18-3.08,2.36-.1.28-.16.67-.16,1.08v8.85h-3.31v-10.66c0-1.58-.03-2.71-.12-3.79l-.03-.4h3.03l.1,1.66c.89-1.06,2.37-1.98,4.41-1.98,2.47,0,5.36,1.67,5.36,6.38v8.79h-3.31Z"/>
        <path class="cls-2" d="M301.96,105.14c1.95,0,4.98,1.17,4.98,6v8.42h-2.56v-8.13c0-2.27-.84-4.17-3.26-4.17-1.69,0-3,1.19-3.44,2.62-.12.32-.17.76-.17,1.19v8.48h-2.56v-10.28c0-1.46-.03-2.65-.12-3.82h2.27l.15,2.33h.06c.7-1.34,2.33-2.65,4.66-2.65M301.96,104.39c-1.76,0-3.12.64-4.09,1.49l-.03-.47-.04-.7h-3.79l.06.81c.08,1.07.12,2.19.12,3.76v11.03h4.06v-9.23c0-.37.05-.72.13-.94.33-1.08,1.3-2.13,2.73-2.13,1.67,0,2.51,1.15,2.51,3.42v8.88h4.06v-9.17c0-4.98-3.09-6.75-5.73-6.75h0Z"/>
      </g>
      <g>
        <path class="cls-3" d="M315.33,120.23c-1.31,0-2.36-.42-3.05-1.21-.73-.76-1.08-2.01-1.08-3.92v-7.31h-2.18v-2.7h2.18v-3.29l3.25-.87v4.16h3.67v2.7h-3.67v7.23c0,2.08.74,2.36,1.55,2.36.65,0,1.12-.09,1.39-.16l.44-.12.16,2.65-.25.1c-.59.24-1.45.38-2.41.38Z"/>
        <path class="cls-2" d="M314.08,101.41v4.05h3.67v1.95h-3.67v7.6c0,1.75.5,2.74,1.92,2.74.67,0,1.17-.09,1.49-.17l.12,1.92c-.5.2-1.28.35-2.27.35-1.19,0-2.16-.38-2.77-1.08-.73-.76-.99-2.01-.99-3.67v-7.69h-2.18v-1.95h2.18v-3.38l2.5-.67M314.83,100.44l-.94.25-2.5.67-.56.15v3.2h-2.18v3.45h2.18v6.94c0,2.01.38,3.34,1.2,4.19.74.85,1.89,1.31,3.31,1.31,1.01,0,1.92-.14,2.56-.41l.5-.2-.03-.53-.12-1.92-.06-.92-.89.24c-.25.07-.68.15-1.29.15-.49,0-1.17,0-1.17-1.99v-6.85h3.67v-3.45h-3.67v-4.28h0Z"/>
      </g>
      <g>
        <path class="cls-3" d="M323.61,120.23c-1.54,0-3.06-.37-4.15-1.01l-.26-.15.89-2.7.41.27c.73.48,1.99.96,3.17.96,1.48,0,2.36-.64,2.36-1.72,0-.88-.38-1.5-2.38-2.24-3.28-1.17-3.97-3.01-3.97-4.34,0-2.66,2.15-4.51,5.24-4.51,1.31,0,2.68.35,3.66.93l.26.16-.89,2.6-.4-.25c-.36-.23-1.34-.76-2.68-.76-1.19,0-1.98.62-1.98,1.55,0,.87.52,1.31,2.44,2.04,2.73,1.04,3.94,2.46,3.94,4.6,0,2.79-2.22,4.6-5.65,4.6Z"/>
        <path class="cls-2" d="M324.92,105.14c1.43,0,2.68.41,3.47.87l-.64,1.86c-.55-.35-1.57-.82-2.88-.82-1.51,0-2.36.87-2.36,1.92,0,1.17.84,1.69,2.68,2.39,2.45.93,3.7,2.16,3.7,4.25,0,2.48-1.92,4.22-5.27,4.22-1.54,0-2.97-.38-3.96-.96l.64-1.95c.76.5,2.1,1.02,3.38,1.02,1.86,0,2.74-.93,2.74-2.1,0-1.22-.73-1.89-2.62-2.59-2.53-.9-3.73-2.3-3.73-3.99,0-2.27,1.83-4.14,4.86-4.14M324.92,104.39c-3.25,0-5.61,2.06-5.61,4.89,0,1.46.73,3.45,4.23,4.7,1.97.73,2.12,1.26,2.12,1.89,0,1.22-1.39,1.35-1.99,1.35-1.1,0-2.31-.46-2.97-.9l-.82-.54-.31.93-.64,1.95-.19.57.52.31c1.15.68,2.73,1.06,4.34,1.06,3.66,0,6.02-1.95,6.02-4.97s-2.23-4.21-4.18-4.95c-1.89-.72-2.2-1.09-2.2-1.69,0-.71.63-1.17,1.61-1.17,1.24,0,2.15.49,2.48.7l.8.51.31-.9.64-1.86.2-.58-.53-.31c-1.05-.62-2.45-.98-3.85-.98h0Z"/>
      </g>
    </g>
  </g>
</svg>