<?xml version="1.0" encoding="UTF-8"?>
<svg id="tel-swipe" xmlns="http://www.w3.org/2000/svg" viewBox="0 0 332.08 130.74">
  <defs>
    <style>
      .cls-1 {
        fill: #8fa1c9;
        stroke: #fff4e3;
        stroke-width: 2px;
      }

      .cls-1, .cls-2 {
        stroke-miterlimit: 10;
      }

      .cls-2 {
        fill: #fff4e3;
        stroke: #252422;
        stroke-width: .75px;
      }
    </style>
  </defs>
  <g id="milieu">
    <g>
      <g>
        <path class="cls-1" d="M55.09,52.36c5.52,2.33,8.81,7.21,8.81,13.69,0,12.95-10.5,19.52-26.1,19.52H8.61l10.93-63.03h26.53c13.37,0,19.42,6.15,19.42,14.96,0,7-4.14,12.52-10.4,14.86ZM40.23,60.21h-9.66l-1.91,11.14h9.66c4.46,0,7.64-1.7,7.64-6.05,0-3.29-1.7-5.09-5.73-5.09ZM41.93,36.76h-7.22l-1.91,10.82h7.43c4.46,0,7.43-1.7,7.43-5.94,0-3.18-1.7-4.88-5.73-4.88Z"/>
        <path class="cls-1" d="M108.99,85.57l-1.8-13.26h-19.52l-6.37,13.26h-18.68l33-63.03h20.69l10.82,63.03h-18.14ZM104,48.64c-.42-2.97-.53-5.52-.64-8.28h-.53c-.95,2.76-2.12,5.31-3.61,8.28l-4.77,9.76h10.82l-1.27-9.76Z"/>
        <path class="cls-1" d="M144.01,22.54h17.72l-8.17,47.11h25.04l-2.76,15.92h-42.76l10.93-63.03Z"/>
        <path class="cls-1" d="M223.59,85.57l-1.8-13.26h-19.52l-6.37,13.26h-18.68l33-63.03h20.69l10.82,63.03h-18.14ZM218.6,48.64c-.42-2.97-.53-5.52-.64-8.28h-.53c-.95,2.76-2.12,5.31-3.61,8.28l-4.77,9.76h10.82l-1.27-9.76Z"/>
        <path class="cls-1" d="M265.4,85.57h-17.72l10.93-63.03h17.72l-10.93,63.03Z"/>
        <path class="cls-1" d="M327.05,38.25h-25.25l-1.38,7.96h20.59l-2.76,15.28h-20.48l-1.49,8.38h26.95l-2.76,15.7h-44.57l10.93-63.03h44.25l-4.03,15.7Z"/>
      </g>
      <g>
        <path class="cls-2" d="M2.43,108.38c0-.23.19-.39.42-.39h2.42c.26,0,.39.16.39.39v1.03c1.03-1.1,2.35-1.74,4.29-1.74,3.39,0,5.67,2.26,5.67,6.83s-2.19,6.87-5.71,6.87c-1.51,0-3.06-.52-4.26-1.52v8.83c0,.26-.13.42-.39.42h-2.42c-.23,0-.42-.16-.42-.42v-20.31ZM12.2,114.5c0-2.51-1-4.16-3.16-4.16-1.23,0-2.29.52-3.39,1.71v5.06c1.1,1.06,2.1,1.55,3.42,1.55,2.16,0,3.13-1.61,3.13-4.16Z"/>
        <path class="cls-2" d="M17.94,114.5c0-4.26,2.61-6.83,6.93-6.83s6.9,2.58,6.9,6.83-2.61,6.87-6.9,6.87-6.93-2.58-6.93-6.87ZM28.39,114.5c0-2.48-1.26-4.16-3.51-4.16s-3.51,1.68-3.51,4.16,1.26,4.16,3.51,4.16,3.51-1.64,3.51-4.16Z"/>
        <path class="cls-2" d="M37.45,107.99c.26,0,.42.13.42.35v7.32c0,2.03.9,2.84,2.64,2.84,1.19,0,2.19-.45,3.16-1.19v-8.9c0-.26.13-.42.39-.42h2.42c.26,0,.42.16.42.42v12.22c0,.26-.16.42-.42.42h-2.42c-.26,0-.39-.16-.39-.42v-.97c-1.13,1.03-2.51,1.71-4.26,1.71-2.87,0-4.77-1.55-4.77-4.87v-8.12c0-.23.13-.39.39-.39h2.42Z"/>
        <path class="cls-2" d="M50.74,108.41c0-.26.16-.42.39-.42h2.42c.26,0,.42.16.42.42v1.35c1-1.23,2.1-2.1,3.74-2.1.68,0,1.32.06,1.77.26.32.16.26.35.19.64l-.48,1.97c-.1.32-.29.35-.64.26-.45-.1-1.03-.23-1.74-.23-1.19,0-2.03.45-2.84,1.26v8.8c0,.26-.16.42-.42.42h-2.42c-.23,0-.39-.16-.39-.42v-12.22Z"/>
        <path class="cls-2" d="M70.73,114.44c0,2.71,1.32,4.22,3.84,4.22,1.03,0,2.03-.35,2.8-.81.39-.23.55-.1.71.23l.71,1.61c.1.23.06.39-.26.58-1.1.68-2.64,1.1-4.22,1.1-4.48,0-6.9-2.42-6.9-6.87s2.42-6.83,6.61-6.83c1.68,0,3.32.48,4.32,1.03.32.16.32.35.19.61l-.61,1.64c-.13.32-.29.45-.64.26-.81-.48-1.9-.87-2.93-.87-2.29,0-3.61,1.48-3.61,4.09Z"/>
        <path class="cls-2" d="M81.44,99.54c0-.26.19-.42.42-.42h2.42c.26,0,.39.16.39.42v10.03c1.19-1.19,2.74-1.9,4.55-1.9,2.97,0,4.8,1.61,4.8,4.87v8.09c0,.26-.13.42-.39.42h-2.42c-.26,0-.42-.16-.42-.39v-7.35c0-1.87-.84-2.8-2.61-2.8-1.32,0-2.42.58-3.51,1.52v8.61c0,.26-.13.42-.39.42h-2.42c-.23,0-.42-.16-.42-.42v-21.09Z"/>
        <path class="cls-2" d="M96.85,114.5c0-4.26,2.61-6.83,6.93-6.83s6.9,2.58,6.9,6.83-2.61,6.87-6.9,6.87-6.93-2.58-6.93-6.87ZM107.3,114.5c0-2.48-1.26-4.16-3.51-4.16s-3.51,1.68-3.51,4.16,1.26,4.16,3.51,4.16,3.51-1.64,3.51-4.16Z"/>
        <path class="cls-2" d="M113.42,103.31c0-1.06.84-1.9,1.9-1.9s1.93.84,1.93,1.9-.84,1.93-1.93,1.93-1.9-.84-1.9-1.93ZM113.75,108.41c0-.26.19-.42.42-.42h2.39c.26,0,.42.16.42.42v12.22c0,.26-.16.42-.42.42h-2.39c-.23,0-.42-.16-.42-.42v-12.22Z"/>
        <path class="cls-2" d="M127.87,117.44c0-1.03-.64-1.45-3.06-1.97-3.19-.64-4.61-1.87-4.61-3.97s1.84-3.84,5.32-3.84c1.84,0,3.9.48,5.19,1.13.36.19.36.35.26.61l-.58,1.35c-.13.42-.32.52-.77.29-1.03-.48-2.61-1.03-4.03-1.03-1.29,0-1.97.55-1.97,1.35s.64,1.29,3.1,1.84c3.13.71,4.58,1.71,4.58,4.06,0,2.64-2.13,4.09-5.74,4.09-2.03,0-4.03-.42-5.51-1.13-.32-.19-.39-.36-.23-.74l.52-1.32c.16-.36.32-.42.68-.26,1.39.65,3.19,1.06,4.67,1.06,1.39,0,2.19-.55,2.19-1.55Z"/>
        <path class="cls-2" d="M133.93,103.31c0-1.06.84-1.9,1.9-1.9s1.93.84,1.93,1.9-.84,1.93-1.93,1.93-1.9-.84-1.9-1.93ZM134.25,108.41c0-.26.19-.42.42-.42h2.39c.26,0,.42.16.42.42v12.22c0,.26-.16.42-.42.42h-2.39c-.23,0-.42-.16-.42-.42v-12.22Z"/>
        <path class="cls-2" d="M141.32,108.41c0-.26.16-.42.39-.42h2.42c.26,0,.42.16.42.42v1.35c1-1.23,2.1-2.1,3.74-2.1.68,0,1.32.06,1.77.26.32.16.26.35.19.64l-.48,1.97c-.1.32-.29.35-.64.26-.45-.1-1.03-.23-1.74-.23-1.19,0-2.03.45-2.84,1.26v8.8c0,.26-.16.42-.42.42h-2.42c-.23,0-.39-.16-.39-.42v-12.22Z"/>
        <path class="cls-2" d="M158.76,99.51c0-.23.19-.39.42-.39h2.39c.29,0,.42.16.42.39v21.12c0,.26-.13.42-.42.42h-2.39c-.23,0-.42-.16-.42-.42v-21.12Z"/>
        <path class="cls-2" d="M172.5,121.37c-4.77,0-7.48-2.58-7.48-6.87s2.64-6.83,6.74-6.83c3.61,0,6,2.35,6,5.93,0,.29,0,.77-.06,1.1-.03.26-.16.35-.45.35h-8.87c.26,2.39,1.84,3.77,4.42,3.77,1.55,0,3.06-.48,4.03-.9.35-.13.52-.06.64.26l.52,1.51c.1.26.1.42-.19.58-1.39.74-3.42,1.1-5.29,1.1ZM168.4,113.34h6.32c-.19-2.22-1.29-3.22-3.03-3.22s-2.97,1.26-3.29,3.22Z"/>
        <path class="cls-2" d="M188.07,117.44c0-1.03-.65-1.45-3.06-1.97-3.19-.64-4.61-1.87-4.61-3.97s1.84-3.84,5.32-3.84c1.84,0,3.9.48,5.19,1.13.35.19.35.35.26.61l-.58,1.35c-.13.42-.32.52-.77.29-1.03-.48-2.61-1.03-4.03-1.03-1.29,0-1.97.55-1.97,1.35s.64,1.29,3.09,1.84c3.13.71,4.58,1.71,4.58,4.06,0,2.64-2.13,4.09-5.74,4.09-2.03,0-4.03-.42-5.51-1.13-.32-.19-.39-.36-.23-.74l.52-1.32c.16-.36.32-.42.68-.26,1.39.65,3.19,1.06,4.68,1.06,1.39,0,2.19-.55,2.19-1.55Z"/>
        <path class="cls-2" d="M200.26,103.31c0-1.06.84-1.9,1.9-1.9s1.93.84,1.93,1.9-.84,1.93-1.93,1.93-1.9-.84-1.9-1.93ZM200.58,108.41c0-.26.19-.42.42-.42h2.39c.26,0,.42.16.42.42v12.22c0,.26-.16.42-.42.42h-2.39c-.23,0-.42-.16-.42-.42v-12.22Z"/>
        <path class="cls-2" d="M207.64,108.41c0-.26.16-.42.39-.42h2.42c.26,0,.42.16.42.42v1.13c1.19-1.16,2.74-1.87,4.51-1.87,2.97,0,4.84,1.61,4.84,4.87v8.09c0,.26-.16.42-.42.42h-2.42c-.26,0-.39-.16-.39-.39v-7.35c0-1.87-.87-2.8-2.64-2.8-1.29,0-2.39.55-3.48,1.48v8.64c0,.26-.16.42-.42.42h-2.42c-.23,0-.39-.16-.39-.42v-12.22Z"/>
        <path class="cls-2" d="M226.93,117.37c-.58.45-.74,1-.74,1.45,0,.71.52,1.16,1.52,1.16h3.55c3.68,0,5.45,1.39,5.45,3.9,0,3.19-3.1,5.55-8.03,5.55-3.8,0-5.96-1.55-5.96-3.74,0-1.45.84-2.55,2.58-3.26-1.16-.48-1.84-1.45-1.84-2.81,0-1.16.68-2.19,2-2.87-1.42-.84-2.22-2.22-2.22-4.09,0-3.13,2.32-5,6.16-5,.55,0,1.1.03,1.58.13l.16-.52c.68-1.9,2.06-2.64,3.9-2.64h.35c.26,0,.42.16.42.45v1.45c0,.29-.16.45-.42.45h-.45c-1.13,0-1.61.16-2.1,1.03l-.19.23c1.84.81,2.87,2.32,2.87,4.42,0,3.19-2.32,5-6.13,5-.9,0-1.71-.1-2.45-.29ZM229.12,127.37c2.74,0,4.51-1.23,4.51-2.84,0-1.19-.87-1.74-3.16-1.74h-2.93c-1.32.64-1.93,1.42-1.93,2.45,0,1.29,1.22,2.13,3.51,2.13ZM232.25,112.66c0-1.77-1.1-2.8-2.87-2.8s-2.93,1.03-2.93,2.8,1.13,2.8,2.93,2.8,2.87-1.03,2.87-2.8Z"/>
        <path class="cls-2" d="M245.08,121.37c-4.77,0-7.48-2.58-7.48-6.87s2.64-6.83,6.74-6.83c3.61,0,6,2.35,6,5.93,0,.29,0,.77-.06,1.1-.03.26-.16.35-.45.35h-8.87c.26,2.39,1.84,3.77,4.42,3.77,1.55,0,3.06-.48,4.03-.9.35-.13.52-.06.64.26l.52,1.51c.1.26.1.42-.19.58-1.39.74-3.42,1.1-5.29,1.1ZM240.99,113.34h6.32c-.19-2.22-1.29-3.22-3.03-3.22s-2.97,1.26-3.29,3.22ZM244.98,101.25c.19-.39.39-.52.77-.52h2.19c.45,0,.65.29.35.71l-2.8,4.22c-.23.32-.35.52-.74.52h-1.48c-.39,0-.55-.26-.35-.65l2.06-4.29Z"/>
        <path class="cls-2" d="M265.65,121.05h-2.42c-.26,0-.42-.16-.42-.42v-.97c-1.06,1.06-2.35,1.71-4.26,1.71-3.42,0-5.67-2.26-5.67-6.87,0-4.35,2.16-6.83,5.71-6.83,1.52,0,3.03.52,4.22,1.51v-9.67c0-.23.16-.39.42-.39h2.42c.23,0,.39.16.39.39v21.12c0,.26-.16.42-.39.42ZM256.27,114.5c0,2.55,1,4.16,3.19,4.16,1.19,0,2.26-.52,3.35-1.68v-5.09c-1.1-1.06-2.1-1.55-3.38-1.55-2.19,0-3.16,1.64-3.16,4.16Z"/>
        <path class="cls-2" d="M269.59,103.31c0-1.06.84-1.9,1.9-1.9s1.93.84,1.93,1.9-.84,1.93-1.93,1.93-1.9-.84-1.9-1.93ZM269.91,108.41c0-.26.19-.42.42-.42h2.39c.26,0,.42.16.42.42v12.22c0,.26-.16.42-.42.42h-2.39c-.23,0-.42-.16-.42-.42v-12.22Z"/>
        <path class="cls-2" d="M283.61,121.37c-4.77,0-7.48-2.58-7.48-6.87s2.64-6.83,6.74-6.83c3.61,0,6,2.35,6,5.93,0,.29,0,.77-.06,1.1-.03.26-.16.35-.45.35h-8.87c.26,2.39,1.84,3.77,4.42,3.77,1.55,0,3.06-.48,4.03-.9.35-.13.52-.06.64.26l.52,1.51c.1.26.1.42-.19.58-1.39.74-3.42,1.1-5.29,1.1ZM279.52,113.34h6.32c-.19-2.22-1.29-3.22-3.03-3.22s-2.97,1.26-3.29,3.22Z"/>
        <path class="cls-2" d="M292.13,108.41c0-.26.16-.42.39-.42h2.42c.26,0,.42.16.42.42v1.13c1.19-1.16,2.74-1.87,4.51-1.87,2.97,0,4.84,1.61,4.84,4.87v8.09c0,.26-.16.42-.42.42h-2.42c-.26,0-.39-.16-.39-.39v-7.35c0-1.87-.87-2.8-2.64-2.8-1.29,0-2.39.55-3.48,1.48v8.64c0,.26-.16.42-.42.42h-2.42c-.23,0-.39-.16-.39-.42v-12.22Z"/>
        <path class="cls-2" d="M313.89,118.69c.68,0,1.32-.19,1.84-.45.32-.19.48-.13.61.19l.58,1.58c.13.29.1.42-.19.58-.87.48-2.06.77-3.35.77-2.8,0-4.19-1.35-4.19-4.32v-6.45h-1.68c-.26,0-.42-.16-.42-.39v-1.81c0-.26.16-.42.42-.42h1.68v-3.45c0-.26.16-.42.42-.42h2.39c.26,0,.42.16.42.42v3.45h3.55c.26,0,.42.16.42.42v1.81c0,.23-.16.39-.42.39h-3.55v6.22c0,1.23.45,1.87,1.48,1.87Z"/>
        <path class="cls-2" d="M326.63,117.44c0-1.03-.64-1.45-3.06-1.97-3.19-.64-4.61-1.87-4.61-3.97s1.84-3.84,5.32-3.84c1.84,0,3.9.48,5.19,1.13.36.19.36.35.26.61l-.58,1.35c-.13.42-.32.52-.77.29-1.03-.48-2.61-1.03-4.03-1.03-1.29,0-1.97.55-1.97,1.35s.64,1.29,3.1,1.84c3.13.71,4.58,1.71,4.58,4.06,0,2.64-2.13,4.09-5.74,4.09-2.03,0-4.03-.42-5.51-1.13-.32-.19-.39-.36-.23-.74l.52-1.32c.16-.36.32-.42.68-.26,1.39.65,3.19,1.06,4.67,1.06,1.39,0,2.19-.55,2.19-1.55Z"/>
      </g>
    </g>
  </g>
</svg>