<?xml version="1.0" encoding="UTF-8"?>
<svg id="tel-manette" xmlns="http://www.w3.org/2000/svg" viewBox="0 0 191.13 124.43">
  <defs>
    <style>
      .cls-1 {
        fill: #913333;
      }

      .cls-1, .cls-2 {
        stroke: #000;
        stroke-miterlimit: 10;
        stroke-width: 2px;
      }

      .cls-2 {
        fill: none;
      }

      .cls-3 {
        fill: #ffba63;
        stroke-width: 0px;
      }
    </style>
  </defs>
  <g id="design-bas">
    <g id="lignes-déco-bas">
      <g>
        <rect class="cls-1" x="11.59" y="9.37" width="168" height="104.54"/>
        <g>
          <path class="cls-3" d="M35.41,59.16c1.74,1.23,3.37,2.6,4.8,4.38,3.26,4.07,4.99,9.84,5.42,18.4.56,11-2.58,22.37-9.12,26.32-2.89,1.74-6.19.27-9.28.27h-11.25v-1.34h1.31c1.2,0,2.18-2.24,2.18-4.98V22.33c0-2.74-.98-4.98-2.18-4.98h-1.31v-1.34h12.77c12-8.84,19.15,33.33,4.92,41.79,0,0,.74.66,1.74,1.36ZM31.27,57.25c-.87-1.22-1.59-2.14-2.37-4.16-2.25-5.73-3.54-15.19-3.55-22.94v72.05c0,2.74.98,4.98,2.18,4.98h1.13c13.6,0,13.25-35.04,2.62-49.94ZM31.23,55.58c3.49,3.52,5.33-8.2,3.78-21.44-1.11-9.43-3.53-16.36-5.71-16.79-3.05-.61-4.14,10.79-2.82,22.02.94,8.06,2.85,14.3,4.75,16.21Z"/>
          <path class="cls-3" d="M78.13,62.27c0,26.2-6.98,47.45-14.8,47.45s-14.8-21.24-14.8-47.45,6.98-47.45,14.8-47.45,14.8,21.24,14.8,47.45ZM58.36,20.95c-4.28,2.56-6.17,23.13-3.43,45.95,2.74,22.82,9.09,39.25,13.37,36.69,4.28-2.56,6.17-23.13,3.43-45.95-2.74-22.82-9.08-39.25-13.37-36.69Z"/>
          <path class="cls-3" d="M84.45,86.04V22.33c0-2.74-.98-4.98-2.18-4.98h-1.31v-1.34h12.85v1.34h-1.31c-1.2,0-2.18,2.24-2.18,4.98v64.29c0,22.33,18.72,21.85,18.72-.48V22.33c0-2.74-.98-4.98-2.18-4.98h-1.31v-1.34h8.56v1.34h-1.31c-1.2,0-2.18,2.24-2.18,4.98v63.8c0,18.55-9.65,25.01-16.23,22.4-5.05-2-9.97-9.61-9.97-22.48Z"/>
          <path class="cls-3" d="M131.74,14.78c6.52,0,11.33,15.02,9.31,29.75-.37,2.71-.96,5.18-1.73,7.17-.24.62-.5,1.21-.77,1.73-7.26-53.63-21.01-34.78-15.21,13.43,2.74,22.82,9.09,39.25,13.37,36.69.93-.56,1.75-1.97,2.44-4.08-.91-1.66-2.01-2.76-3.22-3.11v-28.44c0-2.63-.93-4.78-2.06-4.78h-5.24v-1.35h15.04v1.35h0c-1.04.24-1.86,2.29-1.86,4.76v41.11h-.25c-.21-3.24-.87-6.14-1.83-8.35l-1.02,2.32c-2.03,4.29-4.12,6.69-6.97,6.69-7.82,0-14.8-21.24-14.8-47.45s6.98-47.45,14.8-47.45Z"/>
          <path class="cls-3" d="M172.52,88.36h.62l-.56,20.17h-27.33v-1.34h1.31c1.2,0,2.18-2.24,2.18-4.98V22.33c0-2.74-.98-4.98-2.18-4.98h-1.31v-1.34h25.29l.88,20.17h-.62l-.03-.26c-1.31-11.11-5.56-18.57-10.59-18.57h-3.44s-.05,0-.05,0h-.06s-.06.02-.06.02h-.05s-.05.03-.05.03l-.05.02-.05.02-.05.03-.05.03-.05.03-.05.04-.05.04-.05.04-.05.04-.05.05-.05.05-.05.05-.05.05-.05.06-.05.06s-.06.08-.09.12l-.04.07-.04.07-.04.07-.04.07-.04.08-.04.08-.04.08-.04.08-.04.08-.04.09-.04.09-.03.09-.03.09-.03.09-.03.1-.03.1-.03.1-.03.1c-.02.07-.04.13-.05.21l-.03.1-.02.11-.02.11-.02.11-.02.11-.02.11-.02.11-.02.12-.02.12-.02.12v.12s-.03.12-.03.12v.12s-.02.12-.02.12v.12s-.02.12-.02.12v.12s-.01.13-.01.13v.13s0,.13,0,.13v.13s0,33.57,0,33.57h4.27c3.35-.05,6.07-6.26,6.09-13.93v-.09h.67v29.38h-.67v-.09c-.02-7.67-2.74-13.88-6.09-13.93h-4.27v44.96c0,2.74.98,4.98,2.18,4.98h4.14c5.03,0,10.25-7.46,11.56-18.57l.03-.26Z"/>
        </g>
        <line class="cls-2" x1="190.13" y1="0" x2="190.13" y2="124.43"/>
        <line class="cls-2" x1="1" y1="0" x2="1" y2="124.43"/>
        <line class="cls-2" x1="11.59" y1=".9" x2="179.59" y2=".9"/>
        <line class="cls-2" x1="11.59" y1="123.49" x2="179.59" y2="123.49"/>
      </g>
    </g>
  </g>
</svg>